<svg width="70" height="71" viewBox="0 0 70 71" fill="none" xmlns="http://www.w3.org/2000/svg">
<g clip-path="url(#clip0_723_1797)">
<path d="M10.625 62.5625H27.125C30.9214 62.5625 34 59.4445 34 55.5996V51.3286C34 44.459 28.5619 34.7109 26.9421 34.7109H10.8079C9.18813 34.7109 3.75 44.459 3.75 51.3286V55.5996C3.75 59.4445 6.82863 62.5625 10.625 62.5625Z" fill="#FEBE07"/>
<path d="M29.5587 23.9616L26.685 25.4169C26.2491 25.6383 25.7197 25.5115 25.4269 25.1161L23.605 22.6554C23.2365 22.1582 22.5187 22.1067 22.0856 22.5454L19.6959 24.9657C19.2614 25.4057 18.545 25.3542 18.1765 24.8556L16.5471 22.6554C16.1786 22.1582 15.4609 22.1067 15.0277 22.5454L12.2365 25.3723C11.978 25.6341 11.5985 25.7344 11.2465 25.6327L7.07337 24.4253C6.214 24.1775 5.48249 25.1021 5.9115 25.8973L10.625 34.7109H27.125L30.9406 25.2678C31.3009 24.3947 30.3947 23.5397 29.5587 23.9616Z" fill="#FEBE07"/>
<path d="M38.125 23.5703H51.875V62.5625H38.125V23.5703Z" fill="#5AA2FF"/>
<path d="M30.2875 40.2812H25.75V62.5625H38.125V40.2812H30.2875Z" fill="#5AA2FF"/>
<path d="M54.625 55.5996H60.125V62.5625H54.625V55.5996Z" fill="#5AA2FF"/>
<path d="M65.625 51.4219H49.125V62.5625H54.625V55.5996H60.125V62.5625H65.625V51.4219Z" fill="#CBE6FE"/>
<path d="M68.375 51.4219L57.375 40.2812L51.875 45.8516L46.375 51.4219H68.375Z" fill="#FE7C7A"/>
<path d="M26.2996 40.2812H38.125V62.5625H26.2996V40.2812Z" fill="#2B67B3"/>
<path d="M62.7292 63.9551H67V60.2564V58.3848V58.9627V52.8144H68.375C68.9305 52.8144 69.4337 52.4747 69.6455 51.9552C69.8586 51.4344 69.7404 50.8356 69.3471 50.4373L58.3471 39.2967C57.8095 38.7522 56.9405 38.7522 56.4029 39.2967L53.25 42.4899V23.5703C53.25 22.8016 52.6354 22.1777 51.875 22.1777H38.125C37.3646 22.1777 36.75 22.8016 36.75 23.5703V38.8887H31.1785C30.1321 36.5575 29.358 35.1942 28.7365 34.4032L32.2111 25.8026C32.5975 24.8626 32.372 23.8057 31.6364 23.1108C30.9007 22.4145 29.8434 22.2627 28.9455 22.7167L26.3454 24.0327L24.7078 21.8212C24.2939 21.2614 23.6614 20.9105 22.9725 20.8604C22.2822 20.8088 21.6071 21.0637 21.1135 21.5608L19.0221 23.6775L17.6485 21.8212C17.2332 21.26 16.6007 20.9105 15.9105 20.8604C15.2216 20.8088 14.5437 21.0651 14.0542 21.5608L11.4156 24.2332L7.45012 23.0857C6.51925 22.8155 5.53613 23.1358 4.93525 23.8976C4.333 24.6593 4.24088 25.7051 4.7015 26.5588L8.8595 34.3335C5.94037 37.0045 2.375 44.5091 2.375 51.3286V55.5996C2.375 60.2076 6.07512 63.9551 10.625 63.9551H25.75H38.125H49.125C54.6998 63.9551 57.8254 63.9551 63.4002 63.9551H62.7292ZM10.8684 26.9724C11.7002 27.2133 12.5981 26.9793 13.2086 26.3583L15.7015 23.8335L17.0765 25.6926C17.4931 26.2524 18.127 26.6033 18.8172 26.6521C19.5157 26.698 20.1812 26.4446 20.6694 25.9502L22.7607 23.8335L24.3296 25.9502C25.0185 26.886 26.267 27.1868 27.3024 26.6632L29.303 25.6494L26.201 33.3184H22.4748L24.2292 29.7631L21.7694 28.5168L19.4002 33.3184H16.9899L15.0731 29.2799L12.594 30.4872L13.9374 33.3184H11.4431L7.534 26.0073L10.8684 26.9724ZM24.375 40.2812V61.1699H10.625C7.59175 61.1699 5.125 58.6716 5.125 55.5996V51.3286C5.125 43.8741 9.68037 36.9223 10.9839 36.1035H26.5585C26.7812 36.3765 27.2859 37.109 28.1397 38.8887H25.75C24.9896 38.8887 24.375 39.5125 24.375 40.2812ZM27.125 41.6738H36.75V61.1699H27.125V41.6738ZM57.375 42.2504L65.0557 50.0293H49.6942L57.375 42.2504ZM39.5 24.9629H50.5V45.275L45.4029 50.4373C45.0096 50.8356 44.8914 51.4344 45.1045 51.9552C45.3162 52.4747 45.8195 52.8144 46.375 52.8144H47.75V61.1699H39.5V24.9629ZM50.5 52.8144H64.25V61.1699H61.5V55.5996C61.5 54.8309 60.8854 54.207 60.125 54.207H54.625C53.8646 54.207 53.25 54.8309 53.25 55.5996V61.1699H50.5V52.8144ZM58.75 61.1699H56V56.9922H58.75V61.1699ZM67 63.9551V61.1699V62.0472V63.9551Z" fill="black"/>
<path d="M42.25 27.748H43.625V30.5332H42.25V27.748Z" fill="black"/>
<path d="M46.375 27.748H47.75V30.5332H46.375V27.748Z" fill="black"/>
<path d="M42.25 33.3184H43.625V36.1035H42.25V33.3184Z" fill="black"/>
<path d="M46.375 33.3184H47.75V36.1035H46.375V33.3184Z" fill="black"/>
<path d="M42.25 38.8887H43.625V41.6738H42.25V38.8887Z" fill="black"/>
<path d="M46.375 38.8887H47.75V41.6738H46.375V38.8887Z" fill="black"/>
<path d="M29.875 44.459H31.25V47.2441H29.875V44.459Z" fill="black"/>
<path d="M34 44.459H35.375V47.2441H34V44.459Z" fill="black"/>
<path d="M29.875 50.0293H31.25V52.8145H29.875V50.0293Z" fill="black"/>
<path d="M34 50.0293H35.375V52.8145H34V50.0293Z" fill="black"/>
<path d="M29.875 55.5996H31.25V58.3848H29.875V55.5996Z" fill="black"/>
<path d="M34 55.5996H35.375V58.3848H34V55.5996Z" fill="black"/>
<path d="M42.25 44.459H43.625V47.2441H42.25V44.459Z" fill="black"/>
<path d="M46.375 44.459H47.75V47.2441H46.375V44.459Z" fill="black"/>
<path d="M20.25 43.0664H18.875V41.6738H16.125V43.0664H14.75C13.9896 43.0664 13.375 43.6903 13.375 44.459V48.6367C13.375 49.4054 13.9896 50.0293 14.75 50.0293H18.875V51.4219H13.375V52.8145C13.375 53.5832 13.9896 54.207 14.75 54.207H16.125V55.5996H18.875V54.207H20.25C21.0104 54.207 21.625 53.5832 21.625 52.8145V48.6367C21.625 47.868 21.0104 47.2441 20.25 47.2441H16.125V45.8516H21.625V44.459C21.625 43.6903 21.0104 43.0664 20.25 43.0664Z" fill="black"/>
</g>
<defs>
<clipPath id="clip0_723_1797">
<rect width="70" height="70" fill="white" transform="matrix(-1 0 0 1 70 0.499817)"/>
</clipPath>
</defs>
</svg>
