<svg width="71" height="71" viewBox="0 0 71 71" fill="none" xmlns="http://www.w3.org/2000/svg">
<g clip-path="url(#clip0_735_1623)">
<path d="M58.7422 29.8361H55.1716L50.1617 22.5179C47.2035 18.1969 42.3112 15.6173 37.0749 15.6173H26.5265C21.29 15.6173 16.3977 18.1969 13.4396 22.5179L8.29283 30.0361C3.67953 31.5595 0.5 35.9196 0.5 40.8129V44.3282C0.5 46.5898 2.33996 48.4298 4.60156 48.4298H7.37162C7.36807 48.5207 7.36465 48.6115 7.36465 48.7032C7.36465 52.4726 10.4312 55.5392 14.2006 55.5392C17.9699 55.5392 21.0365 52.4726 21.0365 48.7032C21.0365 48.6115 21.0332 48.5207 21.0296 48.4298H29.4644C30.2195 48.4298 30.8316 47.8176 30.8316 47.0626C30.8316 46.3077 30.2195 45.6954 29.4644 45.6954H20.3373C19.2227 43.4303 16.8911 41.8673 14.2006 41.8673C11.5101 41.8673 9.1785 43.4303 8.06383 45.6954H4.60156C3.8477 45.6954 3.23438 45.0821 3.23438 44.3282V40.8129C3.23438 36.969 5.81918 33.5585 9.52002 32.5196C9.82887 32.4328 10.0975 32.2403 10.2787 31.9756L15.6959 24.0626C18.1438 20.4865 22.1928 18.3517 26.5263 18.3517H37.0747C41.4083 18.3517 45.4572 20.4865 47.9053 24.0626L53.3224 31.9754C53.5772 32.3479 53.9994 32.5704 54.4506 32.5704H58.7422C63.7178 32.5704 67.7656 36.6183 67.7656 41.5939V45.6954H63.1701C62.0553 43.4303 59.7238 41.8673 57.0332 41.8673C54.3426 41.8673 52.0111 43.4303 50.8963 45.6954H41.7691C41.0141 45.6954 40.4019 46.3077 40.4019 47.0626C40.4019 47.8176 41.0141 48.4298 41.7691 48.4298H50.2041C50.2005 48.5207 50.1971 48.6115 50.1971 48.7032C50.1971 52.4726 53.2637 55.5392 57.0331 55.5392C60.8024 55.5392 63.869 52.4726 63.869 48.7032C63.869 48.6115 63.8657 48.5207 63.862 48.4298H69.1328C69.8878 48.4298 70.5 47.8176 70.5 47.0626V41.5939C70.5 35.1105 65.2255 29.8361 58.7422 29.8361ZM14.2006 44.6017C16.4622 44.6017 18.3021 46.4416 18.3021 48.7032C18.3021 50.9648 16.4622 52.8048 14.2006 52.8048C11.939 52.8048 10.099 50.9648 10.099 48.7032C10.099 46.4416 11.9391 44.6017 14.2006 44.6017ZM57.0332 52.8048C54.7716 52.8048 52.9316 50.9648 52.9316 48.7032C52.9316 46.4416 54.7716 44.6017 57.0332 44.6017C59.2948 44.6017 61.1348 46.4416 61.1348 48.7032C61.1348 50.9648 59.2948 52.8048 57.0332 52.8048Z" fill="white"/>
<path d="M14.2006 50.0704C14.5602 50.0704 14.9129 49.9241 15.1672 49.6697C15.4215 49.4156 15.5678 49.0628 15.5678 48.7032C15.5678 48.3437 15.4215 47.9909 15.1672 47.7366C14.9129 47.4823 14.5602 47.3361 14.2006 47.3361C13.841 47.3361 13.4883 47.4822 13.234 47.7366C12.9797 47.9909 12.8334 48.3437 12.8334 48.7032C12.8334 49.0628 12.9797 49.4156 13.234 49.6697C13.4883 49.9241 13.841 50.0704 14.2006 50.0704Z" fill="white"/>
<path d="M57.0332 47.3361C56.6736 47.3361 56.3209 47.4822 56.0666 47.7366C55.8123 47.9909 55.666 48.3437 55.666 48.7032C55.666 49.0628 55.8122 49.4156 56.0666 49.6697C56.3209 49.924 56.6736 50.0704 57.0332 50.0704C57.3928 50.0704 57.7455 49.9241 57.9997 49.6697C58.254 49.4156 58.4004 49.0628 58.4004 48.7032C58.4004 48.3437 58.2541 47.9909 57.9997 47.7366C57.7455 47.4822 57.3928 47.3361 57.0332 47.3361Z" fill="white"/>
<path d="M33.3809 32.5704L47.8233 32.5706C48.3305 32.5706 48.796 32.2898 49.0327 31.841C49.2692 31.3925 49.238 30.8496 48.9515 30.4311L45.6492 25.6072C43.7109 22.7762 40.5055 21.0861 37.0749 21.0861H33.3809C32.6258 21.0861 32.0137 21.6981 32.0137 22.4532V31.2032C32.0137 31.9583 32.6258 32.5704 33.3809 32.5704ZM34.748 23.8204H37.0749C39.6028 23.8204 41.9647 25.0658 43.3928 27.1517L45.2304 29.8362L34.748 29.8361V23.8204Z" fill="white"/>
<path d="M26.5263 21.0861C23.0956 21.0861 19.8901 22.7762 17.952 25.6072L14.6498 30.4308C14.3633 30.8493 14.332 31.3922 14.5686 31.8408C14.8052 32.2895 15.2708 32.5703 15.7781 32.5703H27.9121C28.6672 32.5703 29.2793 31.9582 29.2793 31.2031V22.4531C29.2793 21.698 28.6672 21.0859 27.9121 21.0859H26.5263V21.0861ZM26.5449 29.8361H18.3708L20.2083 27.152C21.6366 25.0658 23.9984 23.8204 26.5263 23.8204H26.5449V29.8361Z" fill="white"/>
<path d="M36.3658 36.7062C36.3658 35.9512 35.7537 35.339 34.9987 35.339H33.3809C32.6258 35.339 32.0137 35.9512 32.0137 36.7062C32.0137 37.4611 32.6258 38.0734 33.3809 38.0734H34.9987C35.7537 38.0734 36.3658 37.4611 36.3658 36.7062Z" fill="white"/>
<path d="M35.6176 45.6954C35.2566 45.6954 34.9053 45.8416 34.6496 46.096C34.3953 46.3503 34.2504 46.7031 34.2504 47.0626C34.2504 47.4222 34.3953 47.7749 34.6496 48.0291C34.9053 48.2834 35.258 48.4298 35.6176 48.4298C35.9758 48.4298 36.3285 48.2835 36.5842 48.0291C36.8385 47.7749 36.9834 47.4222 36.9834 47.0626C36.9834 46.7031 36.8385 46.3503 36.5842 46.096C36.3285 45.8416 35.9772 45.6954 35.6176 45.6954Z" fill="white"/>
</g>
<defs>
<clipPath id="clip0_735_1623">
<rect width="70" height="70" fill="white" transform="translate(0.5 0.578247)"/>
</clipPath>
</defs>
</svg>
