<svg width="57" height="57" viewBox="0 0 57 57" fill="none" xmlns="http://www.w3.org/2000/svg">
<g clip-path="url(#clip0_735_1676)">
<path d="M55.678 15.4041C54.1975 15.4041 52.9931 14.1998 52.9931 12.7192C52.9931 12.2652 52.6252 11.8972 52.1712 11.8972C51.7171 11.8972 51.3492 12.2652 51.3492 12.7192C51.3492 14.1997 50.1449 15.4041 48.6643 15.4041C48.2103 15.4041 47.8423 15.7721 47.8423 16.2261C47.8423 16.6801 48.2103 17.048 48.6643 17.048C50.1448 17.048 51.3492 18.2525 51.3492 19.733C51.3492 20.187 51.7171 20.5549 52.1712 20.5549C52.6252 20.5549 52.9931 20.187 52.9931 19.733C52.9931 18.2525 54.1974 17.048 55.678 17.048C56.1321 17.048 56.5 16.6801 56.5 16.2261C56.5 15.7721 56.1321 15.4041 55.678 15.4041ZM52.1713 17.1978C51.9009 16.8249 51.5723 16.4965 51.1996 16.2261C51.5724 15.9557 51.901 15.6272 52.1713 15.2544C52.4416 15.6273 52.7702 15.9557 53.143 16.2261C52.7701 16.4965 52.4416 16.825 52.1713 17.1978Z" fill="white"/>
<path d="M8.33561 15.4041C6.85522 15.4041 5.65067 14.1998 5.65067 12.7192C5.65067 12.2652 5.28263 11.8972 4.82872 11.8972C4.37482 11.8972 4.00677 12.2652 4.00677 12.7192C4.00677 14.1997 2.80222 15.4041 1.32183 15.4041C0.867925 15.4041 0.499878 15.7721 0.499878 16.2261C0.499878 16.6801 0.867925 17.048 1.32183 17.048C2.80222 17.048 4.00677 18.2525 4.00677 19.733C4.00677 20.187 4.37482 20.5549 4.82872 20.5549C5.28263 20.5549 5.65067 20.187 5.65067 19.733C5.65067 18.2525 6.85522 17.048 8.33561 17.048C8.78952 17.048 9.15757 16.6801 9.15757 16.2261C9.15757 15.7721 8.78952 15.4041 8.33561 15.4041ZM4.82872 17.1978C4.55835 16.8249 4.22989 16.4965 3.85703 16.2261C4.23 15.9557 4.55846 15.6272 4.82872 15.2544C5.0991 15.6273 5.42755 15.9557 5.80041 16.2261C5.42766 16.4965 5.0991 16.825 4.82872 17.1978Z" fill="white"/>
<path d="M32.8835 4.88356C30.9196 4.88356 29.3218 3.28592 29.3218 1.32187C29.322 0.867968 28.954 0.500031 28.5 0.500031C28.0461 0.500031 27.678 0.867968 27.678 1.32198C27.678 3.28592 26.0802 4.88367 24.1164 4.88367C23.6624 4.88367 23.2944 5.25161 23.2944 5.70563C23.2944 6.15964 23.6624 6.52758 24.1164 6.52758C26.0802 6.52758 27.678 8.12533 27.678 10.0893C27.678 10.5433 28.0461 10.9112 28.5 10.9112C28.954 10.9112 29.322 10.5433 29.322 10.0893C29.322 8.12533 30.9197 6.52758 32.8836 6.52758C33.3377 6.52758 33.7056 6.15964 33.7056 5.70563C33.7056 5.25161 33.3375 4.88356 32.8835 4.88356ZM28.5 7.28423C28.0937 6.65161 27.5539 6.11184 26.9212 5.70552C27.5539 5.29919 28.0937 4.75942 28.5 4.1268C28.9063 4.75942 29.4461 5.29919 30.0787 5.70552C29.4461 6.11184 28.9063 6.65161 28.5 7.28423Z" fill="white"/>
<path d="M45.6124 28.2265L42.4151 19.1676C42.1759 18.4897 41.5322 18.0343 40.8133 18.0343H15.9675C15.2486 18.0343 14.6049 18.4897 14.3657 19.1675L11.1685 28.2265C10.9827 28.7527 11.3863 29.322 11.9435 29.322H44.8374C45.104 29.322 45.3542 29.1925 45.5082 28.9748C45.6623 28.7571 45.7012 28.4781 45.6124 28.2265ZM13.1052 27.6781L15.9158 19.7146C15.9232 19.6935 15.945 19.6781 15.9674 19.6781H40.8133C40.8358 19.6781 40.8575 19.6935 40.8651 19.7147L43.6757 27.6781H13.1052Z" fill="white"/>
<path d="M44.1712 39.0754C41.2522 39.0754 38.9658 40.5918 38.9658 42.5275C38.9658 44.4632 41.2522 45.9796 44.1712 45.9796C47.0902 45.9796 49.3767 44.4632 49.3767 42.5275C49.3767 40.5918 47.0902 39.0754 44.1712 39.0754ZM44.1712 44.3357C42.1327 44.3357 40.6096 43.381 40.6096 42.5275C40.6096 41.6739 42.1326 40.7193 44.1712 40.7193C46.2098 40.7193 47.7329 41.6739 47.7329 42.5275C47.7329 43.381 46.2098 44.3357 44.1712 44.3357Z" fill="white"/>
<path d="M12.6096 39.0754C9.69057 39.0754 7.40408 40.5918 7.40408 42.5275C7.40408 44.4632 9.69057 45.9796 12.6096 45.9796C15.5286 45.9796 17.8151 44.4632 17.8151 42.5275C17.8151 40.5918 15.5286 39.0754 12.6096 39.0754ZM12.6096 44.3357C10.5711 44.3357 9.04788 43.381 9.04788 42.5275C9.04788 41.6739 10.571 40.7193 12.6096 40.7193C14.6481 40.7193 16.1713 41.6739 16.1713 42.5275C16.1713 43.381 14.6481 44.3357 12.6096 44.3357Z" fill="white"/>
<path d="M54.6918 26.8014H50.3083C49.9312 26.8014 49.6024 27.0581 49.5109 27.424L48.9336 29.7334L44.8953 18.2922C44.2857 16.5648 42.6453 15.4041 40.8133 15.4041H15.9675C14.1356 15.4041 12.4952 16.5648 11.8855 18.2923L7.84739 29.7336L7.27 27.424C7.17845 27.058 6.84967 26.8014 6.47265 26.8014H2.08901C1.63511 26.8014 1.26706 27.1694 1.26706 27.6234V31.1303C1.26706 31.5843 1.63511 31.9522 2.08901 31.9522H6.62884L3.82676 35.8751C3.29936 36.6135 3.02056 37.4837 3.02056 38.3911V48.6645C3.02056 50.088 3.71148 51.3531 4.77537 52.1424C4.77504 52.1521 4.77395 52.1616 4.77395 52.1713V54.8014C4.77395 55.7381 5.53596 56.5 6.47254 56.5H11.7328C12.6695 56.5 13.4314 55.738 13.4314 54.8014V52.9933H43.3492V54.8014C43.3492 55.7381 44.1112 56.5 45.0478 56.5H50.3081C51.2448 56.5 52.0067 55.738 52.0067 54.8014V52.1713C52.0067 52.1616 52.0056 52.1521 52.0052 52.1424C53.0691 51.3531 53.7601 50.088 53.7601 48.6645V38.3911C53.7601 37.4835 53.4811 36.6134 52.9537 35.8751L50.1517 31.9522H54.6916C55.1456 31.9522 55.5136 31.5843 55.5136 31.1303V27.6234C55.5137 27.1693 55.1458 26.8014 54.6918 26.8014ZM2.91097 30.3082V28.4452H5.83084L6.29656 30.3082H2.91097ZM11.7877 54.8014C11.7877 54.8316 11.7632 54.8562 11.7329 54.8562H6.47265C6.44246 54.8562 6.41786 54.8316 6.41786 54.8014V52.9933H7.3494H11.7877V54.8014ZM50.363 54.8014C50.363 54.8316 50.3384 54.8562 50.3082 54.8562H45.0479C45.0177 54.8562 44.9931 54.8316 44.9931 54.8014V52.9933H49.4314H50.363V54.8014ZM49.4315 51.3493H7.34929C6.15547 51.3493 5.14156 50.566 4.79353 49.4864H51.9872C51.6392 50.566 50.6254 51.3493 49.4315 51.3493ZM35.4589 42.4727V44.3357H21.3219V42.4727H35.4589ZM21.4511 40.8288C21.7992 39.7491 22.8129 38.9658 24.0069 38.9658H32.7741C33.9679 38.9658 34.9818 39.7491 35.3298 40.8288H21.4511ZM35.4589 45.9795V47.8424H21.3219V45.9795H35.4589ZM51.6164 36.8305C51.9436 37.2884 52.1165 37.8281 52.1165 38.391V47.8426H37.1028V41.6507C37.1028 39.2638 35.1608 37.322 32.7741 37.322H24.0069C21.62 37.322 19.6782 39.2639 19.6782 41.6507V47.8426H4.66436V38.391C4.66436 37.8281 4.83728 37.2884 5.16442 36.8305L8.649 31.9521H38.9109C39.3649 31.9521 39.7328 31.5842 39.7328 31.1302C39.7328 30.6761 39.3649 30.3082 38.9109 30.3082H9.38772L13.4356 18.8393C13.8138 17.7679 14.8312 17.0479 15.9675 17.0479H40.8134C41.9496 17.0479 42.967 17.7678 43.3454 18.8393L47.3931 30.3082H42.4178C41.9637 30.3082 41.5958 30.6761 41.5958 31.1302C41.5958 31.5842 41.9637 31.9521 42.4178 31.9521H48.1318L51.6164 36.8305ZM53.8699 30.3082H50.4842L50.9499 28.4452H53.8699V30.3082Z" fill="white"/>
<path d="M15.2397 36.4453H9.97942C9.52552 36.4453 9.15747 36.8132 9.15747 37.2672C9.15747 37.7212 9.52552 38.0892 9.97942 38.0892H15.2397C15.6936 38.0892 16.0617 37.7212 16.0617 37.2672C16.0617 36.8132 15.6936 36.4453 15.2397 36.4453Z" fill="white"/>
<path d="M46.8014 36.4453H41.5411C41.0871 36.4453 40.7191 36.8132 40.7191 37.2672C40.7191 37.7212 41.0871 38.0892 41.5411 38.0892H46.8014C47.2554 38.0892 47.6233 37.7212 47.6233 37.2672C47.6233 36.8132 47.2554 36.4453 46.8014 36.4453Z" fill="white"/>
</g>
<defs>
<clipPath id="clip0_735_1676">
<rect width="56" height="56" fill="white" transform="translate(0.5 0.500031)"/>
</clipPath>
</defs>
</svg>
