<svg width="59" height="59" viewBox="0 0 59 59" fill="none" xmlns="http://www.w3.org/2000/svg">
<path d="M32.2796 19.9101H34.3894H34.3894V20.0101C34.5778 20.01 34.7587 20.0832 34.8941 20.2142C35.0294 20.3452 35.1084 20.5237 35.1144 20.7119L32.2796 19.9101ZM32.2796 19.9101V17.7771C32.2796 17.5583 32.1927 17.3484 32.038 17.1937C31.8833 17.039 31.6734 16.9521 31.4546 16.9521H27.5454C27.3266 16.9521 27.1168 17.039 26.9621 17.1937C26.8073 17.3484 26.7204 17.5583 26.7204 17.7771V19.9101H32.2796ZM27.5454 21.5369H25.4356V23.8251H27.5454C27.7642 23.8251 27.9741 23.912 28.1288 24.0667C28.2835 24.2214 28.3704 24.4313 28.3704 24.6501V26.7599H30.6296V24.652C30.6255 24.5416 30.6436 24.4315 30.6828 24.3282C30.7222 24.2243 30.7823 24.1294 30.8594 24.0493C30.9364 23.9691 31.0289 23.9054 31.1312 23.8619C31.2335 23.8184 31.3435 23.796 31.4547 23.7961M27.5454 21.5369L31.4546 23.8961M27.5454 21.5369C27.7642 21.5369 27.9741 21.45 28.1288 21.2953C28.2835 21.1405 28.3704 20.9307 28.3704 20.7119V18.6021M27.5454 21.5369L28.2704 18.6021H28.3704M31.4547 23.7961L31.4546 23.8961M31.4547 23.7961H31.4546V23.8961M31.4547 23.7961H33.5644M31.4546 23.8961H33.5644V23.7961M33.5644 23.7961H33.6644V21.5369H33.5644M33.5644 23.7961V21.5369M33.5644 21.5369V21.4369H31.4546C31.2623 21.4369 31.0779 21.3605 30.942 21.2245C30.806 21.0886 30.7296 20.9042 30.7296 20.7119V18.6021H30.6296M33.5644 21.5369H31.4546C31.2358 21.5369 31.026 21.45 30.8713 21.2953C30.7166 21.1405 30.6296 20.9307 30.6296 20.7119V18.6021M30.6296 18.6021V18.5021H28.3704V18.6021M30.6296 18.6021H28.3704M34.3894 25.4461V25.3461H24.6106V25.4461H24.6107H26.7204V27.5501C26.7204 27.7689 26.8073 27.9787 26.9621 28.1335C27.1168 28.2882 27.3266 28.3751 27.5454 28.3751H31.4546C31.6734 28.3751 31.8833 28.2882 32.038 28.1335C32.1927 27.9787 32.2796 27.7689 32.2796 27.5501V25.4461H34.3894H34.3894Z" fill="white" stroke="white" stroke-width="0.2"/>
<path d="M3.54166 17.7331L3.6115 17.803L3.54166 17.7331C3.38694 17.8878 3.30002 18.0977 3.30002 18.3165V22.6665C3.30002 22.8853 3.38694 23.0951 3.54166 23.2499C3.69638 23.4046 3.90622 23.4915 4.12502 23.4915H5.47502V51.6665C5.47502 51.8853 5.56194 52.0951 5.71666 52.2499C5.87138 52.4046 6.08122 52.4915 6.30002 52.4915H52.7C52.9188 52.4915 53.1287 52.4046 53.2834 52.2499C53.4381 52.0951 53.525 51.8853 53.525 51.6665V23.4915H54.875C55.0938 23.4915 55.3037 23.4046 55.4584 23.2499C55.6131 23.0951 55.7 22.8853 55.7 22.6665V18.3165C55.7 18.0977 55.6131 17.8878 55.4584 17.7331C55.3037 17.5784 55.0938 17.4915 54.875 17.4915H47.725V8.07369C47.725 7.85488 47.6381 7.64504 47.4834 7.49032C47.3287 7.33561 47.1188 7.24869 46.9 7.24869H12.1C11.8812 7.24869 11.6714 7.33561 11.5167 7.49032C11.3619 7.64504 11.275 7.85488 11.275 8.07369V17.4915H4.12502C3.90622 17.4915 3.69638 17.5784 3.54166 17.7331ZM26.1025 32.3771L26.1026 32.3771C28.3006 33.1562 30.6995 33.1562 32.8974 32.3771L32.8975 32.3771C34.7886 31.7052 36.4444 30.4996 37.6646 28.9062C38.866 27.3374 39.5945 25.4588 39.7653 23.4915H51.875V50.8415H38.735V37.1665C38.735 36.9477 38.6481 36.7378 38.4934 36.5831C38.3387 36.4284 38.1288 36.3415 37.91 36.3415H21.119C20.9002 36.3415 20.6904 36.4284 20.5357 36.5831C20.3809 36.7378 20.294 36.9477 20.294 37.1665V50.8415H7.15402V23.4915H19.2347C19.4056 25.4588 20.134 27.3374 21.3355 28.9062C22.5557 30.4996 24.2115 31.7052 26.1025 32.3771ZM20.8992 21.583L20.8992 21.5829C21.0262 20.5815 21.331 19.6109 21.7992 18.7167L21.7995 18.7162C22.527 17.3074 23.6281 16.126 24.9822 15.3012C26.3363 14.4765 27.8913 14.0402 29.4768 14.0402C31.0623 14.0402 32.6173 14.4765 33.9714 15.3012C35.3256 16.126 36.4267 17.3074 37.1542 18.7162L37.1545 18.7167C37.796 19.9402 38.1285 21.302 38.1232 22.6835V22.6839C38.1232 24.9771 37.2123 27.1763 35.5908 28.7978C33.9692 30.4193 31.77 31.3303 29.4768 31.3303C27.1837 31.3303 24.9844 30.4193 23.3629 28.7978C21.7414 27.1763 20.8304 24.9771 20.8304 22.6839V22.6836C20.8294 22.3156 20.8524 21.948 20.8992 21.583ZM21.944 50.8415V37.9915H28.704V50.8415H21.944ZM30.325 50.8415V37.9915H37.085V50.8415H30.325ZM54.0492 19.1415L54.0276 21.8415H39.7187C39.6368 20.9199 39.4376 20.0125 39.126 19.1415H54.0492ZM12.925 8.89869H46.075V17.4915H38.3912C37.4927 15.9427 36.205 14.6552 34.6554 13.7568C33.089 12.8487 31.3106 12.3705 29.5 12.3705C27.6895 12.3705 25.911 12.8487 24.3446 13.7568C22.795 14.6552 21.5073 15.9427 20.6088 17.4915H12.925V8.89869ZM4.95002 19.1415H19.8277C19.5161 20.0125 19.3169 20.9199 19.2349 21.8415H4.95002V19.1415Z" fill="white" stroke="white" stroke-width="0.2"/>
<path d="M41.1 29.2915H44.0464C44.2652 29.2915 44.4751 29.2046 44.6298 29.0498C44.7845 28.8951 44.8714 28.6853 44.8714 28.4665C44.8714 28.2477 44.7845 28.0378 44.6298 27.8831C44.4751 27.7284 44.2652 27.6415 44.0464 27.6415H41.1C40.8812 27.6415 40.6714 27.7284 40.5167 27.8831C40.362 28.0378 40.275 28.2477 40.275 28.4665C40.275 28.6853 40.362 28.8951 40.5167 29.0498C40.6714 29.2046 40.8812 29.2915 41.1 29.2915Z" fill="white" stroke="white" stroke-width="0.2"/>
<path d="M46.8536 29.2915H49.8C50.0188 29.2915 50.2287 29.2046 50.3834 29.0498C50.5381 28.8951 50.625 28.6853 50.625 28.4665C50.625 28.2477 50.5381 28.0378 50.3834 27.8831C50.2287 27.7284 50.0188 27.6415 49.8 27.6415H46.8536C46.6348 27.6415 46.425 27.7284 46.2703 27.8831C46.1156 28.0378 46.0286 28.2477 46.0286 28.4665C46.0286 28.6853 46.1156 28.8951 46.2703 29.0498C46.425 29.2046 46.6348 29.2915 46.8536 29.2915Z" fill="white" stroke="white" stroke-width="0.2"/>
<path d="M41.1 33.6415H44.0464C44.2652 33.6415 44.4751 33.5546 44.6298 33.3999C44.7845 33.2451 44.8714 33.0353 44.8714 32.8165C44.8714 32.5977 44.7845 32.3878 44.6298 32.2331C44.4751 32.0784 44.2652 31.9915 44.0464 31.9915H41.1C40.8812 31.9915 40.6714 32.0784 40.5167 32.2331C40.362 32.3878 40.275 32.5977 40.275 32.8165C40.275 33.0353 40.362 33.2451 40.5167 33.3999C40.6714 33.5546 40.8812 33.6415 41.1 33.6415Z" fill="white" stroke="white" stroke-width="0.2"/>
<path d="M46.8536 33.6415H49.8C50.0188 33.6415 50.2287 33.5546 50.3834 33.3999C50.5381 33.2451 50.625 33.0353 50.625 32.8165C50.625 32.5977 50.5381 32.3878 50.3834 32.2331C50.2287 32.0784 50.0188 31.9915 49.8 31.9915H46.8536C46.6348 31.9915 46.425 32.0784 46.2703 32.2331C46.1156 32.3878 46.0286 32.5977 46.0286 32.8165C46.0286 33.0353 46.1156 33.2451 46.2703 33.3999C46.425 33.5546 46.6348 33.6415 46.8536 33.6415Z" fill="white" stroke="white" stroke-width="0.2"/>
<path d="M41.1 37.9915H44.0464C44.2652 37.9915 44.4751 37.9045 44.6298 37.7498C44.7845 37.5951 44.8714 37.3853 44.8714 37.1665C44.8714 36.9477 44.7845 36.7378 44.6298 36.5831C44.4751 36.4284 44.2652 36.3415 44.0464 36.3415H41.1C40.8812 36.3415 40.6714 36.4284 40.5167 36.5831C40.362 36.7378 40.275 36.9477 40.275 37.1665C40.275 37.3853 40.362 37.5951 40.5167 37.7498C40.6714 37.9045 40.8812 37.9915 41.1 37.9915Z" fill="white" stroke="white" stroke-width="0.2"/>
<path d="M46.8536 37.9915H49.8C50.0188 37.9915 50.2287 37.9045 50.3834 37.7498C50.5381 37.5951 50.625 37.3853 50.625 37.1665C50.625 36.9477 50.5381 36.7378 50.3834 36.5831C50.2287 36.4284 50.0188 36.3415 49.8 36.3415H46.8536C46.6348 36.3415 46.425 36.4284 46.2703 36.5831C46.1156 36.7378 46.0286 36.9477 46.0286 37.1665C46.0286 37.3853 46.1156 37.5951 46.2703 37.7498C46.425 37.9045 46.6348 37.9915 46.8536 37.9915Z" fill="white" stroke="white" stroke-width="0.2"/>
<path d="M41.1 42.3415H44.0464C44.2652 42.3415 44.4751 42.2546 44.6298 42.0999C44.7845 41.9451 44.8714 41.7353 44.8714 41.5165C44.8714 41.2977 44.7845 41.0878 44.6298 40.9331C44.4751 40.7784 44.2652 40.6915 44.0464 40.6915H41.1C40.8812 40.6915 40.6714 40.7784 40.5167 40.9331C40.362 41.0878 40.275 41.2977 40.275 41.5165C40.275 41.7353 40.362 41.9451 40.5167 42.0999C40.6714 42.2546 40.8812 42.3415 41.1 42.3415Z" fill="white" stroke="white" stroke-width="0.2"/>
<path d="M46.8536 42.3415H49.8C50.0188 42.3415 50.2287 42.2546 50.3834 42.0999C50.5381 41.9451 50.625 41.7353 50.625 41.5165C50.625 41.2977 50.5381 41.0878 50.3834 40.9331C50.2287 40.7784 50.0188 40.6915 49.8 40.6915H46.8536C46.6348 40.6915 46.425 40.7784 46.2703 40.9331C46.1156 41.0878 46.0286 41.2977 46.0286 41.5165C46.0286 41.7353 46.1156 41.9451 46.2703 42.0999C46.425 42.2546 46.6348 42.3415 46.8536 42.3415Z" fill="white" stroke="white" stroke-width="0.2"/>
<path d="M41.1 46.6915H44.0464C44.2652 46.6915 44.4751 46.6046 44.6298 46.4498C44.7845 46.2951 44.8714 46.0853 44.8714 45.8665C44.8714 45.6477 44.7845 45.4378 44.6298 45.2831C44.4751 45.1284 44.2652 45.0415 44.0464 45.0415H41.1C40.8812 45.0415 40.6714 45.1284 40.5167 45.2831C40.362 45.4378 40.275 45.6477 40.275 45.8665C40.275 46.0853 40.362 46.2951 40.5167 46.4498C40.6714 46.6046 40.8812 46.6915 41.1 46.6915Z" fill="white" stroke="white" stroke-width="0.2"/>
<path d="M46.8536 46.6915H49.8C50.0188 46.6915 50.2287 46.6046 50.3834 46.4498C50.5381 46.2951 50.625 46.0853 50.625 45.8665C50.625 45.6477 50.5381 45.4378 50.3834 45.2831C50.2287 45.1284 50.0188 45.0415 49.8 45.0415H46.8536C46.6348 45.0415 46.425 45.1284 46.2703 45.2831C46.1156 45.4378 46.0286 45.6477 46.0286 45.8665C46.0286 46.0853 46.1156 46.2951 46.2703 46.4498C46.425 46.6046 46.6348 46.6915 46.8536 46.6915Z" fill="white" stroke="white" stroke-width="0.2"/>
<path d="M17.9 27.6415H14.9536C14.7348 27.6415 14.525 27.7284 14.3703 27.8831C14.2156 28.0378 14.1286 28.2477 14.1286 28.4665C14.1286 28.6853 14.2156 28.8951 14.3703 29.0498C14.525 29.2046 14.7348 29.2915 14.9536 29.2915H17.9C18.1188 29.2915 18.3287 29.2046 18.4834 29.0498C18.6381 28.8951 18.725 28.6853 18.725 28.4665C18.725 28.2477 18.6381 28.0378 18.4834 27.8831C18.3287 27.7284 18.1188 27.6415 17.9 27.6415Z" fill="white" stroke="white" stroke-width="0.2"/>
<path d="M12.1464 27.6415H9.20004C8.98123 27.6415 8.77139 27.7284 8.61667 27.8831C8.46196 28.0378 8.37504 28.2477 8.37504 28.4665C8.37504 28.6853 8.46196 28.8951 8.61667 29.0498C8.77139 29.2046 8.98123 29.2915 9.20004 29.2915H12.1464C12.3652 29.2915 12.5751 29.2046 12.7298 29.0498C12.8845 28.8951 12.9714 28.6853 12.9714 28.4665C12.9714 28.2477 12.8845 28.0378 12.7298 27.8831C12.5751 27.7284 12.3652 27.6415 12.1464 27.6415Z" fill="white" stroke="white" stroke-width="0.2"/>
<path d="M17.9 31.9915H14.9536C14.7348 31.9915 14.525 32.0784 14.3703 32.2331C14.2156 32.3878 14.1286 32.5977 14.1286 32.8165C14.1286 33.0353 14.2156 33.2451 14.3703 33.3999C14.525 33.5546 14.7348 33.6415 14.9536 33.6415H17.9C18.1188 33.6415 18.3287 33.5546 18.4834 33.3999C18.6381 33.2451 18.725 33.0353 18.725 32.8165C18.725 32.5977 18.6381 32.3878 18.4834 32.2331C18.3287 32.0784 18.1188 31.9915 17.9 31.9915Z" fill="white" stroke="white" stroke-width="0.2"/>
<path d="M12.1464 31.9915H9.20004C8.98123 31.9915 8.77139 32.0784 8.61667 32.2331C8.46196 32.3878 8.37504 32.5977 8.37504 32.8165C8.37504 33.0353 8.46196 33.2451 8.61667 33.3999C8.77139 33.5546 8.98123 33.6415 9.20004 33.6415H12.1464C12.3652 33.6415 12.5751 33.5546 12.7298 33.3999C12.8845 33.2451 12.9714 33.0353 12.9714 32.8165C12.9714 32.5977 12.8845 32.3878 12.7298 32.2331C12.5751 32.0784 12.3652 31.9915 12.1464 31.9915Z" fill="white" stroke="white" stroke-width="0.2"/>
<path d="M17.9 36.3415H14.9536C14.7348 36.3415 14.525 36.4284 14.3703 36.5831C14.2156 36.7378 14.1286 36.9477 14.1286 37.1665C14.1286 37.3853 14.2156 37.5951 14.3703 37.7498C14.525 37.9045 14.7348 37.9915 14.9536 37.9915H17.9C18.1188 37.9915 18.3287 37.9045 18.4834 37.7498C18.6381 37.5951 18.725 37.3853 18.725 37.1665C18.725 36.9477 18.6381 36.7378 18.4834 36.5831C18.3287 36.4284 18.1188 36.3415 17.9 36.3415Z" fill="white" stroke="white" stroke-width="0.2"/>
<path d="M12.1464 36.3415H9.20004C8.98123 36.3415 8.77139 36.4284 8.61667 36.5831C8.46196 36.7378 8.37504 36.9477 8.37504 37.1665C8.37504 37.3853 8.46196 37.5951 8.61667 37.7498C8.77139 37.9045 8.98123 37.9915 9.20004 37.9915H12.1464C12.3652 37.9915 12.5751 37.9045 12.7298 37.7498C12.8845 37.5951 12.9714 37.3853 12.9714 37.1665C12.9714 36.9477 12.8845 36.7378 12.7298 36.5831C12.5751 36.4284 12.3652 36.3415 12.1464 36.3415Z" fill="white" stroke="white" stroke-width="0.2"/>
<path d="M17.9 40.6915H14.9536C14.7348 40.6915 14.525 40.7784 14.3703 40.9331C14.2156 41.0878 14.1286 41.2977 14.1286 41.5165C14.1286 41.7353 14.2156 41.9451 14.3703 42.0999C14.525 42.2546 14.7348 42.3415 14.9536 42.3415H17.9C18.1188 42.3415 18.3287 42.2546 18.4834 42.0999C18.6381 41.9451 18.725 41.7353 18.725 41.5165C18.725 41.2977 18.6381 41.0878 18.4834 40.9331C18.3287 40.7784 18.1188 40.6915 17.9 40.6915Z" fill="white" stroke="white" stroke-width="0.2"/>
<path d="M12.1464 40.6915H9.20004C8.98123 40.6915 8.77139 40.7784 8.61667 40.9331C8.46196 41.0878 8.37504 41.2977 8.37504 41.5165C8.37504 41.7353 8.46196 41.9451 8.61667 42.0999C8.77139 42.2546 8.98123 42.3415 9.20004 42.3415H12.1464C12.3652 42.3415 12.5751 42.2546 12.7298 42.0999C12.8845 41.9451 12.9714 41.7353 12.9714 41.5165C12.9714 41.2977 12.8845 41.0878 12.7298 40.9331C12.5751 40.7784 12.3652 40.6915 12.1464 40.6915Z" fill="white" stroke="white" stroke-width="0.2"/>
<path d="M17.9 45.0415H14.9536C14.7348 45.0415 14.525 45.1284 14.3703 45.2831C14.2156 45.4378 14.1286 45.6477 14.1286 45.8665C14.1286 46.0853 14.2156 46.2951 14.3703 46.4498C14.525 46.6046 14.7348 46.6915 14.9536 46.6915H17.9C18.1188 46.6915 18.3287 46.6046 18.4834 46.4498C18.6381 46.2951 18.725 46.0853 18.725 45.8665C18.725 45.6477 18.6381 45.4378 18.4834 45.2831C18.3287 45.1284 18.1188 45.0415 17.9 45.0415Z" fill="white" stroke="white" stroke-width="0.2"/>
<path d="M12.1464 45.0415H9.20004C8.98123 45.0415 8.77139 45.1284 8.61667 45.2831C8.46196 45.4378 8.37504 45.6477 8.37504 45.8665C8.37504 46.0853 8.46196 46.2951 8.61667 46.4498C8.77139 46.6046 8.98123 46.6915 9.20004 46.6915H12.1464C12.3652 46.6915 12.5751 46.6046 12.7298 46.4498C12.8845 46.2951 12.9714 46.0853 12.9714 45.8665C12.9714 45.6477 12.8845 45.4378 12.7298 45.2831C12.5751 45.1284 12.3652 45.0415 12.1464 45.0415Z" fill="white" stroke="white" stroke-width="0.2"/>
</svg>
