<svg width="59" height="59" viewBox="0 0 59 59" fill="none" xmlns="http://www.w3.org/2000/svg">
<mask id="path-1-outside-1_783_1764" maskUnits="userSpaceOnUse" x="2" y="0.911957" width="56" height="57" fill="black">
<rect fill="white" x="2" y="0.911957" width="56" height="57"/>
<path d="M55.1772 36.0139C54.9475 34.0995 54.2015 32.5992 52.5206 31.5543C51.3029 30.7956 50.3168 30.6775 45.6533 29.4961V29.2481H50.3083C51.437 29.2481 52.357 28.3208 52.3709 27.1755C52.9585 17.037 53.0471 15.8755 53.007 15.3963C53.007 14.9517 52.653 14.5915 52.216 14.5915C51.779 14.5915 51.425 14.9517 51.425 15.3963V16.1599C50.7615 27.6101 50.7891 27.1025 50.7891 27.1489C50.7891 27.4141 50.5689 27.6382 50.3083 27.6382H45.6533V27.4298C45.9084 27.2563 47.799 26.4082 49.1716 24.1452C50.692 21.6489 50.4802 19.5389 50.4829 17.4956C50.4829 16.6769 49.8553 16.0111 49.0539 15.9798C43.1878 15.7517 40.1776 12.3682 39.3946 11.3366C39.1542 11.0198 38.7907 10.8302 38.3974 10.8165C38.0056 10.8044 37.6272 10.9667 37.3656 11.2665C36.1345 12.6766 34.7421 13.1227 34.0217 13.2631C33.3689 13.3903 32.8951 13.9744 32.8951 14.6519C32.8979 19.711 32.8889 19.4323 32.9022 19.7882C32.9234 22.9302 35.0016 26.0881 37.6938 27.4141V27.6378H32.9718C32.7112 27.6378 32.4911 27.4137 32.4911 27.1486C32.4911 27.1017 32.5176 27.5893 31.8539 16.1359C31.8529 16.1212 31.8516 16.1062 31.8501 16.0917C31.8407 16.0081 30.9669 7.71615 35.5421 6.69307C35.7723 6.64167 35.9681 6.4882 36.0759 6.27485C36.095 6.23729 38.0464 2.52973 44.3413 3.7771C46.8468 4.26326 50.5959 7.29921 51.3 11.7673C51.3691 12.2062 51.7743 12.5042 52.2063 12.4347C52.6377 12.3644 52.9313 11.9514 52.8621 11.5125C52.5575 9.39602 51.5221 7.16185 49.9565 5.46641L49.9003 5.40524C48.3295 3.71239 45.9917 2.46405 44.6431 2.19693C42.5212 1.77667 39.4567 1.61805 36.9053 3.24941C35.8065 3.95171 35.1659 4.76208 34.8694 5.20627C32.5353 5.88067 31.0062 7.99851 30.4375 11.3563C30.031 13.7558 30.2473 15.9826 30.2759 16.2518C31.0169 27.8946 30.7628 27.4589 31.1917 28.2048C28.9439 27.837 26.6559 28.4908 24.9221 30.1586L24.2307 29.9833C24.2116 29.974 22.4709 29.1262 22.3068 29.0464V27.4127C26.2248 25.4348 26.8517 21.478 26.8895 21.4053C27.0269 20.7759 27.1021 20.1102 27.1021 19.442V19.4341C28.5305 19.1174 29.5924 17.9642 29.5924 16.5934C29.5924 16.0256 29.4096 15.4954 29.0946 15.0461C29.1076 12.9292 29.1664 11.684 28.7209 10.0145C28.6069 9.71905 28.2335 7.84923 26.5778 5.83946C26.5752 5.83624 26.5725 5.83291 26.57 5.8298C23.5099 2.12642 18.2322 0.712813 13.4983 3.0601C9.90631 4.8826 7.52091 8.64156 7.52091 12.8867C7.52102 13.5932 7.5207 14.9605 7.52123 15.0462C6.34525 16.7232 7.34932 18.9546 9.51428 19.4343C9.58652 23.084 11.5158 25.9638 14.3474 27.4318V29.028L12.3445 30.0036C10.1625 30.6252 8.4695 30.7877 7.17361 31.7654C5.60391 32.9849 5.05389 34.0898 4.8227 36.0219C2.9462 53.2932 2.98997 52.2445 3.00284 53.0135C2.97995 55.0647 4.38901 56.8542 6.72051 56.8542L13.6356 56.8541C14.0725 56.8541 14.4266 56.4939 14.4266 56.0492C14.4266 55.6046 14.0725 55.2443 13.6356 55.2443H10.6634L11.4477 40.1478C11.4708 39.704 11.1359 39.3251 10.6995 39.3016C10.2649 39.2769 9.89091 39.619 9.86791 40.0629L9.70296 43.2381L5.66804 42.8074L5.68122 42.6879C6.49555 36.1263 6.20287 35.1321 7.2912 33.8152L7.30027 33.8042C8.62549 32.2119 10.7266 32.1767 12.3535 31.6601L14.7852 34.8275C15.3666 35.5852 16.4709 35.653 17.1378 34.9695L17.517 34.5805V38.4756C17.517 38.9202 17.8711 39.2805 18.3081 39.2805C18.745 39.2805 19.0991 38.9202 19.0991 38.4756V34.5806L19.4782 34.9695C19.774 35.2726 20.1758 35.4418 20.593 35.4418C20.6239 35.4418 20.6551 35.4408 20.6861 35.4391C21.1361 35.4118 21.5533 35.189 21.8308 34.8276L22.9424 33.3798C22.4815 34.8906 22.6433 36.0255 22.6092 36.6671C21.0929 38.1127 21.8662 40.4841 24.0077 40.9678C24.3126 42.7837 25.3958 44.4121 27.1081 45.366V46.3449C24.3176 47.1096 22.123 47.1411 21.1299 49.549C21.0873 49.6525 21.0586 49.7386 21.0284 49.8377C20.9879 49.9682 20.95 50.1217 20.9292 50.2234C20.8074 50.8235 20.8026 51.2031 20.3379 55.2443H13.433C12.996 55.2443 12.6419 55.6046 12.6419 56.0492C12.6419 56.4939 12.996 56.8541 13.433 56.8541H21.0439H21.0536L21.0554 56.8542L21.0576 56.8541H38.9436L38.9458 56.8542L38.9476 56.8541H38.9571H47.666C48.1029 56.8541 48.457 56.4939 48.457 56.0492C48.457 55.6046 48.1029 55.2443 47.666 55.2443H39.6631C39.2336 52.0343 39.2744 50.6551 38.9163 49.6663C38.4402 48.3449 37.2815 47.4612 36.0263 47.1384L32.893 46.3447V45.3519C34.5407 44.4327 35.6677 42.8021 35.9682 40.9675C35.9791 40.9613 37.8099 40.621 38.1187 38.8635C38.2067 38.3737 38.1398 37.8564 37.8974 37.3781C39.4034 37.0664 40.8759 35.9337 41.6717 35.2318C45.7032 38.79 49.3238 38.3444 49.6194 32.1595C50.1994 32.3427 52.9402 32.7697 53.488 35.4661C53.5291 35.6683 53.5763 35.9552 53.6059 36.2005L54.3321 42.8052L50.3289 43.2325L50.1642 40.0626C50.1412 39.6186 49.7637 39.2757 49.3326 39.3013C48.8963 39.3248 48.5613 39.7036 48.5844 40.1475L49.3687 55.244H45.9867C45.5497 55.244 45.1957 55.6043 45.1957 56.0489C45.1957 56.4935 45.5497 56.8538 45.9867 56.8538L53.2798 56.8539C54.3453 56.8539 55.26 56.4913 55.9252 55.8052C56.6091 55.0999 57.0098 54.0557 56.9975 53.0108C57.0079 52.3328 57.0622 53.2878 55.1772 36.0139ZM9.57081 44.8426L9.05728 55.2443H6.72041C5.34467 55.2443 4.61503 54.3282 4.58466 52.9981C4.57517 52.4283 4.60523 52.6211 5.49211 44.4071L9.57081 44.8426ZM27.102 17.754V15.4333C28.31 15.9404 28.3102 17.2469 27.102 17.754ZM9.51407 17.7543C8.30529 17.2471 8.30518 15.9402 9.51407 15.4331V17.7543ZM10.1978 13.6687C9.81244 13.6799 9.44393 13.7505 9.10295 13.8706C9.11297 13.0282 9.0519 12.2651 9.26653 11.1223C9.35818 10.8727 9.70676 8.13427 12.1955 5.88378C12.5287 5.62128 13.0759 5.03564 14.4869 4.36285C17.5276 2.94988 21.2474 3.17236 24.4202 5.88389C26.566 7.82358 27.0353 10.0236 27.1929 10.4313C27.6344 12.088 27.4796 13.2584 27.5129 13.8707C27.172 13.7505 26.8036 13.68 26.4184 13.6688C26.2178 13.5535 26.0322 13.3937 25.8861 13.23C24.8076 11.9656 25.7224 10.9864 24.5655 10.004C23.7498 9.31134 22.9687 9.57599 21.5252 9.7681C14.8021 10.5057 13.453 8.81317 12.0506 10.004C11.6369 10.3552 11.3765 10.8632 11.3588 11.4933C11.2954 13.2023 10.2664 13.5901 10.1978 13.6687ZM11.0961 19.4422C11.0961 18.5464 11.0961 16.5363 11.0961 14.9976C11.6948 14.5585 12.1352 14.2026 12.5291 13.3521C12.7551 12.8661 12.9202 12.2532 12.9424 11.4931C12.9476 11.2847 13.1402 11.1255 13.35 11.1596C21.7029 12.2912 23.6481 10.4663 23.6736 11.4927C23.7238 13.2922 24.6959 14.2819 24.7115 14.3086C25.0019 14.6348 25.1881 14.7543 25.5196 14.9974C25.5197 15.8345 25.5194 18.6334 25.5199 18.7223C25.4676 18.9547 26.0819 23.5234 21.6155 25.9648C21.6043 25.9696 20.452 26.6432 18.7855 26.7625C18.3668 26.7904 17.9546 26.7721 17.9653 26.7723C14.0515 26.5865 11.0961 23.2837 11.0961 19.4422ZM16.0241 33.8263L13.8942 31.0519L14.9656 30.5301L17.1747 32.6465L16.0241 33.8263ZM18.3081 31.5213L15.9293 29.2424V28.0576C17.5066 28.5089 19.165 28.4901 20.7058 28.052V29.224L18.3081 31.5213ZM20.592 33.8263L19.4415 32.6465L21.6632 30.5179L22.7323 31.0386L20.592 33.8263ZM23.9226 39.2292C23.2008 38.8096 23.2625 38.0501 23.9226 37.6681V39.2292ZM36.4289 24.4624C33.926 21.6326 34.4792 19.0799 34.4769 14.8118C35.3838 14.6108 36.933 14.0617 38.3375 12.5688C39.4615 13.9489 42.814 17.316 48.9007 17.585C48.8973 19.7244 48.9066 19.3426 48.8936 19.7745L48.8933 19.7721C48.8223 20.0612 48.9678 22.7196 46.3082 25.0771C46.2973 25.0861 46.206 25.1619 46.2169 25.1529C43.7415 27.1877 40.2995 27.2761 37.7802 25.6092C37.6209 25.5042 36.6078 24.6366 36.4289 24.4624ZM33.5884 48.18L33.6222 48.1886C35.22 48.6325 35.7576 48.6334 36.446 49.0529C37.8872 49.9316 37.4806 51.0156 38.0623 55.2444H35.9568L35.8632 53.5072C35.8392 53.0632 35.4663 52.7225 35.0301 52.7477C34.5938 52.772 34.2596 53.1516 34.2837 53.5954L34.3726 55.2443H25.6502L25.7391 53.5954C25.7631 53.1515 25.4289 52.7719 24.9927 52.7477C24.554 52.7236 24.1834 53.0633 24.1596 53.5072L24.0659 55.2444H21.939C22.4631 50.6694 22.2413 49.8539 23.5552 49.0529C24.2118 48.6522 24.6385 48.6584 26.4126 48.18C27.3164 49.2204 28.621 49.8275 30.0006 49.8275C31.3801 49.8275 32.6847 49.2205 33.5884 48.18ZM28.6899 45.9634C29.0024 46.0328 29.3436 46.0812 29.6987 46.098C29.7179 46.099 29.7368 46.0997 29.7559 46.1002L29.8123 46.1021C30.3839 46.1176 30.9391 46.0522 31.311 45.9576C31.3501 46.2669 31.1375 47.1664 31.7989 47.6542C30.7116 48.4048 29.2913 48.4062 28.2019 47.6542C28.8614 47.1678 28.6522 46.2589 28.6899 45.9634ZM34.4628 40.1954C34.4596 40.2543 34.4557 40.3099 34.451 40.3634C34.3004 42.0085 33.289 43.3986 31.8909 44.065C31.8552 44.0695 29.4702 45.3683 27.174 43.4841C27.1486 43.4481 25.7894 42.4799 25.5421 40.5265C25.4749 40.0019 25.5179 39.5831 25.5046 37.3464C28.9778 38.0774 31.3987 36.658 32.4579 35.2505C33.1602 36.3028 33.9598 36.7549 34.471 36.9467C34.4695 40.3925 34.4758 39.9561 34.4628 40.1954ZM35.7845 35.8934C35.5187 35.5607 35.2053 35.4988 35.0799 35.4582C34.7314 35.3448 34.062 34.9889 33.4937 33.8793C33.0495 33.0122 31.8282 33.0447 31.4205 33.9174C30.9578 34.9074 28.8465 36.6295 25.2732 35.6351C24.9273 35.5392 24.5537 35.6195 24.2697 35.8833C24.2432 35.8869 24.2172 35.8917 24.191 35.896C24.1931 35.3674 24.1972 35.3471 24.1968 35.358C24.3997 30.4457 30.1677 27.9022 33.8278 31.195C33.8273 31.1992 33.837 31.1987 33.8366 31.2029C34.7717 32.0489 35.4108 33.1427 35.6814 34.5027C35.8143 35.2107 35.7787 35.7826 35.7845 35.8934ZM35.0587 30.1637C34.6606 29.7798 34.3431 29.5308 33.9 29.2483H37.6938V29.4963L35.0587 30.1637ZM36.0531 39.2304V37.6682C36.3349 37.8322 36.5739 38.1164 36.5739 38.4493C36.5739 38.8672 36.2624 39.0707 36.0531 39.2304ZM37.3665 35.8422C37.3505 35.7202 37.4528 34.5985 36.9576 33.145C37.7899 33.8705 38.758 34.3939 39.8018 34.6785C39.0471 35.23 38.1362 35.7565 37.3665 35.8422ZM37.354 31.2412L38.3804 30.9813C38.4269 30.9695 38.4722 30.9534 38.5159 30.9333C38.9774 30.7204 39.2756 30.1788 39.2756 29.5537L39.2757 28.0477C40.7069 28.4611 42.2188 28.5412 44.0712 28.0566V29.5537C44.0712 30.1789 44.3694 30.7206 44.8311 30.9333C44.8747 30.9535 44.9201 30.9695 44.9665 30.9813L45.9903 31.2407C43.6693 34.004 39.6799 34.0098 37.354 31.2412ZM46.7086 35.7573C45.7919 36.1464 44.347 35.2723 43.5319 34.6726C45.2114 34.1988 46.6396 33.162 47.666 31.6651L48.0518 31.7629C47.9859 34.0056 47.5155 35.4149 46.7086 35.7573ZM54.7993 54.6749C53.9606 55.5398 52.8221 55.1415 50.9529 55.2443L50.4125 44.8424L54.5081 44.4052L55.3993 52.5095C55.4659 53.3099 55.358 54.0986 54.7993 54.6749Z"/>
</mask>
<path d="M55.1772 36.0139C54.9475 34.0995 54.2015 32.5992 52.5206 31.5543C51.3029 30.7956 50.3168 30.6775 45.6533 29.4961V29.2481H50.3083C51.437 29.2481 52.357 28.3208 52.3709 27.1755C52.9585 17.037 53.0471 15.8755 53.007 15.3963C53.007 14.9517 52.653 14.5915 52.216 14.5915C51.779 14.5915 51.425 14.9517 51.425 15.3963V16.1599C50.7615 27.6101 50.7891 27.1025 50.7891 27.1489C50.7891 27.4141 50.5689 27.6382 50.3083 27.6382H45.6533V27.4298C45.9084 27.2563 47.799 26.4082 49.1716 24.1452C50.692 21.6489 50.4802 19.5389 50.4829 17.4956C50.4829 16.6769 49.8553 16.0111 49.0539 15.9798C43.1878 15.7517 40.1776 12.3682 39.3946 11.3366C39.1542 11.0198 38.7907 10.8302 38.3974 10.8165C38.0056 10.8044 37.6272 10.9667 37.3656 11.2665C36.1345 12.6766 34.7421 13.1227 34.0217 13.2631C33.3689 13.3903 32.8951 13.9744 32.8951 14.6519C32.8979 19.711 32.8889 19.4323 32.9022 19.7882C32.9234 22.9302 35.0016 26.0881 37.6938 27.4141V27.6378H32.9718C32.7112 27.6378 32.4911 27.4137 32.4911 27.1486C32.4911 27.1017 32.5176 27.5893 31.8539 16.1359C31.8529 16.1212 31.8516 16.1062 31.8501 16.0917C31.8407 16.0081 30.9669 7.71615 35.5421 6.69307C35.7723 6.64167 35.9681 6.4882 36.0759 6.27485C36.095 6.23729 38.0464 2.52973 44.3413 3.7771C46.8468 4.26326 50.5959 7.29921 51.3 11.7673C51.3691 12.2062 51.7743 12.5042 52.2063 12.4347C52.6377 12.3644 52.9313 11.9514 52.8621 11.5125C52.5575 9.39602 51.5221 7.16185 49.9565 5.46641L49.9003 5.40524C48.3295 3.71239 45.9917 2.46405 44.6431 2.19693C42.5212 1.77667 39.4567 1.61805 36.9053 3.24941C35.8065 3.95171 35.1659 4.76208 34.8694 5.20627C32.5353 5.88067 31.0062 7.99851 30.4375 11.3563C30.031 13.7558 30.2473 15.9826 30.2759 16.2518C31.0169 27.8946 30.7628 27.4589 31.1917 28.2048C28.9439 27.837 26.6559 28.4908 24.9221 30.1586L24.2307 29.9833C24.2116 29.974 22.4709 29.1262 22.3068 29.0464V27.4127C26.2248 25.4348 26.8517 21.478 26.8895 21.4053C27.0269 20.7759 27.1021 20.1102 27.1021 19.442V19.4341C28.5305 19.1174 29.5924 17.9642 29.5924 16.5934C29.5924 16.0256 29.4096 15.4954 29.0946 15.0461C29.1076 12.9292 29.1664 11.684 28.7209 10.0145C28.6069 9.71905 28.2335 7.84923 26.5778 5.83946C26.5752 5.83624 26.5725 5.83291 26.57 5.8298C23.5099 2.12642 18.2322 0.712813 13.4983 3.0601C9.90631 4.8826 7.52091 8.64156 7.52091 12.8867C7.52102 13.5932 7.5207 14.9605 7.52123 15.0462C6.34525 16.7232 7.34932 18.9546 9.51428 19.4343C9.58652 23.084 11.5158 25.9638 14.3474 27.4318V29.028L12.3445 30.0036C10.1625 30.6252 8.4695 30.7877 7.17361 31.7654C5.60391 32.9849 5.05389 34.0898 4.8227 36.0219C2.9462 53.2932 2.98997 52.2445 3.00284 53.0135C2.97995 55.0647 4.38901 56.8542 6.72051 56.8542L13.6356 56.8541C14.0725 56.8541 14.4266 56.4939 14.4266 56.0492C14.4266 55.6046 14.0725 55.2443 13.6356 55.2443H10.6634L11.4477 40.1478C11.4708 39.704 11.1359 39.3251 10.6995 39.3016C10.2649 39.2769 9.89091 39.619 9.86791 40.0629L9.70296 43.2381L5.66804 42.8074L5.68122 42.6879C6.49555 36.1263 6.20287 35.1321 7.2912 33.8152L7.30027 33.8042C8.62549 32.2119 10.7266 32.1767 12.3535 31.6601L14.7852 34.8275C15.3666 35.5852 16.4709 35.653 17.1378 34.9695L17.517 34.5805V38.4756C17.517 38.9202 17.8711 39.2805 18.3081 39.2805C18.745 39.2805 19.0991 38.9202 19.0991 38.4756V34.5806L19.4782 34.9695C19.774 35.2726 20.1758 35.4418 20.593 35.4418C20.6239 35.4418 20.6551 35.4408 20.6861 35.4391C21.1361 35.4118 21.5533 35.189 21.8308 34.8276L22.9424 33.3798C22.4815 34.8906 22.6433 36.0255 22.6092 36.6671C21.0929 38.1127 21.8662 40.4841 24.0077 40.9678C24.3126 42.7837 25.3958 44.4121 27.1081 45.366V46.3449C24.3176 47.1096 22.123 47.1411 21.1299 49.549C21.0873 49.6525 21.0586 49.7386 21.0284 49.8377C20.9879 49.9682 20.95 50.1217 20.9292 50.2234C20.8074 50.8235 20.8026 51.2031 20.3379 55.2443H13.433C12.996 55.2443 12.6419 55.6046 12.6419 56.0492C12.6419 56.4939 12.996 56.8541 13.433 56.8541H21.0439H21.0536L21.0554 56.8542L21.0576 56.8541H38.9436L38.9458 56.8542L38.9476 56.8541H38.9571H47.666C48.1029 56.8541 48.457 56.4939 48.457 56.0492C48.457 55.6046 48.1029 55.2443 47.666 55.2443H39.6631C39.2336 52.0343 39.2744 50.6551 38.9163 49.6663C38.4402 48.3449 37.2815 47.4612 36.0263 47.1384L32.893 46.3447V45.3519C34.5407 44.4327 35.6677 42.8021 35.9682 40.9675C35.9791 40.9613 37.8099 40.621 38.1187 38.8635C38.2067 38.3737 38.1398 37.8564 37.8974 37.3781C39.4034 37.0664 40.8759 35.9337 41.6717 35.2318C45.7032 38.79 49.3238 38.3444 49.6194 32.1595C50.1994 32.3427 52.9402 32.7697 53.488 35.4661C53.5291 35.6683 53.5763 35.9552 53.6059 36.2005L54.3321 42.8052L50.3289 43.2325L50.1642 40.0626C50.1412 39.6186 49.7637 39.2757 49.3326 39.3013C48.8963 39.3248 48.5613 39.7036 48.5844 40.1475L49.3687 55.244H45.9867C45.5497 55.244 45.1957 55.6043 45.1957 56.0489C45.1957 56.4935 45.5497 56.8538 45.9867 56.8538L53.2798 56.8539C54.3453 56.8539 55.26 56.4913 55.9252 55.8052C56.6091 55.0999 57.0098 54.0557 56.9975 53.0108C57.0079 52.3328 57.0622 53.2878 55.1772 36.0139ZM9.57081 44.8426L9.05728 55.2443H6.72041C5.34467 55.2443 4.61503 54.3282 4.58466 52.9981C4.57517 52.4283 4.60523 52.6211 5.49211 44.4071L9.57081 44.8426ZM27.102 17.754V15.4333C28.31 15.9404 28.3102 17.2469 27.102 17.754ZM9.51407 17.7543C8.30529 17.2471 8.30518 15.9402 9.51407 15.4331V17.7543ZM10.1978 13.6687C9.81244 13.6799 9.44393 13.7505 9.10295 13.8706C9.11297 13.0282 9.0519 12.2651 9.26653 11.1223C9.35818 10.8727 9.70676 8.13427 12.1955 5.88378C12.5287 5.62128 13.0759 5.03564 14.4869 4.36285C17.5276 2.94988 21.2474 3.17236 24.4202 5.88389C26.566 7.82358 27.0353 10.0236 27.1929 10.4313C27.6344 12.088 27.4796 13.2584 27.5129 13.8707C27.172 13.7505 26.8036 13.68 26.4184 13.6688C26.2178 13.5535 26.0322 13.3937 25.8861 13.23C24.8076 11.9656 25.7224 10.9864 24.5655 10.004C23.7498 9.31134 22.9687 9.57599 21.5252 9.7681C14.8021 10.5057 13.453 8.81317 12.0506 10.004C11.6369 10.3552 11.3765 10.8632 11.3588 11.4933C11.2954 13.2023 10.2664 13.5901 10.1978 13.6687ZM11.0961 19.4422C11.0961 18.5464 11.0961 16.5363 11.0961 14.9976C11.6948 14.5585 12.1352 14.2026 12.5291 13.3521C12.7551 12.8661 12.9202 12.2532 12.9424 11.4931C12.9476 11.2847 13.1402 11.1255 13.35 11.1596C21.7029 12.2912 23.6481 10.4663 23.6736 11.4927C23.7238 13.2922 24.6959 14.2819 24.7115 14.3086C25.0019 14.6348 25.1881 14.7543 25.5196 14.9974C25.5197 15.8345 25.5194 18.6334 25.5199 18.7223C25.4676 18.9547 26.0819 23.5234 21.6155 25.9648C21.6043 25.9696 20.452 26.6432 18.7855 26.7625C18.3668 26.7904 17.9546 26.7721 17.9653 26.7723C14.0515 26.5865 11.0961 23.2837 11.0961 19.4422ZM16.0241 33.8263L13.8942 31.0519L14.9656 30.5301L17.1747 32.6465L16.0241 33.8263ZM18.3081 31.5213L15.9293 29.2424V28.0576C17.5066 28.5089 19.165 28.4901 20.7058 28.052V29.224L18.3081 31.5213ZM20.592 33.8263L19.4415 32.6465L21.6632 30.5179L22.7323 31.0386L20.592 33.8263ZM23.9226 39.2292C23.2008 38.8096 23.2625 38.0501 23.9226 37.6681V39.2292ZM36.4289 24.4624C33.926 21.6326 34.4792 19.0799 34.4769 14.8118C35.3838 14.6108 36.933 14.0617 38.3375 12.5688C39.4615 13.9489 42.814 17.316 48.9007 17.585C48.8973 19.7244 48.9066 19.3426 48.8936 19.7745L48.8933 19.7721C48.8223 20.0612 48.9678 22.7196 46.3082 25.0771C46.2973 25.0861 46.206 25.1619 46.2169 25.1529C43.7415 27.1877 40.2995 27.2761 37.7802 25.6092C37.6209 25.5042 36.6078 24.6366 36.4289 24.4624ZM33.5884 48.18L33.6222 48.1886C35.22 48.6325 35.7576 48.6334 36.446 49.0529C37.8872 49.9316 37.4806 51.0156 38.0623 55.2444H35.9568L35.8632 53.5072C35.8392 53.0632 35.4663 52.7225 35.0301 52.7477C34.5938 52.772 34.2596 53.1516 34.2837 53.5954L34.3726 55.2443H25.6502L25.7391 53.5954C25.7631 53.1515 25.4289 52.7719 24.9927 52.7477C24.554 52.7236 24.1834 53.0633 24.1596 53.5072L24.0659 55.2444H21.939C22.4631 50.6694 22.2413 49.8539 23.5552 49.0529C24.2118 48.6522 24.6385 48.6584 26.4126 48.18C27.3164 49.2204 28.621 49.8275 30.0006 49.8275C31.3801 49.8275 32.6847 49.2205 33.5884 48.18ZM28.6899 45.9634C29.0024 46.0328 29.3436 46.0812 29.6987 46.098C29.7179 46.099 29.7368 46.0997 29.7559 46.1002L29.8123 46.1021C30.3839 46.1176 30.9391 46.0522 31.311 45.9576C31.3501 46.2669 31.1375 47.1664 31.7989 47.6542C30.7116 48.4048 29.2913 48.4062 28.2019 47.6542C28.8614 47.1678 28.6522 46.2589 28.6899 45.9634ZM34.4628 40.1954C34.4596 40.2543 34.4557 40.3099 34.451 40.3634C34.3004 42.0085 33.289 43.3986 31.8909 44.065C31.8552 44.0695 29.4702 45.3683 27.174 43.4841C27.1486 43.4481 25.7894 42.4799 25.5421 40.5265C25.4749 40.0019 25.5179 39.5831 25.5046 37.3464C28.9778 38.0774 31.3987 36.658 32.4579 35.2505C33.1602 36.3028 33.9598 36.7549 34.471 36.9467C34.4695 40.3925 34.4758 39.9561 34.4628 40.1954ZM35.7845 35.8934C35.5187 35.5607 35.2053 35.4988 35.0799 35.4582C34.7314 35.3448 34.062 34.9889 33.4937 33.8793C33.0495 33.0122 31.8282 33.0447 31.4205 33.9174C30.9578 34.9074 28.8465 36.6295 25.2732 35.6351C24.9273 35.5392 24.5537 35.6195 24.2697 35.8833C24.2432 35.8869 24.2172 35.8917 24.191 35.896C24.1931 35.3674 24.1972 35.3471 24.1968 35.358C24.3997 30.4457 30.1677 27.9022 33.8278 31.195C33.8273 31.1992 33.837 31.1987 33.8366 31.2029C34.7717 32.0489 35.4108 33.1427 35.6814 34.5027C35.8143 35.2107 35.7787 35.7826 35.7845 35.8934ZM35.0587 30.1637C34.6606 29.7798 34.3431 29.5308 33.9 29.2483H37.6938V29.4963L35.0587 30.1637ZM36.0531 39.2304V37.6682C36.3349 37.8322 36.5739 38.1164 36.5739 38.4493C36.5739 38.8672 36.2624 39.0707 36.0531 39.2304ZM37.3665 35.8422C37.3505 35.7202 37.4528 34.5985 36.9576 33.145C37.7899 33.8705 38.758 34.3939 39.8018 34.6785C39.0471 35.23 38.1362 35.7565 37.3665 35.8422ZM37.354 31.2412L38.3804 30.9813C38.4269 30.9695 38.4722 30.9534 38.5159 30.9333C38.9774 30.7204 39.2756 30.1788 39.2756 29.5537L39.2757 28.0477C40.7069 28.4611 42.2188 28.5412 44.0712 28.0566V29.5537C44.0712 30.1789 44.3694 30.7206 44.8311 30.9333C44.8747 30.9535 44.9201 30.9695 44.9665 30.9813L45.9903 31.2407C43.6693 34.004 39.6799 34.0098 37.354 31.2412ZM46.7086 35.7573C45.7919 36.1464 44.347 35.2723 43.5319 34.6726C45.2114 34.1988 46.6396 33.162 47.666 31.6651L48.0518 31.7629C47.9859 34.0056 47.5155 35.4149 46.7086 35.7573ZM54.7993 54.6749C53.9606 55.5398 52.8221 55.1415 50.9529 55.2443L50.4125 44.8424L54.5081 44.4052L55.3993 52.5095C55.4659 53.3099 55.358 54.0986 54.7993 54.6749Z" fill="white"/>
<path d="M55.1772 36.0139C54.9475 34.0995 54.2015 32.5992 52.5206 31.5543C51.3029 30.7956 50.3168 30.6775 45.6533 29.4961V29.2481H50.3083C51.437 29.2481 52.357 28.3208 52.3709 27.1755C52.9585 17.037 53.0471 15.8755 53.007 15.3963C53.007 14.9517 52.653 14.5915 52.216 14.5915C51.779 14.5915 51.425 14.9517 51.425 15.3963V16.1599C50.7615 27.6101 50.7891 27.1025 50.7891 27.1489C50.7891 27.4141 50.5689 27.6382 50.3083 27.6382H45.6533V27.4298C45.9084 27.2563 47.799 26.4082 49.1716 24.1452C50.692 21.6489 50.4802 19.5389 50.4829 17.4956C50.4829 16.6769 49.8553 16.0111 49.0539 15.9798C43.1878 15.7517 40.1776 12.3682 39.3946 11.3366C39.1542 11.0198 38.7907 10.8302 38.3974 10.8165C38.0056 10.8044 37.6272 10.9667 37.3656 11.2665C36.1345 12.6766 34.7421 13.1227 34.0217 13.2631C33.3689 13.3903 32.8951 13.9744 32.8951 14.6519C32.8979 19.711 32.8889 19.4323 32.9022 19.7882C32.9234 22.9302 35.0016 26.0881 37.6938 27.4141V27.6378H32.9718C32.7112 27.6378 32.4911 27.4137 32.4911 27.1486C32.4911 27.1017 32.5176 27.5893 31.8539 16.1359C31.8529 16.1212 31.8516 16.1062 31.8501 16.0917C31.8407 16.0081 30.9669 7.71615 35.5421 6.69307C35.7723 6.64167 35.9681 6.4882 36.0759 6.27485C36.095 6.23729 38.0464 2.52973 44.3413 3.7771C46.8468 4.26326 50.5959 7.29921 51.3 11.7673C51.3691 12.2062 51.7743 12.5042 52.2063 12.4347C52.6377 12.3644 52.9313 11.9514 52.8621 11.5125C52.5575 9.39602 51.5221 7.16185 49.9565 5.46641L49.9003 5.40524C48.3295 3.71239 45.9917 2.46405 44.6431 2.19693C42.5212 1.77667 39.4567 1.61805 36.9053 3.24941C35.8065 3.95171 35.1659 4.76208 34.8694 5.20627C32.5353 5.88067 31.0062 7.99851 30.4375 11.3563C30.031 13.7558 30.2473 15.9826 30.2759 16.2518C31.0169 27.8946 30.7628 27.4589 31.1917 28.2048C28.9439 27.837 26.6559 28.4908 24.9221 30.1586L24.2307 29.9833C24.2116 29.974 22.4709 29.1262 22.3068 29.0464V27.4127C26.2248 25.4348 26.8517 21.478 26.8895 21.4053C27.0269 20.7759 27.1021 20.1102 27.1021 19.442V19.4341C28.5305 19.1174 29.5924 17.9642 29.5924 16.5934C29.5924 16.0256 29.4096 15.4954 29.0946 15.0461C29.1076 12.9292 29.1664 11.684 28.7209 10.0145C28.6069 9.71905 28.2335 7.84923 26.5778 5.83946C26.5752 5.83624 26.5725 5.83291 26.57 5.8298C23.5099 2.12642 18.2322 0.712813 13.4983 3.0601C9.90631 4.8826 7.52091 8.64156 7.52091 12.8867C7.52102 13.5932 7.5207 14.9605 7.52123 15.0462C6.34525 16.7232 7.34932 18.9546 9.51428 19.4343C9.58652 23.084 11.5158 25.9638 14.3474 27.4318V29.028L12.3445 30.0036C10.1625 30.6252 8.4695 30.7877 7.17361 31.7654C5.60391 32.9849 5.05389 34.0898 4.8227 36.0219C2.9462 53.2932 2.98997 52.2445 3.00284 53.0135C2.97995 55.0647 4.38901 56.8542 6.72051 56.8542L13.6356 56.8541C14.0725 56.8541 14.4266 56.4939 14.4266 56.0492C14.4266 55.6046 14.0725 55.2443 13.6356 55.2443H10.6634L11.4477 40.1478C11.4708 39.704 11.1359 39.3251 10.6995 39.3016C10.2649 39.2769 9.89091 39.619 9.86791 40.0629L9.70296 43.2381L5.66804 42.8074L5.68122 42.6879C6.49555 36.1263 6.20287 35.1321 7.2912 33.8152L7.30027 33.8042C8.62549 32.2119 10.7266 32.1767 12.3535 31.6601L14.7852 34.8275C15.3666 35.5852 16.4709 35.653 17.1378 34.9695L17.517 34.5805V38.4756C17.517 38.9202 17.8711 39.2805 18.3081 39.2805C18.745 39.2805 19.0991 38.9202 19.0991 38.4756V34.5806L19.4782 34.9695C19.774 35.2726 20.1758 35.4418 20.593 35.4418C20.6239 35.4418 20.6551 35.4408 20.6861 35.4391C21.1361 35.4118 21.5533 35.189 21.8308 34.8276L22.9424 33.3798C22.4815 34.8906 22.6433 36.0255 22.6092 36.6671C21.0929 38.1127 21.8662 40.4841 24.0077 40.9678C24.3126 42.7837 25.3958 44.4121 27.1081 45.366V46.3449C24.3176 47.1096 22.123 47.1411 21.1299 49.549C21.0873 49.6525 21.0586 49.7386 21.0284 49.8377C20.9879 49.9682 20.95 50.1217 20.9292 50.2234C20.8074 50.8235 20.8026 51.2031 20.3379 55.2443H13.433C12.996 55.2443 12.6419 55.6046 12.6419 56.0492C12.6419 56.4939 12.996 56.8541 13.433 56.8541H21.0439H21.0536L21.0554 56.8542L21.0576 56.8541H38.9436L38.9458 56.8542L38.9476 56.8541H38.9571H47.666C48.1029 56.8541 48.457 56.4939 48.457 56.0492C48.457 55.6046 48.1029 55.2443 47.666 55.2443H39.6631C39.2336 52.0343 39.2744 50.6551 38.9163 49.6663C38.4402 48.3449 37.2815 47.4612 36.0263 47.1384L32.893 46.3447V45.3519C34.5407 44.4327 35.6677 42.8021 35.9682 40.9675C35.9791 40.9613 37.8099 40.621 38.1187 38.8635C38.2067 38.3737 38.1398 37.8564 37.8974 37.3781C39.4034 37.0664 40.8759 35.9337 41.6717 35.2318C45.7032 38.79 49.3238 38.3444 49.6194 32.1595C50.1994 32.3427 52.9402 32.7697 53.488 35.4661C53.5291 35.6683 53.5763 35.9552 53.6059 36.2005L54.3321 42.8052L50.3289 43.2325L50.1642 40.0626C50.1412 39.6186 49.7637 39.2757 49.3326 39.3013C48.8963 39.3248 48.5613 39.7036 48.5844 40.1475L49.3687 55.244H45.9867C45.5497 55.244 45.1957 55.6043 45.1957 56.0489C45.1957 56.4935 45.5497 56.8538 45.9867 56.8538L53.2798 56.8539C54.3453 56.8539 55.26 56.4913 55.9252 55.8052C56.6091 55.0999 57.0098 54.0557 56.9975 53.0108C57.0079 52.3328 57.0622 53.2878 55.1772 36.0139ZM9.57081 44.8426L9.05728 55.2443H6.72041C5.34467 55.2443 4.61503 54.3282 4.58466 52.9981C4.57517 52.4283 4.60523 52.6211 5.49211 44.4071L9.57081 44.8426ZM27.102 17.754V15.4333C28.31 15.9404 28.3102 17.2469 27.102 17.754ZM9.51407 17.7543C8.30529 17.2471 8.30518 15.9402 9.51407 15.4331V17.7543ZM10.1978 13.6687C9.81244 13.6799 9.44393 13.7505 9.10295 13.8706C9.11297 13.0282 9.0519 12.2651 9.26653 11.1223C9.35818 10.8727 9.70676 8.13427 12.1955 5.88378C12.5287 5.62128 13.0759 5.03564 14.4869 4.36285C17.5276 2.94988 21.2474 3.17236 24.4202 5.88389C26.566 7.82358 27.0353 10.0236 27.1929 10.4313C27.6344 12.088 27.4796 13.2584 27.5129 13.8707C27.172 13.7505 26.8036 13.68 26.4184 13.6688C26.2178 13.5535 26.0322 13.3937 25.8861 13.23C24.8076 11.9656 25.7224 10.9864 24.5655 10.004C23.7498 9.31134 22.9687 9.57599 21.5252 9.7681C14.8021 10.5057 13.453 8.81317 12.0506 10.004C11.6369 10.3552 11.3765 10.8632 11.3588 11.4933C11.2954 13.2023 10.2664 13.5901 10.1978 13.6687ZM11.0961 19.4422C11.0961 18.5464 11.0961 16.5363 11.0961 14.9976C11.6948 14.5585 12.1352 14.2026 12.5291 13.3521C12.7551 12.8661 12.9202 12.2532 12.9424 11.4931C12.9476 11.2847 13.1402 11.1255 13.35 11.1596C21.7029 12.2912 23.6481 10.4663 23.6736 11.4927C23.7238 13.2922 24.6959 14.2819 24.7115 14.3086C25.0019 14.6348 25.1881 14.7543 25.5196 14.9974C25.5197 15.8345 25.5194 18.6334 25.5199 18.7223C25.4676 18.9547 26.0819 23.5234 21.6155 25.9648C21.6043 25.9696 20.452 26.6432 18.7855 26.7625C18.3668 26.7904 17.9546 26.7721 17.9653 26.7723C14.0515 26.5865 11.0961 23.2837 11.0961 19.4422ZM16.0241 33.8263L13.8942 31.0519L14.9656 30.5301L17.1747 32.6465L16.0241 33.8263ZM18.3081 31.5213L15.9293 29.2424V28.0576C17.5066 28.5089 19.165 28.4901 20.7058 28.052V29.224L18.3081 31.5213ZM20.592 33.8263L19.4415 32.6465L21.6632 30.5179L22.7323 31.0386L20.592 33.8263ZM23.9226 39.2292C23.2008 38.8096 23.2625 38.0501 23.9226 37.6681V39.2292ZM36.4289 24.4624C33.926 21.6326 34.4792 19.0799 34.4769 14.8118C35.3838 14.6108 36.933 14.0617 38.3375 12.5688C39.4615 13.9489 42.814 17.316 48.9007 17.585C48.8973 19.7244 48.9066 19.3426 48.8936 19.7745L48.8933 19.7721C48.8223 20.0612 48.9678 22.7196 46.3082 25.0771C46.2973 25.0861 46.206 25.1619 46.2169 25.1529C43.7415 27.1877 40.2995 27.2761 37.7802 25.6092C37.6209 25.5042 36.6078 24.6366 36.4289 24.4624ZM33.5884 48.18L33.6222 48.1886C35.22 48.6325 35.7576 48.6334 36.446 49.0529C37.8872 49.9316 37.4806 51.0156 38.0623 55.2444H35.9568L35.8632 53.5072C35.8392 53.0632 35.4663 52.7225 35.0301 52.7477C34.5938 52.772 34.2596 53.1516 34.2837 53.5954L34.3726 55.2443H25.6502L25.7391 53.5954C25.7631 53.1515 25.4289 52.7719 24.9927 52.7477C24.554 52.7236 24.1834 53.0633 24.1596 53.5072L24.0659 55.2444H21.939C22.4631 50.6694 22.2413 49.8539 23.5552 49.0529C24.2118 48.6522 24.6385 48.6584 26.4126 48.18C27.3164 49.2204 28.621 49.8275 30.0006 49.8275C31.3801 49.8275 32.6847 49.2205 33.5884 48.18ZM28.6899 45.9634C29.0024 46.0328 29.3436 46.0812 29.6987 46.098C29.7179 46.099 29.7368 46.0997 29.7559 46.1002L29.8123 46.1021C30.3839 46.1176 30.9391 46.0522 31.311 45.9576C31.3501 46.2669 31.1375 47.1664 31.7989 47.6542C30.7116 48.4048 29.2913 48.4062 28.2019 47.6542C28.8614 47.1678 28.6522 46.2589 28.6899 45.9634ZM34.4628 40.1954C34.4596 40.2543 34.4557 40.3099 34.451 40.3634C34.3004 42.0085 33.289 43.3986 31.8909 44.065C31.8552 44.0695 29.4702 45.3683 27.174 43.4841C27.1486 43.4481 25.7894 42.4799 25.5421 40.5265C25.4749 40.0019 25.5179 39.5831 25.5046 37.3464C28.9778 38.0774 31.3987 36.658 32.4579 35.2505C33.1602 36.3028 33.9598 36.7549 34.471 36.9467C34.4695 40.3925 34.4758 39.9561 34.4628 40.1954ZM35.7845 35.8934C35.5187 35.5607 35.2053 35.4988 35.0799 35.4582C34.7314 35.3448 34.062 34.9889 33.4937 33.8793C33.0495 33.0122 31.8282 33.0447 31.4205 33.9174C30.9578 34.9074 28.8465 36.6295 25.2732 35.6351C24.9273 35.5392 24.5537 35.6195 24.2697 35.8833C24.2432 35.8869 24.2172 35.8917 24.191 35.896C24.1931 35.3674 24.1972 35.3471 24.1968 35.358C24.3997 30.4457 30.1677 27.9022 33.8278 31.195C33.8273 31.1992 33.837 31.1987 33.8366 31.2029C34.7717 32.0489 35.4108 33.1427 35.6814 34.5027C35.8143 35.2107 35.7787 35.7826 35.7845 35.8934ZM35.0587 30.1637C34.6606 29.7798 34.3431 29.5308 33.9 29.2483H37.6938V29.4963L35.0587 30.1637ZM36.0531 39.2304V37.6682C36.3349 37.8322 36.5739 38.1164 36.5739 38.4493C36.5739 38.8672 36.2624 39.0707 36.0531 39.2304ZM37.3665 35.8422C37.3505 35.7202 37.4528 34.5985 36.9576 33.145C37.7899 33.8705 38.758 34.3939 39.8018 34.6785C39.0471 35.23 38.1362 35.7565 37.3665 35.8422ZM37.354 31.2412L38.3804 30.9813C38.4269 30.9695 38.4722 30.9534 38.5159 30.9333C38.9774 30.7204 39.2756 30.1788 39.2756 29.5537L39.2757 28.0477C40.7069 28.4611 42.2188 28.5412 44.0712 28.0566V29.5537C44.0712 30.1789 44.3694 30.7206 44.8311 30.9333C44.8747 30.9535 44.9201 30.9695 44.9665 30.9813L45.9903 31.2407C43.6693 34.004 39.6799 34.0098 37.354 31.2412ZM46.7086 35.7573C45.7919 36.1464 44.347 35.2723 43.5319 34.6726C45.2114 34.1988 46.6396 33.162 47.666 31.6651L48.0518 31.7629C47.9859 34.0056 47.5155 35.4149 46.7086 35.7573ZM54.7993 54.6749C53.9606 55.5398 52.8221 55.1415 50.9529 55.2443L50.4125 44.8424L54.5081 44.4052L55.3993 52.5095C55.4659 53.3099 55.358 54.0986 54.7993 54.6749Z" stroke="white" stroke-width="0.4" mask="url(#path-1-outside-1_783_1764)"/>
</svg>
