<svg width="63" height="58" viewBox="0 0 63 58" fill="none" xmlns="http://www.w3.org/2000/svg">
<g clip-path="url(#clip0_784_1884)">
<path d="M19.5289 50.3328C19.2724 50.3328 19.0264 50.454 18.8448 50.6699C18.6632 50.8857 18.5609 51.1785 18.5602 51.4842L18.5382 60.7686C18.5382 61.0741 18.64 61.3671 18.8211 61.5833C19.0023 61.7994 19.248 61.9211 19.5044 61.9215C19.7609 61.9215 20.0069 61.8003 20.1885 61.5845C20.3701 61.3686 20.4724 61.0758 20.4731 60.7702L20.4925 51.4857C20.4922 51.1809 20.3907 50.8886 20.2101 50.6726C20.0296 50.4566 19.7847 50.3345 19.5289 50.3328Z" fill="white"/>
<path d="M50.6129 35.0881C50.6111 33.4119 49.9954 31.7944 48.882 30.5413C47.7687 29.2882 46.2348 28.4865 44.5705 28.2875L35.658 27.2258V24.9292C36.763 24.0159 37.584 22.8059 38.0243 21.4417C38.5112 21.4102 38.9903 21.3043 39.4451 21.1278C41.2315 20.4303 42.3992 17.8676 42.1021 15.2946C42.0802 14.9147 41.9766 14.544 41.7983 14.2078C41.6199 13.8716 41.3711 13.5779 41.0688 13.3468C40.8214 13.1707 40.5439 13.0415 40.2498 12.9658C40.7048 12.4691 41.0819 11.9064 41.3684 11.2969C42.1882 9.58607 42.5268 7.68434 42.348 5.79568C42.1691 3.90701 41.4795 2.10265 40.3532 0.576094C40.2574 0.464249 40.1385 0.374464 40.0047 0.312906C39.8709 0.251347 39.7254 0.219473 39.5782 0.219473C39.4309 0.219473 39.2854 0.251347 39.1516 0.312906C39.0178 0.374464 38.899 0.464249 38.8032 0.576094C38.7941 0.587719 37.8473 1.65722 36.9315 1.46864C36.37 1.34312 35.8176 1.17956 35.2782 0.979094C33.433 0.282111 31.4743 -0.0656613 29.5019 -0.0464897C24.0769 -0.0464897 20.6708 1.99434 19.9061 5.70013C19.6316 6.97294 19.6622 8.29264 19.9953 9.55137C20.3285 10.8101 20.9547 11.9721 21.8229 12.9425C21.4854 13.0106 21.1657 13.1478 20.8839 13.3455C20.5816 13.5766 20.3327 13.8703 20.1544 14.2065C19.976 14.5427 19.8724 14.9134 19.8506 15.2933C19.5535 17.8663 20.7211 20.429 22.5075 21.1265C22.9021 21.28 23.3158 21.3791 23.7372 21.421C24.2198 22.9156 25.159 24.2212 26.4226 25.1539V27.2206L17.5023 28.2823C15.8358 28.4797 14.2995 29.2815 13.1846 30.5358C12.0698 31.7902 11.4538 33.4099 11.4534 35.0881V61.0313C11.4534 61.2882 11.5555 61.5346 11.7372 61.7163C11.9188 61.8979 12.1653 62 12.4222 62C12.6791 62 12.9255 61.8979 13.1072 61.7163C13.2889 61.5346 13.3909 61.2882 13.3909 61.0313V35.0881C13.3902 33.8856 13.831 32.7247 14.6295 31.8256C15.4281 30.9266 16.529 30.3519 17.7232 30.2108L20.6759 29.8582L24.1854 40.1915C24.2724 40.429 24.4488 40.6231 24.6769 40.7322C24.9051 40.8414 25.1669 40.857 25.4064 40.7757C25.6459 40.6944 25.8442 40.5227 25.9587 40.2972C26.0733 40.0717 26.0951 39.8103 26.0196 39.5689L22.6418 29.6231L24.3869 29.4151L27.9209 40.0895C27.9596 40.2118 28.0222 40.3252 28.105 40.4231C28.1879 40.521 28.2894 40.6015 28.4036 40.6599C28.5179 40.7183 28.6425 40.7534 28.7705 40.7632C28.8984 40.773 29.0269 40.7573 29.1487 40.717C29.2705 40.6767 29.3831 40.6127 29.4799 40.5285C29.5768 40.4444 29.6559 40.3418 29.7128 40.2269C29.7697 40.1119 29.8032 39.9868 29.8113 39.8587C29.8195 39.7307 29.8021 39.6023 29.7602 39.4811L26.3502 29.1813L26.544 29.1581C26.6347 29.5951 26.7765 30.02 26.9663 30.4239C27.3265 31.1972 27.9085 31.846 28.6382 32.2878C29.368 32.7296 30.2126 32.9445 31.0648 32.9052H31.0777C31.8964 32.9464 32.7095 32.7485 33.4177 32.3357C34.1259 31.9229 34.6988 31.3129 35.0664 30.5802C35.2882 30.1305 35.4473 29.6524 35.5391 29.1594L35.7368 29.1826L31.5518 41.8164L25.1541 41.8087C25.0329 41.8026 24.9117 41.8225 24.7988 41.8671C24.6858 41.9116 24.5837 41.9798 24.4993 42.067L23.7798 41.4044C23.2935 40.9558 22.6551 40.7083 21.9934 40.712H20.7289C20.0672 40.7124 19.4328 40.9752 18.9647 41.4428C18.4966 41.9104 18.2331 42.5446 18.2321 43.2063V43.67C17.3818 44.0547 16.689 44.7192 16.2692 45.5528C15.8495 46.3863 15.728 47.3386 15.9251 48.2508C16.1223 49.163 16.6261 49.9802 17.3526 50.566C18.0791 51.1519 18.9844 51.471 19.9177 51.4703H24.1893C24.2037 51.7143 24.3106 51.9437 24.4882 52.1116C24.6658 52.2796 24.9007 52.3736 25.1451 52.3745L45.8789 52.3861H45.8893C47.1422 52.3854 48.3437 51.8877 49.23 51.0021C50.1163 50.1165 50.615 48.9154 50.6168 47.6625L50.6129 35.0881ZM38.696 19.2316C38.59 19.2705 38.4817 19.3029 38.3718 19.3285C38.3718 19.2665 38.3821 19.2084 38.3821 19.1464V14.9963C38.8687 14.8503 39.3874 14.8503 39.874 14.9963C39.9972 15.1447 40.0668 15.3304 40.0716 15.5233C40.2679 17.2321 39.4929 18.919 38.696 19.2316ZM23.2399 19.2316C22.4416 18.919 21.6679 17.2321 21.863 15.5246C21.8683 15.3315 21.9383 15.1459 22.0619 14.9976C22.4864 14.8564 22.9433 14.8452 23.3742 14.9653V19.1464C23.3742 19.189 23.3807 19.2303 23.3807 19.2756C23.3329 19.2588 23.2851 19.2458 23.2399 19.2316ZM25.4099 19.1464V14.3931C25.6764 14.1648 25.9184 13.9094 26.1319 13.631C26.5367 13.1069 26.9032 12.5544 27.2285 11.9776C27.3861 12.0513 27.5605 12.1275 27.7452 12.2037C27.9944 12.2971 28.2702 12.2891 28.5136 12.1816C28.7571 12.0741 28.9487 11.8756 29.0475 11.6285C29.1463 11.3814 29.1444 11.1055 29.0422 10.8598C28.94 10.614 28.7457 10.4181 28.5008 10.314C28.0964 10.1587 27.7072 9.96632 27.3383 9.73918C27.2103 9.65389 27.0647 9.59861 26.9124 9.57746C26.76 9.55631 26.6048 9.56983 26.4584 9.61701C26.312 9.6642 26.1782 9.74383 26.0668 9.84998C25.9555 9.95612 25.8696 10.086 25.8155 10.23C25.4776 11.0055 25.038 11.7327 24.5083 12.3923C24.4515 12.4672 24.3946 12.5279 24.3391 12.5899C23.3734 11.8401 22.6333 10.8384 22.2003 9.695C21.7673 8.55165 21.6582 7.31099 21.8849 6.10959C22.5876 2.70218 26.4058 1.9853 29.4877 1.9853C31.2353 1.96369 32.9711 2.27447 34.6027 2.90109C35.2279 3.13232 35.8684 3.32006 36.5195 3.46297C37.0142 3.54118 37.5195 3.5194 38.0056 3.39893C38.4917 3.27847 38.9487 3.06175 39.3495 2.76159C39.9658 3.95409 40.2988 5.27266 40.3225 6.61478C40.3463 7.9569 40.0602 9.28641 39.4865 10.5C39.1147 11.1794 38.6303 11.7909 38.054 12.3083C37.7479 11.0541 37.2583 9.89934 36.4678 9.55705C36.2369 9.4587 35.9843 9.42245 35.7351 9.4519C35.4858 9.48136 35.2486 9.5755 35.047 9.72497C34.5062 10.22 33.86 10.5857 33.1572 10.7945C32.4543 11.0033 31.7133 11.0496 30.9899 10.9301C30.7219 10.9049 30.4546 10.9853 30.245 11.1542C30.0354 11.323 29.8999 11.567 29.8674 11.8343C29.8527 11.9674 29.8645 12.1021 29.902 12.2307C29.9396 12.3592 30.0022 12.4791 30.0862 12.5834C30.1702 12.6877 30.274 12.7744 30.3916 12.8385C30.5093 12.9025 30.6384 12.9427 30.7716 12.9567C31.6421 13.0942 32.5313 13.0557 33.3866 12.8433C34.2419 12.631 35.0459 12.2492 35.751 11.7206C36.0382 12.5149 36.2395 13.3376 36.3516 14.1748V19.1451C36.3295 20.5808 35.7437 21.9503 34.7206 22.9578C33.6975 23.9653 32.3192 24.53 30.8833 24.53C29.4474 24.53 28.0691 23.9653 27.046 22.9578C26.0229 21.9503 25.4371 20.5808 25.4151 19.1451L25.4099 19.1464ZM33.3368 29.7083C33.1336 30.1256 32.807 30.4703 32.4013 30.6958C31.9956 30.9213 31.5304 31.0167 31.0687 30.969C30.6963 30.9738 30.3269 30.9011 29.9841 30.7555C29.6413 30.6098 29.3325 30.3945 29.0774 30.1231C28.8223 29.8517 28.6265 29.5303 28.5023 29.1791C28.3781 28.828 28.3284 28.4548 28.3562 28.0834V26.1885C30.0953 26.8202 32.0074 26.7811 33.7192 26.0788V28.1209C33.7035 28.6709 33.5733 29.2115 33.3368 29.7083ZM39.4451 29.627L32.3565 50.4473H30.7238L37.6988 29.4203L39.4451 29.627ZM17.7684 47.3835C17.7691 46.8137 17.9957 46.2674 18.3987 45.8645C18.8016 45.4615 19.3479 45.2349 19.9177 45.2342H21.3889C21.6459 45.2342 21.8923 45.1321 22.0739 44.9504C22.2556 44.7688 22.3577 44.5224 22.3577 44.2654C22.3577 44.0085 22.2556 43.7621 22.0739 43.5804C21.8923 43.3987 21.6459 43.2967 21.3889 43.2967H20.1696V43.2063C20.1698 43.133 20.1844 43.0605 20.2126 42.9928C20.2408 42.9252 20.282 42.8638 20.3339 42.8121C20.3859 42.7604 20.4475 42.7194 20.5152 42.6915C20.583 42.6636 20.6556 42.6494 20.7289 42.6495H21.9934C22.1663 42.6488 22.3331 42.7139 22.4597 42.8317L24.1776 44.4165V49.5328H19.9151C19.3458 49.5315 18.8001 49.3045 18.3978 48.9016C17.9954 48.4988 17.7691 47.9529 17.7684 47.3835ZM26.1151 43.7475L30.9033 43.7539L28.683 50.4448H26.1151V43.7475ZM47.859 49.64C47.6004 49.8994 47.2929 50.105 46.9544 50.2449C46.6159 50.3848 46.253 50.4562 45.8867 50.4551H40.4733L40.4901 45.9071C40.4906 45.7799 40.466 45.6538 40.4178 45.5361C40.3696 45.4184 40.2987 45.3113 40.2091 45.221C40.1195 45.1307 40.013 45.0589 39.8956 45.0097C39.7783 44.9606 39.6524 44.935 39.5252 44.9345C39.269 44.9345 39.0231 45.036 38.8416 45.2169C38.66 45.3977 38.5575 45.6431 38.5565 45.8994L38.5268 50.4512H34.3934L36.668 43.7707L42.5774 43.7772C42.8339 43.7772 43.0799 43.6755 43.2615 43.4943C43.4431 43.3132 43.5455 43.0675 43.5462 42.811L43.5643 38.6208C43.5646 38.4937 43.5399 38.3677 43.4915 38.2501C43.4431 38.1325 43.372 38.0256 43.2823 37.9355C43.1925 37.8454 43.0859 37.7739 42.9685 37.7251C42.8511 37.6762 42.7252 37.651 42.5981 37.6508C42.471 37.6506 42.3452 37.6755 42.2278 37.7239C42.1103 37.7724 42.0036 37.8435 41.9136 37.9332C41.8237 38.023 41.7523 38.1295 41.7035 38.2468C41.6547 38.3641 41.6295 38.4899 41.6293 38.617L41.6203 41.8461H37.3371L41.4123 29.875L44.3418 30.225C45.5363 30.3658 46.6374 30.9403 47.4363 31.8394C48.2351 32.7385 48.6761 33.8996 48.6754 35.1023V47.6767C48.6752 48.0416 48.603 48.4029 48.4629 48.7398C48.3229 49.0767 48.1176 49.3826 47.859 49.64Z" fill="white"/>
<path d="M42.6601 51.5211C42.4032 51.5211 42.1568 51.6427 41.9751 51.8592C41.7934 52.0757 41.6913 52.3694 41.6913 52.6755V60.8456C41.6913 61.1518 41.7934 61.4454 41.9751 61.6619C42.1568 61.8784 42.4032 62 42.6601 62C42.917 62 43.1634 61.8784 43.3451 61.6619C43.5268 61.4454 43.6288 61.1518 43.6288 60.8456V52.6755C43.6288 52.3694 43.5268 52.0757 43.3451 51.8592C43.1634 51.6427 42.917 51.5211 42.6601 51.5211Z" fill="white"/>
<path d="M18.6629 57.2199C18.6629 57.4768 18.9527 57.7232 19.4684 57.9049C19.9842 58.0866 20.6838 58.1887 21.4133 58.1887L40.8785 58.1887C41.6079 58.1887 42.3075 58.0866 42.8233 57.9049C43.3391 57.7232 43.6288 57.4768 43.6288 57.2199C43.6288 56.963 43.3391 56.7166 42.8233 56.5349C42.3075 56.3532 41.6079 56.2512 40.8785 56.2512L21.4133 56.2512C20.6838 56.2512 19.9842 56.3532 19.4684 56.5349C18.9527 56.7166 18.6629 56.963 18.6629 57.2199Z" fill="white"/>
</g>
<defs>
<clipPath id="clip0_784_1884">
<rect width="62" height="58" fill="white" transform="translate(0.0350952)"/>
</clipPath>
</defs>
</svg>
