<svg width="57" height="57" viewBox="0 0 57 57" fill="none" xmlns="http://www.w3.org/2000/svg">
<g clip-path="url(#clip0_735_1876)">
<path d="M55.87 21.4136L46.875 13.9236V7.8861C46.875 7.42197 46.6906 6.97685 46.3624 6.64866C46.0342 6.32047 45.5891 6.1361 45.125 6.1361C44.6609 6.1361 44.2157 6.32047 43.8875 6.64866C43.5594 6.97685 43.375 7.42197 43.375 7.8861V11.0011L31.86 1.4111C30.9166 0.62535 29.7277 0.195068 28.5 0.195068C27.2723 0.195068 26.0833 0.62535 25.14 1.4111L1.12999 21.4136C0.772615 21.7106 0.547872 22.1375 0.505208 22.6002C0.462543 23.063 0.605451 23.5237 0.902494 23.8811C1.19954 24.2385 1.62638 24.4632 2.08913 24.5059C2.55187 24.5485 3.01261 24.4056 3.36999 24.1086L27.38 4.09735C27.6944 3.83543 28.0907 3.69201 28.5 3.69201C28.9092 3.69201 29.3055 3.83543 29.62 4.09735L49.5 20.6611V50.7611C49.5 51.2252 49.3156 51.6703 48.9874 51.9985C48.6592 52.3267 48.2141 52.5111 47.75 52.5111H39V33.2611C39 31.8687 38.4469 30.5333 37.4623 29.5488C36.4777 28.5642 35.1424 28.0111 33.75 28.0111H23.25C21.8576 28.0111 20.5222 28.5642 19.5377 29.5488C18.5531 30.5333 18 31.8687 18 33.2611V52.5111H9.24999C8.78586 52.5111 8.34074 52.3267 8.01256 51.9985C7.68437 51.6703 7.49999 51.2252 7.49999 50.7611V20.32C7.49999 19.8559 7.31562 19.4108 6.98743 19.0826C6.65924 18.7544 6.21412 18.57 5.74999 18.57C5.28586 18.57 4.84074 18.7544 4.51256 19.0826C4.18437 19.4108 3.99999 19.8559 3.99999 20.32V50.7611C3.99999 52.1535 4.55312 53.4888 5.53768 54.4734C6.52225 55.458 7.85761 56.0111 9.24999 56.0111H47.75C49.1424 56.0111 50.4777 55.458 51.4623 54.4734C52.4469 53.4888 53 52.1535 53 50.7611V23.5836L53.63 24.1086C53.9448 24.3695 54.3411 24.5119 54.75 24.5111C55.1103 24.5118 55.4621 24.4012 55.7573 24.1945C56.0524 23.9878 56.2766 23.695 56.3991 23.3562C56.5217 23.0173 56.5366 22.6488 56.4419 22.3012C56.3472 21.9535 56.1474 21.6435 55.87 21.4136ZM21.5 52.5111V33.2611C21.5 32.797 21.6844 32.3518 22.0126 32.0237C22.3407 31.6955 22.7859 31.5111 23.25 31.5111H33.75C34.2141 31.5111 34.6592 31.6955 34.9874 32.0237C35.3156 32.3518 35.5 32.797 35.5 33.2611V52.5111H21.5Z" fill="white"/>
<path d="M26.75 43.7611C27.7165 43.7611 28.5 42.9776 28.5 42.0111C28.5 41.0446 27.7165 40.2611 26.75 40.2611C25.7835 40.2611 25 41.0446 25 42.0111C25 42.9776 25.7835 43.7611 26.75 43.7611Z" fill="white"/>
</g>
<defs>
<clipPath id="clip0_735_1876">
<rect width="56" height="56" fill="white" transform="translate(0.5 0.0111084)"/>
</clipPath>
</defs>
</svg>
