<svg width="57" height="57" viewBox="0 0 57 57" fill="none" xmlns="http://www.w3.org/2000/svg">
<g clip-path="url(#clip0_784_1810)">
<path d="M23.2891 21.7242C24.3202 22.0398 25.3742 22.1963 26.4229 22.1963C28.1428 22.1963 29.8479 21.7754 31.4101 20.9458C36.6003 18.1898 38.5804 11.7247 35.8237 6.53385C34.4883 4.01943 32.2538 2.1757 29.5315 1.34226C26.8094 0.508602 23.9255 0.785212 21.4106 2.12057L21.4105 2.12068C16.2209 4.87792 14.241 11.343 16.997 16.5325C18.3323 19.047 20.5668 20.8906 23.2891 21.7242ZM22.1803 3.56946L22.1802 3.56957C24.308 2.43973 26.7483 2.2061 29.0513 2.91102C31.3544 3.61606 33.2449 5.17596 34.3747 7.30342C36.7071 11.6954 35.0319 17.1653 30.6406 19.497C28.5127 20.6269 26.0728 20.8608 23.7696 20.1556C21.4665 19.4505 19.5759 17.8906 18.4461 15.7631C16.1143 11.3724 17.7895 5.90232 22.1803 3.56946Z" fill="white"/>
<path d="M22.0775 14.1966H23.7499V15.8656C23.7499 16.906 24.5949 17.7523 25.6336 17.7523H27.187C28.2274 17.7523 29.0738 16.906 29.0738 15.8656V14.1966H30.7431C31.7836 14.1966 32.63 13.3502 32.63 12.3098V10.7566C32.63 9.71623 31.7836 8.86988 30.7431 8.86988H29.0738V7.20082C29.0738 6.16045 28.2274 5.3141 27.187 5.3141H25.6336C24.5949 5.3141 23.7499 6.16045 23.7499 7.20082V8.86988H22.0775C21.0372 8.86988 20.1906 9.71623 20.1906 10.7566V12.3098C20.1906 13.3502 21.0372 14.1966 22.0775 14.1966ZM21.8313 10.7566C21.8313 10.6232 21.9441 10.5104 22.0775 10.5104H24.5703C25.0233 10.5104 25.3906 10.1432 25.3906 9.69009V7.20071C25.3906 7.06727 25.502 6.95451 25.6336 6.95451H27.187C27.3204 6.95451 27.4332 7.06727 27.4332 7.20071V9.69009C27.4332 10.1431 27.8005 10.5104 28.2535 10.5104H30.7431C30.8765 10.5104 30.9893 10.6232 30.9893 10.7566V12.3098C30.9893 12.4433 30.8765 12.556 30.7431 12.556H28.2535C27.8005 12.556 27.4332 12.9232 27.4332 13.3764V15.8657C27.4332 15.9992 27.3204 16.1119 27.187 16.1119H25.6336C25.5018 16.1119 25.3906 15.9992 25.3906 15.8657V13.3764C25.3906 12.9233 25.0233 12.556 24.5703 12.556H22.0775C21.9441 12.556 21.8313 12.4433 21.8313 12.3098V10.7566Z" fill="white"/>
<path d="M53.3097 48.9341V42.1784H55.5091C55.9622 42.1784 56.3295 41.8112 56.3295 41.3581V24.9212C56.3295 23.1852 54.9155 21.7727 53.1777 21.7727C51.7252 21.7727 50.4999 22.7615 50.138 24.1009H42.7448C42.2917 24.1009 41.9245 24.4681 41.9245 24.9212C41.9245 25.3744 42.2918 25.7415 42.7448 25.7415H50.0289V40.538H27.8492V36.6988V29.0756C27.8492 27.2372 29.345 25.7416 31.1834 25.7416H43.5499C44.0031 25.7416 44.3703 25.3745 44.3703 24.9213C44.3703 24.4682 44.003 24.101 43.5499 24.101H31.1834C28.4403 24.101 26.2085 26.3325 26.2085 29.0756V29.2969H16.4073C16.3759 28.0131 15.5952 26.8033 14.355 26.2902C14.3324 26.2807 14.3093 26.2724 14.2859 26.2651L6.80069 23.9274V19.7037C6.80069 17.966 5.38669 16.5522 3.64883 16.5522C1.9125 16.5521 0.500031 17.9658 0.500031 19.7036L0.500031 31.9029C0.500031 32.356 0.867312 32.7232 1.32034 32.7232C1.77337 32.7232 2.14066 32.3561 2.14066 31.9029V19.7036C2.14066 18.8704 2.81714 18.1926 3.64872 18.1926C4.48194 18.1926 5.15984 18.8704 5.15984 19.7036V36.6986C5.15984 37.1516 5.52712 37.5189 5.98016 37.5189H26.2083V40.5378H2.14076V31.168C2.14076 30.7149 1.77348 30.3476 1.32045 30.3476C0.867421 30.3476 0.50014 30.7148 0.50014 31.168V41.3581C0.50014 41.8111 0.867421 42.1784 1.32045 42.1784H4.36009V48.9341C2.54075 49.3137 1.16984 50.9296 1.16984 52.8599C1.16984 55.0711 2.96906 56.8702 5.18051 56.8702C7.39197 56.8702 9.19119 55.0711 9.19119 52.8599C9.19119 50.9296 7.82017 49.3138 6.00094 48.9341V46.3327H51.6689V48.9341C49.8496 49.3137 48.4786 50.9296 48.4786 52.8599C48.4786 55.0711 50.2778 56.8702 52.4892 56.8702C54.7007 56.8702 56.5 55.071 56.5 52.8598C56.5 50.9295 55.129 49.3137 53.3097 48.9341ZM53.1775 23.4133C54.0109 23.4133 54.6887 24.0896 54.6887 24.9212V40.5379H51.6696V24.9212C51.6696 24.0896 52.3461 23.4133 53.1775 23.4133ZM13.758 27.8189C14.3588 28.0815 14.7398 28.6694 14.7673 29.2968H6.80069V25.646L13.758 27.8189ZM6.80069 35.8784V30.9373H15.4737H26.2085V35.8784H6.80069ZM7.55034 52.8598C7.55034 54.1665 6.48722 55.2295 5.18041 55.2295C3.87359 55.2295 2.81047 54.1665 2.81047 52.8598C2.81047 51.5529 3.87359 50.4899 5.18041 50.4899C6.48722 50.4899 7.55034 51.5531 7.55034 52.8598ZM6.00072 44.6922V42.1785H27.0288H51.6689V44.6922H6.00072ZM52.4894 55.2296C51.1825 55.2296 50.1194 54.1666 50.1194 52.8599C50.1194 51.553 51.1825 50.49 52.4894 50.49C53.7962 50.49 54.8593 51.553 54.8593 52.8599C54.8593 54.1665 53.7962 55.2296 52.4894 55.2296Z" fill="white"/>
</g>
<defs>
<clipPath id="clip0_784_1810">
<rect width="56" height="56" fill="white" transform="translate(0.500031 0.870087)"/>
</clipPath>
</defs>
</svg>
