<svg width="57" height="57" viewBox="0 0 57 57" fill="none" xmlns="http://www.w3.org/2000/svg">
<g clip-path="url(#clip0_735_1876)">
<path d="M55.87 21.4776L46.875 13.9876V7.95006C46.875 7.48593 46.6906 7.04081 46.3624 6.71263C46.0342 6.38444 45.5891 6.20006 45.125 6.20006C44.6609 6.20006 44.2157 6.38444 43.8875 6.71263C43.5594 7.04081 43.375 7.48593 43.375 7.95006V11.0651L31.86 1.47506C30.9166 0.689315 29.7277 0.259033 28.5 0.259033C27.2723 0.259033 26.0833 0.689315 25.14 1.47506L1.12999 21.4776C0.772615 21.7746 0.547872 22.2014 0.505208 22.6642C0.462543 23.1269 0.605451 23.5877 0.902494 23.9451C1.19954 24.3024 1.62638 24.5272 2.08913 24.5698C2.55187 24.6125 3.01261 24.4696 3.36999 24.1726L27.38 4.16131C27.6944 3.8994 28.0907 3.75597 28.5 3.75597C28.9092 3.75597 29.3055 3.8994 29.62 4.16131L49.5 20.7251V50.8251C49.5 51.2892 49.3156 51.7343 48.9874 52.0625C48.6592 52.3907 48.2141 52.5751 47.75 52.5751H39V33.3251C39 31.9327 38.4469 30.5973 37.4623 29.6127C36.4777 28.6282 35.1424 28.0751 33.75 28.0751H23.25C21.8576 28.0751 20.5222 28.6282 19.5377 29.6127C18.5531 30.5973 18 31.9327 18 33.3251V52.5751H9.24999C8.78586 52.5751 8.34074 52.3907 8.01256 52.0625C7.68437 51.7343 7.49999 51.2892 7.49999 50.8251V20.384C7.49999 19.9199 7.31562 19.4747 6.98743 19.1465C6.65924 18.8184 6.21412 18.634 5.74999 18.634C5.28586 18.634 4.84074 18.8184 4.51256 19.1465C4.18437 19.4747 3.99999 19.9199 3.99999 20.384V50.8251C3.99999 52.2174 4.55312 53.5528 5.53768 54.5374C6.52225 55.5219 7.85761 56.0751 9.24999 56.0751H47.75C49.1424 56.0751 50.4777 55.5219 51.4623 54.5374C52.4469 53.5528 53 52.2174 53 50.8251V23.6476L53.63 24.1726C53.9448 24.4335 54.3411 24.5759 54.75 24.5751C55.1103 24.5758 55.4621 24.4652 55.7573 24.2585C56.0524 24.0518 56.2766 23.759 56.3991 23.4201C56.5217 23.0812 56.5366 22.7128 56.4419 22.3651C56.3472 22.0174 56.1474 21.7075 55.87 21.4776ZM21.5 52.5751V33.3251C21.5 32.8609 21.6844 32.4158 22.0126 32.0876C22.3407 31.7594 22.7859 31.5751 23.25 31.5751H33.75C34.2141 31.5751 34.6592 31.7594 34.9874 32.0876C35.3156 32.4158 35.5 32.8609 35.5 33.3251V52.5751H21.5Z" fill="#123060"/>
<path d="M26.75 43.8251C27.7165 43.8251 28.5 43.0416 28.5 42.0751C28.5 41.1086 27.7165 40.3251 26.75 40.3251C25.7835 40.3251 25 41.1086 25 42.0751C25 43.0416 25.7835 43.8251 26.75 43.8251Z" fill="#123060"/>
</g>
<defs>
<clipPath id="clip0_735_1876">
<rect width="56" height="56" fill="white" transform="translate(0.5 0.0750732)"/>
</clipPath>
</defs>
</svg>
