<svg width="57" height="57" viewBox="0 0 57 57" fill="none" xmlns="http://www.w3.org/2000/svg">
<g clip-path="url(#clip0_731_3005)">
<path d="M42.1144 19.8271C41.9906 19.3228 41.6376 18.5892 41.0025 18.1582V12.0811C41.0025 8.388 39.8747 6.87277 38.6849 5.99474C38.4626 4.21591 36.5553 0.619141 29.5405 0.619141C22.4386 0.619141 18.0785 7.29464 18.0785 12.0812V18.1583C17.4435 18.5894 17.0928 19.3252 16.9666 19.8272C16.9437 19.9167 16.9322 20.0107 16.9322 20.1046C16.9322 21.9912 18.0348 24.8017 18.161 25.1158C18.2985 25.4574 18.5002 25.6844 18.8579 25.7738C18.9839 25.8357 19.2246 26.1704 19.2246 26.9819C19.2246 29.1597 20.8591 31.5805 22.6151 33.1897C22.3744 34.6912 21.2556 38.6502 18.8647 39.6497L8.69111 43.0401C6.07552 43.9113 4.11552 46.0295 3.44381 48.7069L2.06611 54.2131C1.91256 54.8274 2.28393 55.4487 2.90051 55.6023C2.99454 55.6252 3.0862 55.6367 3.17786 55.6367C3.69364 55.6367 4.16129 55.2906 4.28734 54.7655L5.66503 49.2592C6.14182 47.3473 7.54476 45.8321 9.4131 45.2108L19.6647 41.7905C23.6329 40.1377 24.9556 34.166 24.9556 32.7104C24.9556 32.3688 24.802 32.0455 24.5383 31.8278C23.0368 30.5853 21.517 28.5222 21.517 26.9794C21.517 25.267 20.8086 24.3179 20.1369 23.8687C19.8091 22.9724 19.2795 21.3356 19.2291 20.2696C19.2589 20.1825 19.2795 20.1046 19.2245 20.1046C19.8572 20.1046 20.3707 19.5911 20.3707 18.9584V12.0812C20.3707 8.34223 23.9446 2.91161 29.5403 2.91161C34.8632 2.91161 36.2387 5.26823 36.3991 6.17602C36.3556 6.33194 36.3349 6.48775 36.351 6.62304C36.4175 7.25348 36.8851 7.5492 37.1625 7.72565C37.6255 8.01911 38.7098 8.70683 38.7098 12.0812V18.9606C38.7098 19.5933 39.0881 20.0632 39.7208 20.0632C39.7574 20.0954 39.8102 20.187 39.8514 20.2787C39.7987 21.3424 39.2738 22.9723 38.9437 23.8708C38.2719 24.3178 37.5636 25.2691 37.5636 26.9816C37.5636 28.2814 37.1188 28.8659 36.7246 29.3817C36.6283 29.5101 36.5412 29.627 36.4679 29.7347C36.1171 30.262 36.2593 30.9726 36.7865 31.3256C37.3091 31.6763 38.0221 31.5342 38.3751 31.0092L38.547 30.7732C39.0376 30.1313 39.856 29.0561 39.856 26.9816C39.856 26.1701 40.0989 25.8353 40.1333 25.8009C40.4909 25.7138 40.782 25.4571 40.9196 25.1155C41.048 24.8014 42.1483 21.991 42.1483 20.1043C42.1488 20.0106 42.1373 19.9188 42.1144 19.8271Z" fill="#022569" stroke="#022569"/>
<path d="M36.0188 54.6542H3.92523" stroke="#022569" stroke-width="3" stroke-linecap="round" stroke-linejoin="round"/>
<path d="M56.0936 33.9274L46.7603 31.6549C46.5736 31.6072 46.3823 31.6072 46.1956 31.6549L36.8623 33.9274C36.342 34.0547 35.978 34.5092 35.978 35.0297V48.6651C35.978 52.1784 43.671 55.5737 46.03 56.5305C46.1723 56.5896 46.3263 56.6191 46.478 56.6191C46.6297 56.6191 46.7837 56.5896 46.926 56.5305C49.285 55.576 56.978 52.1808 56.978 48.6651V35.0297C56.9779 34.5069 56.6139 34.0546 56.0936 33.9274ZM54.6446 48.665C54.6446 49.9535 50.4283 52.5783 46.4779 54.2487C42.5252 52.5783 38.3112 49.9558 38.3112 48.665V35.9182L46.4779 33.9297L54.6446 35.9182V48.665Z" fill="#123060" stroke="#123060" stroke-width="0.5"/>
<path d="M51.7691 39.8531C51.4905 39.5411 51.0376 39.5411 50.759 39.8531L45.5501 45.6876L43.1971 43.0536C42.9185 42.7415 42.4656 42.7415 42.187 43.0536C41.9084 43.3656 41.9084 43.8729 42.187 44.185L45.0443 47.3855C45.1844 47.5406 45.3672 47.6191 45.5501 47.6191C45.733 47.6191 45.9158 47.5407 46.0544 47.3855L51.7691 40.9845C52.0477 40.6725 52.0477 40.1652 51.7691 39.8531Z" fill="#123060" stroke="#123060"/>
</g>
<defs>
<clipPath id="clip0_731_3005">
<rect width="56" height="56" fill="white" transform="translate(0.978027 0.619141)"/>
</clipPath>
</defs>
</svg>
