<svg width="58" height="58" viewBox="0 0 58 58" fill="none" xmlns="http://www.w3.org/2000/svg">
<path d="M28.7534 57.0347C28.4477 57.0347 28.1491 56.9134 27.9274 56.694C27.6521 56.4187 27.5307 56.022 27.6077 55.6417L29.2574 47.3934C29.304 47.1647 29.4114 46.957 29.577 46.796L47.7257 28.6474C49.0884 27.2847 51.3121 27.2847 52.6747 28.6474L55.9741 31.9467C57.3391 33.3117 57.3391 35.5307 55.9741 36.8957L37.8254 55.0444C37.6644 55.2077 37.4567 55.3174 37.2281 55.364L28.9797 57.0137C28.9051 57.0277 28.8281 57.0347 28.7534 57.0347ZM31.4787 48.1937L30.242 54.3794L36.4277 53.1427L54.3267 35.2437C54.7817 34.7887 54.7817 34.049 54.3267 33.594L51.0274 30.2947C50.5724 29.8397 49.8327 29.8397 49.3777 30.2947L31.4787 48.1937ZM37.0017 54.2184H37.0251H37.0017Z" fill="#123060" stroke="#123060"/>
<path d="M23.1667 50.0347H6.83334C3.61567 50.0347 1 47.419 1 44.2013V13.868C1 10.6503 3.61567 8.03467 6.83334 8.03467H11.5C12.144 8.03467 12.6667 8.55733 12.6667 9.20134C12.6667 9.84534 12.144 10.368 11.5 10.368H6.83334C4.90367 10.368 3.33333 11.9383 3.33333 13.868V44.2013C3.33333 46.131 4.90367 47.7014 6.83334 47.7014H23.1667C23.8107 47.7014 24.3333 48.224 24.3333 48.868C24.3333 49.512 23.8107 50.0347 23.1667 50.0347Z" fill="#123060" stroke="#123060"/>
<path d="M39.5 29.0347C38.856 29.0347 38.3333 28.512 38.3333 27.868V13.868C38.3333 11.9383 36.763 10.368 34.8333 10.368H30.1667C29.5227 10.368 29 9.84534 29 9.20134C29 8.55733 29.5227 8.03467 30.1667 8.03467H34.8333C38.051 8.03467 40.6667 10.6503 40.6667 13.868V27.868C40.6667 28.512 40.144 29.0347 39.5 29.0347Z" fill="#123060" stroke="#123060"/>
<path d="M27.8333 15.0347H13.8333C11.9036 15.0347 10.3333 13.4643 10.3333 11.5347V6.868C10.3333 6.224 10.856 5.70134 11.5 5.70134H15.1166C15.658 3.04134 18.017 1.03467 20.8333 1.03467C23.6497 1.03467 26.0087 3.04134 26.55 5.70134H30.1667C30.8107 5.70134 31.3333 6.224 31.3333 6.868V11.5347C31.3333 13.4643 29.763 15.0347 27.8333 15.0347ZM12.6666 8.03467V11.5347C12.6666 12.1763 13.1916 12.7013 13.8333 12.7013H27.8333C28.475 12.7013 29 12.1763 29 11.5347V8.03467H25.5C24.856 8.03467 24.3333 7.512 24.3333 6.868C24.3333 4.93834 22.763 3.368 20.8333 3.368C18.9036 3.368 17.3333 4.93834 17.3333 6.868C17.3333 7.512 16.8106 8.03467 16.1666 8.03467H12.6666Z" fill="#123060" stroke="#123060"/>
<path d="M32.5 22.0347H9.16667C8.52267 22.0347 8 21.512 8 20.868C8 20.224 8.52267 19.7014 9.16667 19.7014H32.5C33.144 19.7014 33.6667 20.224 33.6667 20.868C33.6667 21.512 33.144 22.0347 32.5 22.0347Z" fill="#123060" stroke="#123060"/>
<path d="M32.5 29.0347H9.16667C8.52267 29.0347 8 28.512 8 27.868C8 27.224 8.52267 26.7014 9.16667 26.7014H32.5C33.144 26.7014 33.6667 27.224 33.6667 27.868C33.6667 28.512 33.144 29.0347 32.5 29.0347Z" fill="#123060" stroke="#123060"/>
<path d="M32.5 36.0347H9.16667C8.52267 36.0347 8 35.512 8 34.868C8 34.224 8.52267 33.7014 9.16667 33.7014H32.5C33.144 33.7014 33.6667 34.224 33.6667 34.868C33.6667 35.512 33.144 36.0347 32.5 36.0347Z" fill="#123060" stroke="#123060"/>
</svg>
