<svg width="56" height="56" viewBox="0 0 56 56" fill="none" xmlns="http://www.w3.org/2000/svg">
<path d="M54.3332 38.5193C55.1962 38.4723 55.8821 37.7589 55.8821 36.8832C55.8821 32.1622 52.0925 28.464 47.2547 28.464H45.656L43.7019 19.1888C45.5875 18.3695 46.9101 16.4881 46.9101 14.3024C46.9101 11.3666 44.5245 8.97806 41.5921 8.97806H34.0327C33.1277 8.97806 32.394 9.71262 32.394 10.6187V12.6618H28.366C27.461 12.6618 26.7273 13.3964 26.7273 14.3024C26.7273 15.2085 27.461 15.9431 28.366 15.9431H32.394V17.9862C32.394 18.8922 33.1277 19.6268 34.0327 19.6268H34.7603C33.4036 21.2312 32.5829 23.3038 32.5829 25.5658V34.9019C32.5829 34.9498 32.5441 34.9886 32.4963 34.9886H25.8769C25.8388 34.9886 25.8046 34.9632 25.7938 34.9265L24.0093 28.8888C25.4475 28.5041 26.5102 27.1889 26.5102 25.6293C26.5102 21.9262 23.5012 18.9136 19.8027 18.9136H5.03847C2.26034 18.9135 0 21.1765 0 23.9582C0 26.5011 1.88923 28.6095 4.33606 28.9529C1.74038 31.2775 0.103578 34.6546 0.103578 38.4077V43.5154C0.103578 44.4215 0.837266 45.156 1.74223 45.156H3.16006C3.92328 48.9667 7.29072 51.8465 11.318 51.8465C15.3453 51.8465 18.7127 48.9667 19.476 45.156H39.5211C40.2843 48.9667 43.6518 51.8465 47.6791 51.8465C52.2671 51.8465 55.9999 48.1092 55.9999 43.5154C56 41.6425 55.3792 39.9123 54.3332 38.5193ZM52.3365 35.2426H48.6476C48.3296 35.2055 48.0069 35.1843 47.6792 35.1843C47.0918 35.1843 46.5189 35.2464 45.9657 35.3628V31.7452H47.2548C49.6547 31.7452 51.6389 33.1898 52.3365 35.2426ZM35.6712 12.2592H41.5921C42.7174 12.2592 43.6329 13.1758 43.6329 14.3023C43.6329 15.4289 42.7174 16.3455 41.5921 16.3455H35.6712V12.2592ZM25.877 38.2698H32.4964C34.3513 38.2698 35.8602 36.759 35.8602 34.9018V25.5657C35.8602 22.7457 37.8384 20.3795 40.4784 19.7853L42.6885 30.2755V36.8536C41.0849 38.061 39.93 39.8343 39.5212 41.8747H23.2298C22.4645 35.9883 17.6037 31.5843 11.5367 31.5843C8.83127 31.5843 6.40248 32.4681 4.48623 33.9873C6.06911 31.0241 9.1898 29.003 12.7742 29.003H20.6258L22.6517 35.8575C23.0712 37.2779 24.3976 38.2698 25.877 38.2698ZM3.514 41.8747C3.80034 40.1293 4.54595 38.5548 5.68619 37.3348C7.17445 35.7425 9.25214 34.8655 11.5364 34.8655C15.7629 34.8655 19.1773 37.8357 19.9103 41.8746H3.514V41.8747ZM5.03847 25.7217C4.06733 25.7217 3.2772 24.9306 3.2772 23.9582C3.2772 22.9857 4.06733 22.1946 5.03847 22.1946H19.8027C21.6942 22.1946 23.233 23.7353 23.233 25.6291C23.219 25.6966 23.1109 25.7412 22.9098 25.7215C21.5465 25.7215 21.9363 25.7215 21.6523 25.7215C19.6944 25.7217 5.04798 25.7217 5.03847 25.7217ZM11.318 48.5651C9.1105 48.5651 7.231 47.1373 6.54916 45.1559H16.0869C15.405 47.1373 13.5255 48.5651 11.318 48.5651ZM47.6792 48.5651C44.8981 48.5651 42.6356 46.2998 42.6356 43.5153C42.6356 40.7308 44.8982 38.4656 47.6792 38.4656C50.4603 38.4656 52.7228 40.7308 52.7228 43.5153C52.7228 46.2998 50.4602 48.5651 47.6792 48.5651Z" fill="#123060"/>
<path d="M47.6792 45.1668C48.5902 45.1668 49.3287 44.4274 49.3287 43.5154C49.3287 42.6033 48.5902 41.8639 47.6792 41.8639C46.7682 41.8639 46.0297 42.6033 46.0297 43.5154C46.0297 44.4274 46.7682 45.1668 47.6792 45.1668Z" fill="#123060"/>
<path d="M1.70734 14.1578H16.4038C17.3088 14.1578 18.0425 13.4233 18.0425 12.5172C18.0425 11.6111 17.3088 10.8766 16.4038 10.8766H1.70734C0.802375 10.8766 0.0686874 11.6111 0.0686874 12.5172C0.0686874 13.4233 0.802375 14.1578 1.70734 14.1578Z" fill="#123060"/>
<path d="M7.15115 7.43488H21.9743C22.8793 7.43488 23.613 6.70031 23.613 5.79425C23.613 4.88819 22.8793 4.15363 21.9743 4.15363H7.15115C6.24619 4.15363 5.5125 4.88819 5.5125 5.79425C5.5125 6.70031 6.24619 7.43488 7.15115 7.43488Z" fill="#123060"/>
</svg>
