<svg xmlns="http://www.w3.org/2000/svg" viewBox="0 0 51.96 52.9"><defs><style>.cls-1{fill:#022569;}.cls-2{fill:#123060;}</style></defs><g id="Layer_2" data-name="Layer 2"><g id="Layer_1-2" data-name="Layer 1"><path class="cls-1" d="M34.72,23.74,26.66,40.15l.36.18,8.06-16.42ZM26,24H34.9v-.4H26Zm-.75-.32A1.07,1.07,0,0,0,26,24v-.4a.71.71,0,0,1-.47-.2ZM24.92,23a1.08,1.08,0,0,0,.31.76l.28-.28a.71.71,0,0,1-.19-.48Zm0-10.29V23h.4V12.66Zm-7.68,16.5L25.3,12.75l-.36-.18L16.88,29ZM26,28.88H17.06v.4H26Zm.75.31a1.06,1.06,0,0,0-.75-.31v.4a.66.66,0,0,1,.46.19ZM27,30a1.08,1.08,0,0,0-.31-.76l-.29.28a.67.67,0,0,1,.2.48Zm0,10.29V30h-.4V40.24ZM37.35,22.9a1.09,1.09,0,0,0-.16-.52l-.34.21a.75.75,0,0,1,.1.33Zm-.11.53a1.05,1.05,0,0,0,.11-.53l-.4,0a.72.72,0,0,1-.07.33Zm-10.32,21,10.32-21-.36-.17-10.32,21Zm-.38.43a1,1,0,0,0,.38-.43l-.35-.17a.72.72,0,0,1-.25.27ZM26,45a1.11,1.11,0,0,0,.56-.17l-.22-.33a.79.79,0,0,1-.34.1Zm-.25,0L26,45v-.4l-.15,0Zm-.58-.38a1,1,0,0,0,.59.38l.09-.39a.67.67,0,0,1-.37-.23ZM24.92,44a1,1,0,0,0,.23.66l.31-.24a.71.71,0,0,1-.14-.42Zm0-13.12V44h.4V30.83Zm-9.25.2h9.45v-.4H15.67Zm-.52-.14a1.19,1.19,0,0,0,.52.14v-.4a.73.73,0,0,1-.32-.09Zm-.38-.38a1,1,0,0,0,.38.38l.2-.35a.69.69,0,0,1-.24-.24ZM14.61,30a1.06,1.06,0,0,0,.16.52l.34-.21A.71.71,0,0,1,15,30Zm.11-.52a1,1,0,0,0-.11.52H15a.8.8,0,0,1,.07-.34ZM25,8.47l-10.32,21,.36.17,10.31-21ZM25.53,8a1,1,0,0,0-.49.49l.35.18a.67.67,0,0,1,.31-.31Zm.7-.07a1.05,1.05,0,0,0-.7.07l.17.36a.64.64,0,0,1,.43,0Zm.58.38a1.08,1.08,0,0,0-.58-.38l-.1.39a.66.66,0,0,1,.36.23ZM27,9a1.06,1.06,0,0,0-.23-.66l-.32.24a.66.66,0,0,1,.15.42Zm0,13.13V9h-.4V22.08Zm9.25-.2H26.84v.4h9.45Zm.52.13a1,1,0,0,0-.52-.13v.4a.53.53,0,0,1,.32.08Zm.38.37a1.12,1.12,0,0,0-.38-.37l-.2.35a.59.59,0,0,1,.24.23ZM34.9,23.83l.18.08.14-.28H34.9ZM25.12,12.66h.2l-.38-.09ZM17.06,29.08,16.88,29l-.14.29h.32Zm9.78,11.16h-.2l.38.09Zm10.22-16.9-.18-.09h0Zm-10.32,21,.18.09h0Zm-.76.49V45h0Zm-.2,0,0-.19h0ZM25.12,44h0Zm0-13.12h.2v-.2h-.2Zm-9.45,0V31h0Zm-.77-1.27.18.08h0Zm10.31-21L25,8.47h0ZM26.84,9h0Zm0,13.13h-.2v.2h.2Zm9.45,0v.2h0Z"/><path class="cls-2" d="M26.84,40.24V30a.9.9,0,0,0-.25-.62.86.86,0,0,0-.61-.25H17.06l8.06-16.42V23a.9.9,0,0,0,.25.62.87.87,0,0,0,.61.26H34.9ZM37,22.49a.92.92,0,0,0-.31-.31.77.77,0,0,0-.42-.1H26.84V9a.87.87,0,0,0-.19-.54.85.85,0,0,0-1.44.15l-10.31,21a1,1,0,0,0-.09.43.9.9,0,0,0,.13.42.81.81,0,0,0,.31.3.89.89,0,0,0,.42.12h9.45V44a.87.87,0,0,0,.19.54.83.83,0,0,0,.47.31l.2,0a.91.91,0,0,0,.45-.14.81.81,0,0,0,.31-.35l10.32-21a1,1,0,0,0,.09-.43A.86.86,0,0,0,37,22.49Z"/><path d="M46,8.51a2.46,2.46,0,0,1-.7,1.72l.29.28a2.85,2.85,0,0,0,.81-2Zm-.7-1.72A2.43,2.43,0,0,1,46,8.51h.4a2.85,2.85,0,0,0-.81-2ZM43.46,4.93l1.82,1.86.29-.28L43.75,4.65ZM40.09,8.64l3.66-3.71-.29-.28L39.81,8.36Zm1.83,1.59L40.09,8.36l-.28.28,1.82,1.87Zm1.68.7a2.37,2.37,0,0,1-1.68-.7l-.29.28a2.81,2.81,0,0,0,2,.82Zm1.68-.7a2.37,2.37,0,0,1-1.68.7v.4a2.81,2.81,0,0,0,2-.82ZM52,26.45a26.54,26.54,0,0,0-4.84-15.36l-.33.23a26.1,26.1,0,0,1,4.77,15.13ZM48.9,38.89A26.89,26.89,0,0,0,52,26.45h-.4a26.41,26.41,0,0,1-3,12.26Zm-8.45,9.52a26.35,26.35,0,0,0,8.45-9.52l-.36-.18a25.8,25.8,0,0,1-8.32,9.37ZM28.6,52.76a25.69,25.69,0,0,0,11.85-4.35l-.23-.33a25.37,25.37,0,0,1-11.67,4.29ZM16.12,50.93A25.51,25.51,0,0,0,28.6,52.76l-.05-.39a25.15,25.15,0,0,1-12.27-1.81Zm.55-1.87L16,50.67l.37.15L17,49.2Zm11.71,1.56A23.5,23.5,0,0,1,16.93,49l-.15.36A23.79,23.79,0,0,0,28.42,51Zm10.89-4a23.51,23.51,0,0,1-10.89,4l0,.4A24,24,0,0,0,39.49,47ZM47,37.88a24.2,24.2,0,0,1-7.76,8.74l.22.33a24.45,24.45,0,0,0,7.89-8.88Zm2.81-11.43A24.67,24.67,0,0,1,47,37.88l.35.19a25.12,25.12,0,0,0,2.86-11.62Zm-4.37-14a24.33,24.33,0,0,1,4.37,14h.4A24.8,24.8,0,0,0,45.8,12.22ZM43,13a4.35,4.35,0,0,0,2.78-.52l-.2-.35a4,4,0,0,1-2.53.48Zm-2.53-1.29A4.41,4.41,0,0,0,43,13l0-.39a4,4,0,0,1-2.29-1.18ZM38,9.27l2.43,2.47.28-.28L38.27,9Zm-.31-.76a1.06,1.06,0,0,0,.31.75L38.27,9a.71.71,0,0,1-.19-.48ZM38,7.75a1.08,1.08,0,0,0-.31.76h.4A.71.71,0,0,1,38.27,8Zm.61-.62L38,7.75l.28.28.61-.62Zm-2.43-2.2L38.6,7.41l.28-.28L36.45,4.65Zm1.21-1.51L36.17,4.65l.28.28L37.66,3.7ZM40.09,5.9,37.66,3.42l-.28.28,2.43,2.48ZM41,4.65,39.81,5.9l.28.28,1.22-1.25ZM38.6,2.46,41,4.93l.28-.28L38.88,2.18ZM39.81.94,38.6,2.18l.28.28,1.21-1.24Zm2.72,2.48L40.09.94l-.28.28L42.24,3.7Zm.32-.62-.61.62.29.28.61-.62Zm.75-.31a1.11,1.11,0,0,0-.75.3l.28.29a.7.7,0,0,1,.47-.19Zm.74.3a1.07,1.07,0,0,0-.74-.3v.4a.7.7,0,0,1,.47.19Zm2.44,2.48L44.35,2.8l-.29.28,2.43,2.48Zm1.3,3a4.55,4.55,0,0,0-1.3-3l-.29.27a4.24,4.24,0,0,1,1.19,2.71Zm-1,3.09a4.6,4.6,0,0,0,1-3.09l-.4,0a4.24,4.24,0,0,1-.88,2.82ZM45.43,6.65l.14-.14h0ZM43.6,4.79l.15-.14-.15-.14-.14.14ZM40,8.5l-.14-.14-.14.14.14.14Zm1.82,1.87-.14.14h0Zm10,16.08h0ZM16.2,50.75,16,50.67l-.08.19.18.07Zm.65-1.62.08-.18-.19-.08-.07.19ZM50,26.45h0ZM45.63,12.34l.17-.12-.11-.15-.16.09Zm-5.07-.74.15-.14h0ZM38.13,9.13,38,9.26h0Zm0-1.24L38,7.75h0Zm.61-.62.14.14L39,7.27l-.14-.14ZM36.31,4.79l-.14-.14L36,4.79l.14.14Zm1.21-1.23.14-.14-.14-.15-.14.15ZM40,6l-.14.14.14.14.14-.14Zm1.22-1.25.14.14.14-.14-.14-.14ZM38.74,2.32l-.14-.14-.14.14.14.14ZM40,1.08l.14-.14L40,.8l-.14.14Zm2.43,2.48-.14.14.14.15.15-.15ZM43,2.94l-.14-.15h0Zm.61-.25v0Zm.61.25.14-.14h0Zm2.43,2.48.14-.14h0Z"/><path class="cls-2" d="M45.43,10.37a2.58,2.58,0,0,1-3.66,0L40,8.5,43.6,4.79l1.83,1.86a2.68,2.68,0,0,1,0,3.72Zm1.53.84a4.43,4.43,0,0,0,.92-3,4.38,4.38,0,0,0-1.24-2.83L44.21,2.94a.87.87,0,0,0-1.22,0l-.61.62L40,1.08,38.74,2.32l2.43,2.47L40,6,37.52,3.56,36.31,4.79l2.43,2.48-.61.62a.89.89,0,0,0,0,1.24l2.43,2.47a4.18,4.18,0,0,0,5.07.74A24.54,24.54,0,0,1,50,26.45,24.86,24.86,0,0,1,47.2,38a24.39,24.39,0,0,1-7.82,8.81,23.75,23.75,0,0,1-22.53,2.34l-.65,1.62a25.44,25.44,0,0,0,24.14-2.51,26.09,26.09,0,0,0,8.38-9.44,26.63,26.63,0,0,0,3-12.35A26.37,26.37,0,0,0,47,11.21Z"/><path class="cls-1" d="M6,44.39a2.46,2.46,0,0,1,.7-1.72l-.29-.28a2.85,2.85,0,0,0-.81,2Zm.7,1.72A2.43,2.43,0,0,1,6,44.39h-.4a2.85,2.85,0,0,0,.81,2ZM8.5,48,6.68,46.11l-.29.28,1.82,1.86Zm3.36-3.71L8.21,48l.29.28,3.65-3.71ZM10,42.67l1.82,1.87.29-.28-1.82-1.87ZM8.36,42a2.37,2.37,0,0,1,1.68.7l.29-.28a2.81,2.81,0,0,0-2-.82Zm-1.69.7A2.39,2.39,0,0,1,8.36,42v-.4a2.81,2.81,0,0,0-2,.82ZM35.84,2A25.52,25.52,0,0,0,26,0V.4a25.07,25.07,0,0,1,9.7,1.94Zm-.55,1.88.65-1.62-.37-.15L34.92,3.7ZM26,2.15A23.28,23.28,0,0,1,35,4l.15-.37A23.65,23.65,0,0,0,26,1.75ZM9.12,9.27A23.68,23.68,0,0,1,26,2.15v-.4A24.1,24.1,0,0,0,8.83,9Zm-7,17.18a24.57,24.57,0,0,1,7-17.18L8.83,9A25,25,0,0,0,1.72,26.45Zm4.37,14a24.26,24.26,0,0,1-4.37-14h-.4A24.72,24.72,0,0,0,6.16,40.68ZM9,39.88a4.41,4.41,0,0,0-2.78.51l.19.35A4.07,4.07,0,0,1,9,40.27Zm2.53,1.28A4.49,4.49,0,0,0,9,39.88L9,40.27a4.08,4.08,0,0,1,2.3,1.17ZM14,43.63l-2.43-2.47-.29.28,2.44,2.48Zm.31.76a1.06,1.06,0,0,0-.31-.75l-.28.27a.71.71,0,0,1,.19.48Zm-.31.76a1.08,1.08,0,0,0,.31-.76h-.4a.71.71,0,0,1-.19.48Zm-.61.62.61-.62-.28-.28-.61.62ZM15.79,48l-2.43-2.48-.28.28,2.43,2.48Zm-1.21,1.51,1.21-1.23L15.51,48,14.3,49.2ZM11.86,47l2.44,2.48.28-.28-2.43-2.48Zm-.93,1.25L12.15,47l-.29-.28L10.64,48Zm2.43,2.19L10.93,48l-.29.28,2.44,2.47ZM12.15,52l1.21-1.24-.28-.28-1.22,1.24ZM9.43,49.48,11.86,52l.29-.28L9.72,49.2Zm-.32.62.61-.62-.29-.28-.61.62Zm-.35.24a1.21,1.21,0,0,0,.35-.24l-.29-.28a.8.8,0,0,1-.21.15Zm-.41.08a1.15,1.15,0,0,0,.41-.08L8.61,50a.74.74,0,0,1-.25.05ZM8,50.33a1,1,0,0,0,.41.09V50A.64.64,0,0,1,8.11,50Zm-.34-.23a1,1,0,0,0,.34.23L8.11,50a.8.8,0,0,1-.21-.15ZM5.18,47.63,7.61,50.1l.29-.28L5.46,47.34Zm-1.3-3a4.55,4.55,0,0,0,1.3,3l.28-.27a4.28,4.28,0,0,1-1.18-2.71Zm1-3.09a4.6,4.6,0,0,0-1,3.09l.4,0a4.19,4.19,0,0,1,.88-2.82ZM0,26.45A26.47,26.47,0,0,0,4.84,41.81l.33-.23A26,26,0,0,1,.4,26.45ZM7.62,7.76A26.74,26.74,0,0,0,0,26.45H.4A26.34,26.34,0,0,1,7.9,8ZM26,0A25.78,25.78,0,0,0,7.62,7.76L7.9,8A25.37,25.37,0,0,1,26,.4ZM5.78,44.39h0Zm.75,1.86-.14.14h0Zm1.82,1.86-.14.14.14.14.15-.14ZM12,44.4l.14.14.14-.14-.14-.14Zm-1.82-1.87.14-.14h0ZM35.76,2.15l.18.08L36,2,35.84,2Zm-.65,1.63L35,4l.19.08.07-.19ZM26,2v.2h0ZM1.92,26.45h0ZM6.33,40.56l-.17.12.11.15.15-.09Zm5.07.74.14-.14h0Zm2.43,2.48.14-.14h0Zm.25.61h0Zm-.25.62.14.14h0Zm-.61.62-.14-.14-.14.14.14.14Zm2.43,2.48.14.14.14-.14L15.79,48Zm-1.21,1.23-.14.14.14.15.14-.15ZM12,46.86l.14-.14L12,46.58l-.15.14Zm-1.22,1.25L10.64,48l-.13.14.13.14Zm2.43,2.47.14.14.14-.14-.14-.14ZM12,51.82l-.15.14.15.14.14-.14ZM9.58,49.34l.14-.14-.14-.15-.15.15ZM9,50l-.15-.14h0Zm-.62.26V50h0ZM7.75,50l.15-.14h0ZM5.32,47.49l-.14.13h0ZM5,41.69l.16.13.09-.12-.08-.12ZM.2,26.45h0Z"/><path class="cls-2" d="M6.53,42.53a2.58,2.58,0,0,1,3.66,0L12,44.4,8.35,48.11,6.53,46.25a2.68,2.68,0,0,1,0-3.72ZM26,.2A25.58,25.58,0,0,0,7.76,7.9,26.56,26.56,0,0,0,5,41.69a4.44,4.44,0,0,0,.32,5.8L7.75,50a.88.88,0,0,0,.6.26,1,1,0,0,0,.34-.07A.87.87,0,0,0,9,50l.61-.62L12,51.82l1.21-1.24-2.43-2.47L12,46.86l2.43,2.48,1.21-1.23-2.43-2.48.61-.62a.9.9,0,0,0,.25-.62.86.86,0,0,0-.25-.61L11.4,41.3A4.26,4.26,0,0,0,9,40.08a4.15,4.15,0,0,0-2.65.48A24.47,24.47,0,0,1,1.92,26.45,24.78,24.78,0,0,1,9,9.13,23.9,23.9,0,0,1,26,2a23.33,23.33,0,0,1,9.13,1.83l.65-1.63A25.51,25.51,0,0,0,26,.2Z"/></g></g></svg>