<svg width="24" height="24" viewBox="0 0 24 24" fill="none" xmlns="http://www.w3.org/2000/svg">
<path d="M16.637 2.90833H20.1826C20.7349 2.90833 21.1826 3.35604 21.1826 3.90833V21.0001C21.1826 21.5524 20.7349 22.0001 20.1826 22.0001H4C3.44772 22.0001 3 21.5524 3 21.0001V3.90833C3 3.35604 3.44772 2.90833 4 2.90833H7.54566" stroke="#82858A" stroke-width="1.5" stroke-miterlimit="10" stroke-linecap="square"/>
<path d="M9.36401 14.7268L10.4752 15.838C10.8657 16.2285 11.4989 16.2285 11.8894 15.838L14.8188 12.9086" stroke="#82858A" stroke-width="1.5" stroke-miterlimit="10" stroke-linecap="square"/>
<path d="M8.54566 2C7.99337 2 7.54565 2.44772 7.54565 3V6.45479C7.54565 7.00707 7.99337 7.45479 8.54565 7.45479H9.27305C9.82533 7.45479 10.2518 6.97495 10.5408 6.50431C10.8605 5.98362 11.4352 5.63653 12.0913 5.63653C12.7474 5.63653 13.3221 5.98362 13.6419 6.50431C13.9309 6.97494 14.3573 7.45479 14.9096 7.45479H15.637C16.1893 7.45479 16.637 7.00707 16.637 6.45479V3C16.637 2.44772 16.1893 2 15.637 2H8.54566Z" stroke="#82858A" stroke-width="1.5" stroke-miterlimit="10" stroke-linecap="square"/>
</svg>
