<svg width="64" height="71" viewBox="0 0 64 71" fill="none" xmlns="http://www.w3.org/2000/svg">
<g clip-path="url(#clip0_784_2134)">
<path d="M40.1438 10.9431C35.6068 10.9431 31.5153 12.8514 28.6251 15.9097C25.7348 12.8514 21.6433 10.9431 17.1063 10.9431C8.34914 10.9431 1.25 18.0512 1.25 26.8196C1.25 39.1018 28.6251 59.533 28.6251 59.533C28.6251 59.533 56.0001 39.1019 56.0001 26.8196C56.0001 18.0512 48.901 10.9431 40.1438 10.9431Z" fill="#FE7C7A"/>
<path d="M53.0001 43.9359C58.3849 43.9359 62.7501 39.6746 62.7501 34.418C62.7501 29.1614 58.3849 24.9001 53.0001 24.9001C47.6153 24.9001 43.2501 29.1614 43.2501 34.418C43.2501 39.6746 47.6153 43.9359 53.0001 43.9359Z" fill="#FEBE07"/>
<path d="M42.3575 46.0079L42.322 46.0433C41.8388 46.5247 41.847 47.2972 42.3401 47.7689C42.5833 48.0016 42.8992 48.1176 43.2148 48.1176C43.539 48.1176 43.863 47.9952 44.1078 47.7514L44.1433 47.716C44.6265 47.2346 44.6183 46.4621 44.1252 45.9903C43.6321 45.5187 42.8407 45.5266 42.3575 46.0079Z" fill="#353535"/>
<path d="M57.5719 33.1974H54.2501V29.9547C54.2501 29.2808 53.6905 28.7345 53.0001 28.7345C52.3097 28.7345 51.7501 29.2808 51.7501 29.9547V33.1974H48.4283C47.738 33.1974 47.1783 33.7437 47.1783 34.4176C47.1783 35.0916 47.738 35.6379 48.4283 35.6379H51.7501V38.8806C51.7501 39.5545 52.3097 40.1008 53.0001 40.1008C53.6905 40.1008 54.2501 39.5545 54.2501 38.8806V35.6379H57.5719C58.2622 35.6379 58.8219 35.0916 58.8219 34.4176C58.8219 33.7437 58.2622 33.1974 57.5719 33.1974Z" fill="#353535"/>
<path d="M57.0869 24.4484C55.9194 16.0251 48.7058 9.72278 40.1437 9.72278C35.8216 9.72278 31.7784 11.2955 28.6251 14.1784C25.4716 11.2955 21.4284 9.72278 17.1064 9.72278C7.67389 9.72278 0 17.3924 0 26.8196C0 28.6821 0.556626 30.7699 1.664 33.0744H1.25C0.559626 33.0744 0 33.6207 0 34.2946C0 34.9686 0.559626 35.5149 1.25 35.5149H2.99526C5.32989 39.3733 9.02189 43.7609 14.0562 48.6475C20.8787 55.2698 27.7967 60.4509 27.8658 60.5025C28.0898 60.6698 28.3574 60.7534 28.6251 60.7534C28.8927 60.7534 29.1602 60.6698 29.3843 60.5025C29.4371 60.4631 34.7281 56.5024 40.5916 51.1058C41.094 50.6434 41.1172 49.8711 40.6436 49.3808C40.1701 48.8906 39.379 48.8677 38.8766 49.3301C34.4048 53.4458 30.2764 56.7091 28.6252 57.984C26.6629 56.4685 21.2002 52.1424 15.801 46.8996C11.4785 42.7021 8.16952 38.8769 5.93239 35.5149H17.1232C17.6808 35.5149 18.1709 35.1543 18.3247 34.6312L20.5087 27.1997L26.5567 46.1156C26.7197 46.6252 27.2031 46.9723 27.7499 46.9723C28.2968 46.9723 28.7802 46.6252 28.9431 46.1156L32.2924 35.637H37.873C38.5633 35.637 39.123 35.0907 39.123 34.4168C39.123 33.7428 38.5633 33.1965 37.873 33.1965H31.3731C30.8262 33.1965 30.3427 33.5436 30.1798 34.0533L27.7496 41.656L21.6513 22.5829C21.4868 22.0683 20.997 21.7188 20.4435 21.7263C19.8914 21.7325 19.4088 22.0917 19.2564 22.61L16.181 33.0745H4.45301C3.16088 30.6931 2.50001 28.5942 2.50001 26.8196C2.50001 18.738 9.05239 12.1633 17.1064 12.1633C21.1544 12.1633 24.9189 13.7876 27.7063 16.737C27.9431 16.9874 28.2761 17.1298 28.6251 17.1298C28.9741 17.1298 29.3072 16.9874 29.5438 16.737C32.3312 13.7876 36.0957 12.1633 40.1437 12.1633C47.1071 12.1633 53.0272 17.0655 54.4344 23.7708C53.9647 23.7109 53.4861 23.6795 53 23.6795C46.9346 23.6795 42 28.4967 42 34.4176C42 40.3386 46.9346 45.1558 53 45.1558C59.0654 45.1558 64 40.3386 64 34.4176C64.0001 29.9057 61.1345 26.0353 57.0869 24.4484ZM53.0001 42.7153C48.3132 42.7153 44.5001 38.9929 44.5001 34.4176C44.5001 29.8424 48.3132 26.12 53.0001 26.12C57.687 26.12 61.5001 29.8424 61.5001 34.4176C61.5001 38.9929 57.687 42.7153 53.0001 42.7153Z" fill="#353535"/>
</g>
<defs>
<clipPath id="clip0_784_2134">
<rect width="64" height="70" fill="white" transform="translate(0 0.499817)"/>
</clipPath>
</defs>
</svg>
