<svg width="64" height="71" viewBox="0 0 64 71" fill="none" xmlns="http://www.w3.org/2000/svg">
<path d="M30.2252 24.4368L34.0141 22.4634L35.7582 22.0688L40.2688 24.4368L42.7345 28.6467L44.8996 33.7117L45.6814 37.8558L43.3961 37.0007C42.2334 36.8472 39.8478 36.5402 39.6072 36.5402H34.9162C34.6275 36.5402 34.1945 36.8472 34.0141 37.0007H30.5861L26.4363 37.8558H24.4517L25.0531 36.5402L25.0531 35.4878L25.5342 33.7117L26.0153 31.6068L27.0979 28.6467L30.2252 24.4368Z" fill="#5AA2FF"/>
<path d="M24.8352 24.4292L32.8425 22.7193L31.1267 24.4292L29.2583 26.0557C28.7245 26.723 27.6263 28.1242 27.5043 28.3912C27.3823 28.6581 26.4112 30.0037 25.941 30.6432C25.6995 31.8527 25.2012 34.405 25.1402 34.9388L24.8352 37.6079C24.1616 37.4133 22.7685 36.974 22.5855 36.7738C22.4025 36.5737 21.0603 36.6904 20.4121 36.7738H17.3236L15.684 37.6079L15.3027 36.7738L15.684 34.6886L16.4084 32.228L18.5056 29.4338L20.984 27.0149L24.8352 24.4292Z" fill="#2B67B3"/>
<path d="M44.9188 24.4292L36.9115 22.7193L38.6274 24.4292L40.4957 26.0557C41.0296 26.723 42.1277 28.1242 42.2497 28.3912C42.3717 28.6581 43.3428 30.0037 43.8131 30.6432C44.0546 31.8527 44.5528 34.405 44.6138 34.9388L44.9188 37.6079C45.5925 37.4133 46.9855 36.974 47.1685 36.7738C47.3516 36.5737 48.6937 36.6904 49.3419 36.7738H52.4305L54.0701 37.6079L54.4514 36.7738L54.0701 34.6886L53.3456 32.228L51.2485 29.4338L48.77 27.0149L44.9188 24.4292Z" fill="#2B67B3"/>
<path d="M31.4879 5.03187L34.2483 3.59412L35.519 3.30658L38.8053 5.03187L40.6018 8.09906L42.1792 11.7893L42.7488 14.8085L41.0838 14.1855C40.2366 14.0737 38.4986 13.85 38.3233 13.85H34.9056C34.6953 13.85 34.3798 14.0737 34.2483 14.1855H31.7508L28.7274 14.8085H27.2814L27.7196 13.85L27.7196 13.0832L28.0701 11.7893L28.4207 10.2557L29.2094 8.09906L31.4879 5.03187Z" fill="#FDE192"/>
<path d="M27.5608 5.02625L33.3948 3.78046L32.1446 5.02625L30.7834 6.21125C30.3945 6.69741 29.5944 7.71834 29.5055 7.91281C29.4166 8.10727 28.7091 9.08769 28.3665 9.55359C28.1905 10.4348 27.8275 12.2943 27.7831 12.6832L27.5608 14.6279C27.0701 14.4861 26.0551 14.166 25.9218 14.0202C25.7884 13.8743 24.8106 13.9594 24.3383 14.0202H22.0881L20.8935 14.6279L20.6157 14.0202L20.8935 12.5009L21.4213 10.7082L22.9493 8.67243L24.755 6.9101L27.5608 5.02625Z" fill="#FEBE07"/>
<path d="M42.1932 5.02625L36.3593 3.78046L37.6094 5.02625L38.9707 6.21125C39.3596 6.69741 40.1597 7.71834 40.2486 7.91281C40.3375 8.10727 41.0449 9.08769 41.3876 9.55359C41.5635 10.4348 41.9265 12.2943 41.971 12.6832L42.1932 14.6279C42.684 14.4861 43.6989 14.166 43.8322 14.0202C43.9656 13.8743 44.9435 13.9594 45.4157 14.0202H47.666L48.8605 14.6279L49.1383 14.0202L48.8605 12.5009L48.3327 10.7082L46.8048 8.67243L44.999 6.9101L42.1932 5.02625Z" fill="#FEBE07"/>
<path d="M15 39.9054C15.1299 39.9094 15.2593 39.8848 15.3804 39.8332C15.5015 39.7815 15.612 39.7039 15.7052 39.6048C15.7984 39.5057 15.8725 39.3871 15.9232 39.2562C15.9738 39.1252 15.9999 38.9845 16 38.8423C16.126 38.5131 17.519 37.6873 20 37.6873C22.481 37.6873 23.874 38.5131 24 38.7811C23.9981 39.0397 24.0807 39.2906 24.2328 39.4886C24.385 39.6866 24.5967 39.8187 24.83 39.8611C25.0632 39.9036 25.3027 39.8536 25.5053 39.7202C25.7078 39.5867 25.8602 39.3786 25.935 39.1333C25.9493 39.1125 25.9602 39.0892 25.967 39.0643C26.55 38.5962 29.351 37.7967 34 37.6983V45.3436H36V37.6983C40.649 37.8 43.45 38.5962 44.034 39.0643C44.0409 39.0892 44.0517 39.1125 44.066 39.1333C44.1384 39.3727 44.2852 39.5769 44.4809 39.7103C44.6766 39.8438 44.9089 39.8981 45.1373 39.8637C45.3658 39.8294 45.5761 39.7087 45.7316 39.5225C45.8872 39.3364 45.9783 39.0965 45.989 38.8445C46.126 38.5131 47.519 37.6873 50 37.6873C52.481 37.6873 53.874 38.5131 54 38.7811C54 39.0711 54.1054 39.3493 54.2929 39.5545C54.4804 39.7596 54.7348 39.8748 55 39.8748C55.2652 39.8748 55.5196 39.7596 55.7071 39.5545C55.8947 39.3493 56 39.0711 56 38.7811C56 29.132 46.58 21.2811 35 21.2811C23.42 21.2811 14 29.132 14 38.7811C13.9981 39.0746 14.102 39.3572 14.2891 39.5676C14.4763 39.778 14.7317 39.8994 15 39.9054ZM53.7 36.1298C52.5074 35.6957 51.2568 35.4828 50 35.4998C48.5899 35.4718 47.1889 35.7518 45.879 36.3234C45.6042 31.8457 43.9364 27.6058 41.153 24.3086C47.607 26.0936 52.49 30.6031 53.7 36.1298ZM35 23.4686C39.54 23.4686 43.3 29.2228 43.9 36.6658C41.3412 35.8157 38.673 35.4267 36 35.514V35.4998H34V35.514C31.327 35.4267 28.6588 35.8157 26.1 36.6658C26.7 29.2228 30.46 23.4686 35 23.4686ZM28.848 24.3086C26.0646 27.6058 24.3968 31.8457 24.122 36.3234C22.8118 35.7516 21.4104 35.4716 20 35.4998C18.7449 35.4833 17.496 35.6963 16.305 36.1298C17.509 30.6031 22.393 26.0936 28.848 24.3086Z" fill="#353535"/>
<path d="M20 17.1795C20.2157 17.1779 20.4249 17.0991 20.5958 16.9551C20.7666 16.8111 20.8896 16.6099 20.946 16.3822C20.9721 16.3362 20.9879 16.2841 20.992 16.2301C21.8267 15.7011 22.788 15.4601 23.75 15.5389C24.7123 15.4601 25.674 15.701 26.509 16.2301L26.529 16.2411C26.5562 16.48 26.6556 16.7021 26.8116 16.872C26.9675 17.0419 27.1709 17.1499 27.3895 17.1787C27.608 17.2075 27.8291 17.1555 28.0175 17.031C28.2058 16.9064 28.3507 16.7165 28.429 16.4915C28.429 16.4861 28.435 16.485 28.437 16.4784C30.2257 15.8087 32.1102 15.4971 34 15.5586V19.0936H36V15.5586C37.8911 15.4966 39.777 15.8082 41.567 16.4784C41.567 16.485 41.573 16.4861 41.575 16.4915C41.6533 16.7165 41.7982 16.9064 41.9865 17.031C42.1749 17.1555 42.396 17.2075 42.6145 17.1787C42.8331 17.1499 43.0365 17.0419 43.1924 16.872C43.3484 16.7021 43.4478 16.48 43.475 16.2411L43.495 16.2301C44.3297 15.7011 45.291 15.4601 46.253 15.5389C47.2153 15.4601 48.177 15.701 49.012 16.2301C49.0161 16.2841 49.0319 16.3362 49.058 16.3822C49.1151 16.6189 49.2447 16.827 49.4252 16.9716C49.6057 17.1163 49.8262 17.1889 50.0497 17.1771C50.2733 17.1653 50.4864 17.0699 50.6533 16.9069C50.8203 16.7439 50.931 16.5231 50.967 16.2815C50.9936 16.2206 51.0049 16.1531 51 16.0858C51 8.70294 43.822 2.68732 35 2.68732C26.178 2.68732 19 8.70294 19 16.0858C18.9962 16.1535 19.009 16.221 19.037 16.2815C19.0757 16.531 19.1934 16.7576 19.3694 16.9218C19.5455 17.0859 19.7687 17.1772 20 17.1795ZM48.673 13.6959C47.8832 13.4626 47.0682 13.3467 46.25 13.3514C45.2715 13.3402 44.2986 13.5138 43.374 13.8643C43.1143 10.8959 42.074 8.07337 40.379 5.73779C44.544 7.13122 47.69 10.0931 48.672 13.6959H48.673ZM35 4.87482C38.191 4.87482 40.846 8.86372 41.392 14.0995C39.3005 13.5447 37.1514 13.2932 35 13.3514C32.8489 13.2933 30.7001 13.5448 28.609 14.0995C29.154 8.86372 31.809 4.87482 35 4.87482ZM29.622 5.73779C27.927 8.07337 26.8867 10.8959 26.627 13.8643C25.7021 13.5137 24.7288 13.3402 23.75 13.3514C22.9322 13.3467 22.1175 13.4626 21.328 13.6959C22.309 10.0931 25.455 7.13122 29.621 5.73779H29.622Z" fill="#353535"/>
<rect width="7.40641" height="23.6077" transform="matrix(0.977539 -0.210755 0.177364 0.984145 2.59195 43.4176)" fill="#2B67B3"/>
<path d="M60.706 45.3895C60.2305 44.5273 59.4802 43.888 58.5996 43.5946C57.7189 43.3012 56.7702 43.3745 55.936 43.8003L48.567 47.5737C48.5282 47.4286 48.4759 47.2882 48.411 47.1548C47.8648 46.0322 46.9448 45.1822 45.8416 44.7807C44.7384 44.3793 43.5363 44.457 42.484 44.9979L34.272 49.2154C33.6977 49.5112 33.0665 49.6506 32.4323 49.6216C31.7981 49.5927 31.1797 49.3963 30.63 49.0492L25.238 45.6476C23.3517 44.4564 21.201 43.8588 19.0236 43.921C16.8462 43.9831 14.7269 44.7026 12.9 45.9998L10.832 47.4643L13.3 62.6598L17.778 61.7848C18.6609 61.6111 19.5646 61.6063 20.449 61.7706L32.885 63.7393C35.2209 64.1696 37.62 63.6515 39.631 62.2824L60.058 48.406C60.5062 48.0967 60.8253 47.6071 60.9466 47.0428C61.0678 46.4785 60.9814 45.8847 60.706 45.3895Z" fill="#CBE6FE"/>
<path d="M6.42267 46.1741L8.3932 45.8L8.73495 47.9531L6.76442 48.3273L6.42267 46.1741Z" fill="#CBE6FE"/>
<path d="M61.559 44.7967C60.9545 43.7021 60.0012 42.8909 58.8825 42.5191C57.7639 42.1473 56.559 42.2414 55.5 42.7831L48.975 46.1234C48.2447 44.9159 47.1422 44.0354 45.8683 43.6422C44.5944 43.2489 43.2337 43.3691 42.034 43.9808L33.814 48.2048C33.3856 48.424 32.9153 48.5269 32.4428 48.5048C31.9703 48.4827 31.5097 48.3363 31.1 48.078L25.7 44.672C23.6563 43.3771 21.3246 42.7267 18.9635 42.7929C16.6025 42.8591 14.3043 43.6394 12.324 45.0472L11.806 41.7834C11.7835 41.6413 11.7356 41.5054 11.665 41.3837C11.5943 41.2619 11.5023 41.1566 11.3943 41.0738C11.2864 40.9911 11.1645 40.9325 11.0357 40.9015C10.9069 40.8705 10.7738 40.8676 10.644 40.8931L2.824 42.4244C2.56353 42.4751 2.33204 42.6366 2.18022 42.8736C2.02841 43.1105 1.96864 43.4037 2.014 43.6887L5.779 67.4045C5.80159 67.5468 5.84971 67.6828 5.9206 67.8046C5.99148 67.9265 6.08372 68.0317 6.192 68.1144C6.35024 68.2361 6.53761 68.3046 6.731 68.3112C6.80167 68.3145 6.87246 68.309 6.942 68.2948L14.762 66.7636C15.0227 66.7129 15.2543 66.5512 15.4062 66.314C15.558 66.0768 15.6177 65.7834 15.572 65.4981L15.235 63.3773L17.908 62.8545C18.6861 62.7016 19.4827 62.6979 20.262 62.8436L32.687 64.8123C35.2661 65.2884 37.9153 64.717 40.136 63.2056L60.586 49.3139C61.2578 48.8513 61.7364 48.1184 61.9184 47.2733C62.1005 46.4282 61.9714 45.5386 61.559 44.7967ZM7.58 65.9455L4.158 44.3909L10.007 43.2458L13.429 64.8003L7.58 65.9455ZM59.529 47.4545L39.079 61.3452C37.2664 62.5778 35.1046 63.0438 33 62.6555L20.575 60.6867C19.5758 60.5009 18.5546 60.5061 17.557 60.702L14.894 61.2237L12.7 47.3944L13.4 46.8989C15.0714 45.7063 17.0126 45.0442 19.0076 44.9862C21.0025 44.9283 22.9731 45.4768 24.7 46.5708L30.1 49.9756C30.7902 50.411 31.5665 50.6573 32.3626 50.6937C33.1586 50.7301 33.951 50.5554 34.672 50.1845L42.892 45.9605C43.7138 45.5409 44.6514 45.482 45.5118 45.7957C46.3721 46.1095 47.0898 46.772 47.517 47.647C47.6427 47.9032 47.6712 48.2031 47.5963 48.4821C47.5215 48.761 47.3493 48.9965 47.117 49.1378L35.748 55.9387C33.7621 57.1355 31.4308 57.4489 29.239 56.8137L19.282 53.8026L18.749 55.9136L28.715 58.9269C31.4059 59.7095 34.269 59.3276 36.709 57.8605L48.073 51.0617C48.5381 50.7801 48.9264 50.3684 49.1982 49.8687C49.4701 49.3691 49.6156 48.7994 49.62 48.218L56.353 44.7705C56.9658 44.4592 57.6621 44.4066 58.3081 44.6228C58.9542 44.8391 59.5044 45.3088 59.853 45.9419C59.9873 46.1912 60.0286 46.4875 59.9683 46.7692C59.9079 47.051 59.7506 47.2964 59.529 47.4545Z" fill="#353535"/>
</svg>
