<svg width="24" height="24" viewBox="0 0 24 24" fill="none" xmlns="http://www.w3.org/2000/svg">
<path d="M3.81818 6.63636C4.82234 6.63636 5.63636 5.82234 5.63636 4.81818C5.63636 3.81403 4.82234 3 3.81818 3C2.81403 3 2 3.81403 2 4.81818C2 5.82234 2.81403 6.63636 3.81818 6.63636Z" stroke="#82858A" stroke-width="1.5" stroke-miterlimit="10" stroke-linecap="round" stroke-linejoin="round"/>
<path d="M3.81818 13.9091C4.82234 13.9091 5.63636 13.095 5.63636 12.0909C5.63636 11.0867 4.82234 10.2727 3.81818 10.2727C2.81403 10.2727 2 11.0867 2 12.0909C2 13.095 2.81403 13.9091 3.81818 13.9091Z" stroke="#82858A" stroke-width="1.5" stroke-miterlimit="10" stroke-linecap="round" stroke-linejoin="round"/>
<path d="M3.81818 21.1818C4.82234 21.1818 5.63636 20.3677 5.63636 19.3636C5.63636 18.3594 4.82234 17.5454 3.81818 17.5454C2.81403 17.5454 2 18.3594 2 19.3636C2 20.3677 2.81403 21.1818 3.81818 21.1818Z" stroke="#82858A" stroke-width="1.5" stroke-miterlimit="10" stroke-linecap="round" stroke-linejoin="round"/>
<path d="M9.27271 4.81824H22" stroke="#82858A" stroke-width="2" stroke-miterlimit="10" stroke-linecap="round" stroke-linejoin="round"/>
<path d="M9.27271 12.0909H22" stroke="#82858A" stroke-width="2" stroke-miterlimit="10" stroke-linecap="round" stroke-linejoin="round"/>
<path d="M9.27271 19.3636H22" stroke="#82858A" stroke-width="2" stroke-miterlimit="10" stroke-linecap="round" stroke-linejoin="round"/>
</svg>
