<svg width="148" height="47" viewBox="0 0 148 47" fill="none" xmlns="http://www.w3.org/2000/svg">
<path d="M28.2287 21.6294H14.8281V8.94798H28.6422C36.2766 8.94798 36.0622 13.5136 36.2766 15.1856C35.8555 22.0493 28.2287 21.6294 28.2287 21.6294ZM31.7817 0.0610352C14.2538 0.0610352 0.600586 0.175558 0.600586 0.175558V47.0076H14.4146V30.5698L31.8506 30.3942C31.8506 30.3942 47.7858 30.5927 50.0753 17.0562C50.374 14.5214 51.0938 1.30551 31.7817 0.0610352Z" fill="#E5292D"/>
<path d="M59.3562 0.129848H75.0233L89.5725 33.7613L104.083 0.00769043H119.345L96.8011 47.0001H82.2213L59.3562 0.129848Z" fill="#E5292D"/>
<path d="M147.601 0H134.614V47H147.601V0Z" fill="#E5292D"/>
</svg>
