<svg width="25" height="24" viewBox="0 0 25 24" fill="none" xmlns="http://www.w3.org/2000/svg">
<path d="M22.5852 5.23778C22.5737 5.20287 22.5573 5.16979 22.5365 5.13957C22.5166 5.11252 22.4933 5.08819 22.4673 5.0672H22.4544C22.426 5.04665 22.395 5.03013 22.3621 5.01809H22.3416C22.3059 5.00661 22.2688 5.00052 22.2314 5H3.00059C2.96315 5.00052 2.926 5.00661 2.89033 5.01809H2.86982C2.83696 5.03013 2.8059 5.04665 2.77751 5.0672H2.76469C2.73859 5.08819 2.71532 5.11252 2.69546 5.13957C2.67465 5.16979 2.65824 5.20287 2.64674 5.23778C2.62661 5.26896 2.61106 5.30291 2.60059 5.33858V18.2617C2.60059 18.3645 2.64111 18.4631 2.71324 18.5358C2.78537 18.6085 2.88319 18.6494 2.9852 18.6494H22.216C22.318 18.6494 22.4158 18.6085 22.4879 18.5358C22.5601 18.4631 22.6006 18.3645 22.6006 18.2617V5.33858C22.5999 5.30445 22.5947 5.27055 22.5852 5.23778ZM20.9467 5.72628L12.6006 11.3349L4.25443 5.72628H20.9467ZM3.36982 17.874V6.06228L12.3878 12.1232C12.4508 12.1654 12.5249 12.188 12.6006 12.188C12.6763 12.188 12.7503 12.1654 12.8134 12.1232L21.8314 6.06228V17.874H3.36982Z" fill="white"/>
</svg>
