<svg width="100" height="100" viewBox="0 0 100 100" fill="none" xmlns="http://www.w3.org/2000/svg">
<path d="M66.0416 14.0146L66.9041 16.3188L67.7666 14.0146C68.1268 13.0523 68.6892 12.1786 69.4159 11.4522C70.1426 10.7259 71.0166 10.1639 71.9791 9.80417L74.2707 8.94167L71.9791 8.07917C71.0173 7.71848 70.1441 7.15586 69.4182 6.4292C68.6922 5.70255 68.1305 4.82875 67.7707 3.86667L66.9082 1.5625L66.0416 3.86667C65.6818 4.82875 65.1201 5.70255 64.3941 6.4292C63.6682 7.15586 62.7949 7.71848 61.8332 8.07917L59.5291 8.94167L61.8332 9.80417C62.7949 10.1644 63.6681 10.7266 64.3941 11.4529C65.12 12.1792 65.6818 13.0528 66.0416 14.0146V14.0146Z" fill="#0083CB"/>
<path d="M82.0354 22.4875L82.6875 24.2333L83.3334 22.4875C83.6061 21.7576 84.0324 21.0948 84.5834 20.5438C85.1344 19.9928 85.7972 19.5665 86.5271 19.2938L88.2729 18.6396L86.5271 17.9854C85.7972 17.7127 85.1344 17.2864 84.5834 16.7354C84.0324 16.1844 83.6061 15.5216 83.3334 14.7917L82.6792 13.0458L82.0271 14.7917C81.7538 15.5212 81.3273 16.1838 80.7764 16.7347C80.2255 17.2856 79.5629 17.7121 78.8334 17.9854L77.0854 18.6396L78.8334 19.2938C79.5645 19.5661 80.2286 19.9921 80.781 20.5431C81.3334 21.0941 81.7612 21.7571 82.0354 22.4875V22.4875Z" fill="#0083CB"/>
<path d="M91.7959 12.7875L92.448 14.5354L93.1022 12.7875C93.3755 12.0579 93.802 11.3954 94.3529 10.8445C94.9038 10.2936 95.5664 9.86709 96.2959 9.59373L98.0418 8.94165L96.2959 8.28748C95.566 8.01472 94.9032 7.58845 94.3522 7.03747C93.8012 6.48648 93.3749 5.82364 93.1022 5.09373L92.448 3.3479L91.7959 5.09373C91.5226 5.8233 91.0961 6.48583 90.5452 7.03674C89.9943 7.58764 89.3317 8.01413 88.6022 8.28748L86.8542 8.94165L88.6022 9.59373C89.3313 9.8678 89.9935 10.2945 90.5443 10.8453C91.0951 11.3962 91.5218 12.0583 91.7959 12.7875V12.7875Z" fill="#0083CB"/>
<path d="M83.0854 91.9854V96.325C83.0854 96.6033 83.1404 96.8788 83.2472 97.1358C83.3541 97.3928 83.5106 97.6262 83.7079 97.8225C83.9051 98.0188 84.1392 98.1742 84.3967 98.2797C84.6542 98.3852 84.9301 98.4389 85.2084 98.4375H93.3334C93.8936 98.4375 94.431 98.2149 94.8271 97.8188C95.2233 97.4226 95.4459 96.8853 95.4459 96.325V87.9604C94.1047 89.3079 92.4979 90.3616 90.7276 91.0546C88.9572 91.7475 87.062 92.0645 85.1625 91.9854H83.0854Z" fill="#0083CB"/>
<path d="M4.44165 87.8375V96.325C4.44165 96.8853 4.66422 97.4226 5.06039 97.8188C5.45656 98.215 5.99388 98.4375 6.55415 98.4375H14.6792C15.2394 98.4375 15.7767 98.215 16.1729 97.8188C16.5691 97.4226 16.7917 96.8853 16.7917 96.325V91.9854H14.8437C12.9152 92.0686 10.9909 91.7419 9.19789 91.027C7.40485 90.312 5.78379 89.2249 4.44165 87.8375V87.8375Z" fill="#0083CB"/>
<path d="M4.5022 79.375C4.5022 85.3625 8.66886 88.8521 14.8439 88.8521H85.1584C91.3251 88.8521 95.5001 85.3625 95.5001 79.375V77.6458H4.5022V79.375Z" fill="#0083CB"/>
<path d="M96.4584 40.8333L91.2501 39.9292C90.8341 39.8565 90.4058 39.9265 90.0345 40.1276C89.6632 40.3288 89.3706 40.6494 89.2043 41.0375L87.5834 44.7021L86.9251 43.6979L82.3584 32.9167C81.6219 31.1677 80.4523 29.6349 78.9597 28.4628C77.4672 27.2906 75.7009 26.5177 73.8272 26.2167C65.942 25.0195 57.9756 24.4379 50.0001 24.4771C42.0252 24.4398 34.0594 25.0235 26.1751 26.2229C24.2996 26.5225 22.5312 27.2948 21.0368 28.467C19.5423 29.6392 18.3711 31.1727 17.6334 32.9229L13.0772 43.6875L12.4293 44.6771L10.798 41.0271C10.6316 40.6389 10.3391 40.3183 9.96781 40.1172C9.59651 39.916 9.16818 39.8461 8.75218 39.9187L3.54177 40.8333C3.06044 40.9111 2.6226 41.1579 2.30683 41.5294C1.99107 41.9009 1.81805 42.3728 1.81885 42.8604V43.8833C1.81895 44.3528 1.97953 44.8081 2.27396 45.1738C2.56838 45.5395 2.97896 45.7935 3.4376 45.8937L10.5709 47.525L7.15427 52.7333C5.42515 55.3703 4.50409 58.455 4.50427 61.6083V74.525H95.5001V61.6083C95.4995 58.4548 94.5778 55.3701 92.848 52.7333L89.4189 47.5L96.5647 45.8896C97.0233 45.7893 97.4339 45.5353 97.7283 45.1696C98.0228 44.804 98.1833 44.3486 98.1834 43.8792V42.8562C98.1832 42.3691 98.0094 41.8979 97.6933 41.5273C97.3772 41.1566 96.9394 40.9106 96.4584 40.8333V40.8333ZM20.5188 34.1437C21.0452 32.8797 21.8866 31.7716 22.9629 30.9251C24.0391 30.0787 25.3143 29.522 26.6668 29.3083C34.3886 28.1363 42.1899 27.5659 50.0001 27.6021C57.8103 27.5659 65.6116 28.1363 73.3334 29.3083C74.6849 29.5227 75.9589 30.0794 77.0344 30.9254C78.1098 31.7714 78.9507 32.8787 79.4772 34.1417L82.9876 42.4208H17.0084L20.5188 34.1437ZM13.8918 64.3521C13.2793 64.2628 12.7078 63.9917 12.2513 63.5738C11.7948 63.1559 11.4743 62.6105 11.3314 62.0083C11.143 61.306 11.0692 60.5779 11.1126 59.8521C11.2814 57.9771 11.8709 57.0542 13.0626 57.0542C13.0626 57.0542 21.2334 57.5625 22.3376 57.9021C23.4418 58.2417 27.6793 66.2979 27.6793 66.2979L13.8918 64.3521ZM66.2334 67.4771L49.9001 68.4104L33.7668 67.5L29.6522 58.7729C29.6522 58.7729 44.1459 60.0354 49.998 60.0354C55.8501 60.0354 70.348 58.7729 70.348 58.7729L66.2334 67.4771ZM88.6668 62.0167C88.5238 62.6188 88.2033 63.1642 87.7468 63.5821C87.2903 64 86.7188 64.2711 86.1064 64.3604L72.3189 66.3062C72.3189 66.3062 76.5584 58.25 77.6626 57.9104C78.7668 57.5708 86.9355 57.0625 86.9355 57.0625C88.1293 57.0625 88.7168 57.9937 88.8855 59.8604C88.929 60.5862 88.8551 61.3143 88.6668 62.0167V62.0167Z" fill="#0083CB"/>
</svg>
