<svg width="100" height="100" viewBox="0 0 100 100" fill="none" xmlns="http://www.w3.org/2000/svg">
<path d="M53.125 82.8125V95.3125H75V82.8125H73.4375H54.6875H53.125Z" fill="#9BC9FF"/>
<path d="M46.875 82.8125H45.3125H26.5625H25V95.3125H46.875V82.8125Z" fill="#9BC9FF"/>
<path d="M69.8907 30.1094L71 29C72.3513 27.7044 73.4304 26.152 74.1738 24.4339C74.9172 22.7157 75.3101 20.8665 75.3294 18.9945C75.3487 17.1225 74.9941 15.2656 74.2863 13.5325C73.5785 11.7994 72.5317 10.225 71.2075 8.9018C69.8832 7.57857 68.308 6.53307 66.5744 5.82662C64.8407 5.12016 62.9835 4.76697 61.1115 4.78776C59.2396 4.80855 57.3906 5.2029 55.6731 5.94768C53.9555 6.69247 52.404 7.77269 51.1094 9.125L50.0001 10.2344L48.8907 9.125C47.5961 7.77269 46.0446 6.69247 44.327 5.94768C42.6095 5.2029 40.7605 4.80855 38.8886 4.78776C37.0166 4.76697 35.1594 5.12016 33.4257 5.82662C31.6921 6.53307 30.1169 7.57857 28.7926 8.9018C27.4684 10.225 26.4216 11.7994 25.7138 13.5325C25.006 15.2656 24.6514 17.1225 24.6707 18.9945C24.69 20.8665 25.0829 22.7157 25.8263 24.4339C26.5697 26.152 27.6488 27.7044 29 29L30.1094 30.1094L50.0001 50L69.8907 30.1094ZM40.6251 28.125V21.875H46.8751V15.625H53.1251V21.875H59.3751V28.125H53.1251V34.375H46.8751V28.125H40.6251Z" fill="#9BC9FF"/>
<path d="M59.375 20.3125H54.6875V15.625C54.6875 15.2106 54.5229 14.8132 54.2299 14.5201C53.9368 14.2271 53.5394 14.0625 53.125 14.0625H46.875C46.4606 14.0625 46.0632 14.2271 45.7701 14.5201C45.4771 14.8132 45.3125 15.2106 45.3125 15.625V20.3125H40.625C40.2106 20.3125 39.8132 20.4771 39.5201 20.7701C39.2271 21.0632 39.0625 21.4606 39.0625 21.875V28.125C39.0625 28.5394 39.2271 28.9368 39.5201 29.2299C39.8132 29.5229 40.2106 29.6875 40.625 29.6875H45.3125V34.375C45.3125 34.7894 45.4771 35.1868 45.7701 35.4799C46.0632 35.7729 46.4606 35.9375 46.875 35.9375H53.125C53.5394 35.9375 53.9368 35.7729 54.2299 35.4799C54.5229 35.1868 54.6875 34.7894 54.6875 34.375V29.6875H59.375C59.7894 29.6875 60.1868 29.5229 60.4799 29.2299C60.7729 28.9368 60.9375 28.5394 60.9375 28.125V21.875C60.9375 21.4606 60.7729 21.0632 60.4799 20.7701C60.1868 20.4771 59.7894 20.3125 59.375 20.3125ZM57.8125 26.5625H53.125C52.7106 26.5625 52.3132 26.7271 52.0201 27.0201C51.7271 27.3132 51.5625 27.7106 51.5625 28.125V32.8125H48.4375V28.125C48.4375 27.7106 48.2729 27.3132 47.9799 27.0201C47.6868 26.7271 47.2894 26.5625 46.875 26.5625H42.1875V23.4375H46.875C47.2894 23.4375 47.6868 23.2729 47.9799 22.9799C48.2729 22.6868 48.4375 22.2894 48.4375 21.875V17.1875H51.5625V21.875C51.5625 22.2894 51.7271 22.6868 52.0201 22.9799C52.3132 23.2729 52.7106 23.4375 53.125 23.4375H57.8125V26.5625Z" fill="#1E81CE"/>
<path d="M93.3281 28.6875C93.3598 28.4126 93.3754 28.1361 93.375 27.8594C93.3674 26.4271 92.8706 25.0405 91.9669 23.9294C91.0632 22.8182 89.8069 22.0493 88.4063 21.75C86.8219 21.4484 85.1822 21.7599 83.8188 22.6215C82.4554 23.483 81.4702 24.8302 81.0625 26.3906L74.1875 46.1719C74.0856 46.2123 73.9865 46.2593 73.8906 46.3125L60.0781 54.4063C57.9645 55.6478 56.2114 57.4193 54.992 59.5457C53.7726 61.6722 53.129 64.08 53.125 66.5313V81.25C52.7106 81.25 52.3132 81.4146 52.0201 81.7076C51.7271 82.0007 51.5625 82.3981 51.5625 82.8125V95.3125C51.5625 95.7269 51.7271 96.1243 52.0201 96.4174C52.3132 96.7104 52.7106 96.875 53.125 96.875H75C75.4144 96.875 75.8118 96.7104 76.1049 96.4174C76.3979 96.1243 76.5625 95.7269 76.5625 95.3125V82.8125C76.5625 82.3981 76.3979 82.0007 76.1049 81.7076C75.8118 81.4146 75.4144 81.25 75 81.25V77.8125C75.0029 77.1526 75.1434 76.5005 75.4124 75.8978C75.6814 75.2952 76.0731 74.7553 76.5625 74.3125L87.125 64.9219C88.2804 63.911 89.1074 62.5779 89.5 61.0938L96.2812 35.7344C96.426 35.2048 96.4996 34.6584 96.5 34.1094C96.4939 33.0067 96.1975 31.9251 95.6407 30.9733C95.0839 30.0216 94.2863 29.2332 93.3281 28.6875V28.6875ZM84.0469 27.3125C84.2387 26.5045 84.728 25.7984 85.4172 25.335C86.1064 24.8717 86.945 24.6851 87.7656 24.8125C88.466 24.9592 89.0948 25.3418 89.547 25.8963C89.9991 26.4509 90.2473 27.1438 90.25 27.8594V27.8906C88.8543 27.9165 87.5053 28.3976 86.4081 29.2607C85.311 30.1237 84.5257 31.3215 84.1719 32.6719L79.8125 46.125C79.1525 45.8119 78.4449 45.6113 77.7188 45.5313L84.0469 27.3125ZM73.4375 93.75H54.6875V84.375H73.4375V93.75ZM93.2656 34.9219L86.4688 60.2969C86.2336 61.1786 85.7446 61.9719 85.0625 62.5781L74.4844 71.9688C73.6658 72.7069 73.0108 73.6081 72.5614 74.6146C72.112 75.621 71.8782 76.7103 71.875 77.8125V81.25H56.25V66.5313C56.2577 64.6249 56.76 62.7532 57.7076 61.099C58.6551 59.4448 60.0157 58.0648 61.6562 57.0938L75.4531 49.0156C75.8089 48.8084 76.202 48.6734 76.6101 48.6186C77.0181 48.5638 77.433 48.5901 77.8308 48.6961C78.2287 48.8021 78.6016 48.9856 78.9283 49.2362C79.255 49.4868 79.5289 49.7995 79.7344 50.1563C80.1402 50.8782 80.2521 51.7289 80.0469 52.5313C79.9383 52.9275 79.7528 53.2984 79.5007 53.6228C79.2487 53.9472 78.9352 54.2188 78.5781 54.4219L69.625 59.5938C69.2849 59.81 69.0415 60.1492 68.9456 60.5406C68.8497 60.9321 68.9088 61.3454 69.1105 61.6943C69.3122 62.0432 69.6409 62.3007 70.0279 62.413C70.4149 62.5253 70.8304 62.4837 71.1875 62.2969L80.1406 57.125C80.8563 56.719 81.4834 56.1739 81.9852 55.5218C82.487 54.8697 82.8533 54.1239 83.0625 53.3281C83.4878 51.7294 83.2631 50.0273 82.4375 48.5938L82.3438 48.4531L87.1719 33.5625C87.3637 32.7545 87.853 32.0484 88.5422 31.585C89.2314 31.1217 90.07 30.9351 90.8906 31.0625C91.591 31.2092 92.2198 31.5918 92.672 32.1463C93.1241 32.7009 93.3723 33.3938 93.375 34.1094C93.3803 34.3842 93.3434 34.6582 93.2656 34.9219V34.9219Z" fill="#1E81CE"/>
<path d="M46.875 81.25V66.5313C46.871 64.08 46.2274 61.6722 45.008 59.5457C43.7886 57.4193 42.0355 55.6478 39.9219 54.4063L26.1094 46.2969C26.0156 46.25 25.9063 46.2188 25.8125 46.1719L18.9844 26.5C18.5875 24.9169 17.6023 23.5444 16.2293 22.662C14.8563 21.7796 13.1987 21.4534 11.5938 21.75C10.1931 22.0493 8.9368 22.8182 8.0331 23.9294C7.1294 25.0405 6.63258 26.4271 6.625 27.8594C6.62459 28.1361 6.64025 28.4126 6.67187 28.6875C5.7137 29.2332 4.9161 30.0216 4.3593 30.9733C3.8025 31.9251 3.50613 33.0067 3.5 34.1094C3.50303 34.6572 3.57122 35.2027 3.70312 35.7344L10.5 61.0781C10.8884 62.5685 11.7159 63.9077 12.875 64.9219L23.4219 74.3125C23.9161 74.7522 24.3122 75.2912 24.5841 75.8943C24.856 76.4973 24.9977 77.151 25 77.8125V81.25C24.5856 81.25 24.1882 81.4146 23.8951 81.7076C23.6021 82.0007 23.4375 82.3981 23.4375 82.8125V95.3125C23.4375 95.7269 23.6021 96.1243 23.8951 96.4174C24.1882 96.7104 24.5856 96.875 25 96.875H46.875C47.2894 96.875 47.6868 96.7104 47.9799 96.4174C48.2729 96.1243 48.4375 95.7269 48.4375 95.3125V82.8125C48.4375 82.3981 48.2729 82.0007 47.9799 81.7076C47.6868 81.4146 47.2894 81.25 46.875 81.25V81.25ZM9.75 27.8594C9.75193 27.146 9.99787 26.4548 10.447 25.9005C10.8961 25.3462 11.5213 24.9623 12.2187 24.8125C13.062 24.6901 13.9203 24.891 14.6216 25.375C15.3228 25.8589 15.8152 26.5901 16 27.4219L22.2813 45.5313C21.5552 45.6113 20.8475 45.8119 20.1875 46.125L15.8594 32.75C15.5071 31.3863 14.7204 30.1744 13.6181 29.2977C12.5158 28.4209 11.158 27.927 9.75 27.8906V27.8594ZM25.5 71.9688L14.9375 62.5781C14.2516 61.9687 13.7622 61.1692 13.5313 60.2813L6.71875 34.9219C6.65407 34.656 6.62258 34.383 6.625 34.1094C6.62693 33.396 6.87287 32.7048 7.32197 32.1505C7.77107 31.5962 8.39628 31.2123 9.09375 31.0625C9.93104 30.9368 10.7848 31.1329 11.4835 31.6112C12.1821 32.0895 12.6737 32.8146 12.8594 33.6406L17.6563 48.4531L17.5625 48.5938C16.7369 50.0273 16.5122 51.7294 16.9375 53.3281C17.1467 54.1239 17.513 54.8697 18.0148 55.5218C18.5166 56.1739 19.1437 56.719 19.8594 57.125L28.8125 62.2969C29.1696 62.4837 29.5851 62.5253 29.9721 62.413C30.3591 62.3007 30.6878 62.0432 30.8895 61.6943C31.0912 61.3454 31.1503 60.9321 31.0544 60.5406C30.9585 60.1492 30.7151 59.81 30.375 59.5938L21.4219 54.4219C21.0648 54.2188 20.7513 53.9472 20.4993 53.6228C20.2472 53.2984 20.0617 52.9275 19.9531 52.5313C19.7479 51.7289 19.8598 50.8782 20.2656 50.1563C20.4698 49.8002 20.7421 49.4879 21.0669 49.2371C21.3918 48.9864 21.7629 48.802 22.159 48.6947C22.5551 48.5873 22.9684 48.559 23.3755 48.6114C23.7825 48.6638 24.1752 48.7958 24.5313 49L38.3438 57.0938C39.9843 58.0648 41.3449 59.4448 42.2924 61.099C43.24 62.7532 43.7423 64.6249 43.75 66.5313V81.25H28.125V77.8125C28.1223 76.7087 27.8872 75.6179 27.4349 74.611C26.9827 73.6042 26.3234 72.7039 25.5 71.9688V71.9688ZM45.3125 93.75H26.5625V84.375H45.3125V93.75Z" fill="#1E81CE"/>
<path d="M72.1048 8.01876C70.6542 6.56569 68.9314 5.41294 67.0348 4.62647C65.1383 3.83999 63.1053 3.43525 61.0521 3.43539C58.9989 3.43554 56.966 3.84057 55.0695 4.62731C53.1731 5.41405 51.4504 6.56705 50.0001 8.02033C48.5499 6.56701 46.8273 5.414 44.9309 4.6273C43.0345 3.8406 41.0016 3.43566 38.9485 3.43566C36.8954 3.43566 34.8625 3.8406 32.9661 4.6273C31.0697 5.414 29.3471 6.56701 27.897 8.02033C24.9725 10.9511 23.3301 14.9223 23.3301 19.0625C23.3301 23.2028 24.9725 27.174 27.897 30.1047L48.897 51.1047C49.19 51.3976 49.5873 51.5622 50.0016 51.5622C50.416 51.5622 50.8133 51.3976 51.1063 51.1047L72.1063 30.1047C75.0307 27.1735 76.6729 23.2019 76.6726 19.0614C76.6723 14.9209 75.0295 10.9496 72.1048 8.01876V8.01876ZM50.0001 47.7906L30.1048 27.8953C28.3581 26.1463 27.1692 23.9186 26.6884 21.494C26.2076 19.0694 26.4564 16.5566 27.4034 14.2734C28.3505 11.9902 29.9532 10.039 32.009 8.66647C34.0648 7.29397 36.4814 6.5618 38.9532 6.56251C40.5952 6.55687 42.2219 6.87824 43.7384 7.50785C45.2549 8.13747 46.6309 9.06274 47.786 10.2297L48.8954 11.3391C49.1884 11.632 49.5858 11.7966 50.0001 11.7966C50.4144 11.7966 50.8118 11.632 51.1048 11.3391L52.2173 10.2266C53.3773 9.06447 54.7551 8.14252 56.2718 7.51348C57.7885 6.88443 59.4143 6.56064 61.0563 6.56064C62.6983 6.56064 64.3242 6.88443 65.8409 7.51348C67.3576 8.14252 68.7354 9.06447 69.8954 10.2266C72.2359 12.5703 73.5505 15.7471 73.5505 19.0594C73.5505 22.3716 72.2359 25.5485 69.8954 27.8922L50.0001 47.7906Z" fill="#1E81CE"/>
</svg>
