<svg width="100" height="100" viewBox="0 0 100 100" fill="none" xmlns="http://www.w3.org/2000/svg">
<path d="M71.875 53.125C85.6821 53.125 96.875 41.9321 96.875 28.125C96.875 14.3179 85.6821 3.125 71.875 3.125C58.0679 3.125 46.875 14.3179 46.875 28.125C46.875 41.9321 58.0679 53.125 71.875 53.125Z" fill="#9BC9FF"/>
<path d="M71.875 96.875C85.6821 96.875 96.875 85.6821 96.875 71.875C96.875 58.0679 85.6821 46.875 71.875 46.875C58.0679 46.875 46.875 58.0679 46.875 71.875C46.875 85.6821 58.0679 96.875 71.875 96.875Z" fill="#9BC9FF"/>
<path d="M28.125 96.875C41.9321 96.875 53.125 85.6821 53.125 71.875C53.125 58.0679 41.9321 46.875 28.125 46.875C14.3179 46.875 3.125 58.0679 3.125 71.875C3.125 85.6821 14.3179 96.875 28.125 96.875Z" fill="#9BC9FF"/>
<path d="M28.125 53.125C41.9321 53.125 53.125 41.9321 53.125 28.125C53.125 14.3179 41.9321 3.125 28.125 3.125C14.3179 3.125 3.125 14.3179 3.125 28.125C3.125 41.9321 14.3179 53.125 28.125 53.125Z" fill="#9BC9FF"/>
<path d="M68.75 81.25H78.125V87.5H68.75V81.25Z" fill="#AAB2BD"/>
<path d="M87.5 75V79.6875C87.5 80.5469 86.7969 81.25 85.9375 81.25H78.125H68.75H60.9375C60.0781 81.25 59.375 80.5469 59.375 79.6875V75H87.5Z" fill="#CCD1D9"/>
<path d="M87.5 60.9375V75H59.375V62.5C60.5625 61.6094 61.6094 60.5625 62.5 59.375H85.9375C86.7969 59.375 87.5 60.0781 87.5 60.9375Z" fill="#69D6F4"/>
<path d="M34.375 59.375V65.625H31.25H12.5H9.375V59.375H34.375Z" fill="#DFB28B"/>
<path d="M25 78.125V90.625H12.5V65.625H31.25V78.125H25Z" fill="#ECC19C"/>
<path d="M31.25 78.125H43.75V90.625H25V78.125H31.25Z" fill="#FFEAA7"/>
<path d="M90.625 26.2812V31.25C90.625 32.9688 89.2188 34.375 87.5 34.375H84.375C84.375 32.6562 82.9688 31.25 81.25 31.25C79.5312 31.25 78.125 32.6562 78.125 34.375H65.625C65.625 32.6562 64.2188 31.25 62.5 31.25C60.7812 31.25 59.375 32.6562 59.375 34.375H56.25C54.5312 34.375 53.125 32.9688 53.125 31.25V26.2812C53.125 25.5312 53.6562 24.8906 54.375 24.75L60.9375 23.4375L62 18.1406C62.2969 16.6719 63.5781 15.625 65.0625 15.625H78.6875C80.1719 15.625 81.4531 16.6719 81.75 18.1406L82.8125 23.4375L89.375 24.75C90.0938 24.8906 90.625 25.5312 90.625 26.2812Z" fill="#B4DD7F"/>
<path d="M81.25 37.5C82.9759 37.5 84.375 36.1009 84.375 34.375C84.375 32.6491 82.9759 31.25 81.25 31.25C79.5241 31.25 78.125 32.6491 78.125 34.375C78.125 36.1009 79.5241 37.5 81.25 37.5Z" fill="#969FAA"/>
<path d="M62.5 37.5C64.2259 37.5 65.625 36.1009 65.625 34.375C65.625 32.6491 64.2259 31.25 62.5 31.25C60.7741 31.25 59.375 32.6491 59.375 34.375C59.375 36.1009 60.7741 37.5 62.5 37.5Z" fill="#969FAA"/>
<path d="M37.5 25V39.0625C37.5 39.9219 36.7969 40.625 35.9375 40.625H31.25V31.25H25V40.625H20.3125C19.4531 40.625 18.75 39.9219 18.75 39.0625V25H37.5Z" fill="#DFB28B"/>
<path d="M39.875 21.2344C40.3594 21.6406 40.625 22.2344 40.625 22.8594C40.625 24.0469 39.6719 25 38.4844 25H37.5H18.75H17.7656C16.5781 25 15.625 24.0469 15.625 22.8594C15.625 22.2344 15.8906 21.6406 16.375 21.2344L25.375 13.5156C26.1406 12.8594 27.1094 12.5 28.125 12.5C29.1406 12.5 30.1094 12.8594 30.875 13.5156L39.875 21.2344Z" fill="#EF7385"/>
<path d="M25 31.25H31.25V40.625H25V31.25Z" fill="#AAB2BD"/>
<path d="M65.4531 47.7031C65.5625 48.4531 65.625 49.2188 65.625 50C65.625 53.5156 64.4531 56.7656 62.5 59.375C61.6094 60.5625 60.5625 61.6094 59.375 62.5C57.3438 64.0313 54.9375 65.0625 52.2969 65.4531C51.5469 65.5625 50.7812 65.625 50 65.625C44.3438 65.625 39.375 62.6094 36.6406 58.0938C35.5781 56.3594 34.8594 54.3906 34.5469 52.2969C34.4375 51.5469 34.375 50.7812 34.375 50C34.375 42.1563 40.1563 35.6563 47.7031 34.5469C48.4531 34.4375 49.2188 34.375 50 34.375C57.8437 34.375 64.3437 40.1563 65.4531 47.7031Z" fill="#FCD770"/>
<path d="M51.5625 42.475V39.0625H48.4375V42.1875H45.3125V46.875C45.3125 49.4594 47.4156 51.5625 50 51.5625C50.8625 51.5625 51.5625 52.2625 51.5625 53.125V54.6875H50C49.1375 54.6875 48.4375 53.9875 48.4375 53.125V51.5625H45.3125V53.125C45.3125 55.1594 46.6234 56.8781 48.4375 57.525V60.9375H51.5625V57.8125H54.6875V53.125C54.6875 50.5406 52.5844 48.4375 50 48.4375C49.1375 48.4375 48.4375 47.7375 48.4375 46.875V45.3125H50C50.8625 45.3125 51.5625 46.0125 51.5625 46.875V48.4375H54.6875V46.875C54.6875 44.8406 53.3766 43.1219 51.5625 42.475Z" fill="#1E81CE"/>
<path d="M86.9156 50.0047C94.075 45.0766 98.4375 36.9156 98.4375 28.125C98.4375 13.4781 86.5219 1.5625 71.875 1.5625C62.8094 1.5625 54.7984 6.13281 50.0031 13.0859C45.075 5.92656 36.9141 1.5625 28.125 1.5625C13.4781 1.5625 1.5625 13.4781 1.5625 28.125C1.5625 37.1906 6.13281 45.2 13.0844 49.9953C5.925 54.9234 1.5625 63.0844 1.5625 71.875C1.5625 86.5219 13.4781 98.4375 28.125 98.4375C37.1906 98.4375 45.2 93.8672 49.9953 86.9156C54.9234 94.075 63.0844 98.4375 71.875 98.4375C86.5219 98.4375 98.4375 86.5219 98.4375 71.875C98.4375 62.8094 93.8672 54.8 86.9156 50.0047ZM71.875 4.6875C84.7984 4.6875 95.3125 15.2016 95.3125 28.125C95.3125 36.3734 90.9594 43.9969 83.9094 48.2266C80.2922 46.3766 76.2094 45.3125 71.875 45.3125C70.1141 45.3125 68.3641 45.4875 66.6547 45.8281C66.0156 43.2797 64.8219 40.95 63.1859 38.9937C64.9156 38.7375 66.3281 37.5437 66.9 35.9375H76.8516C77.4984 37.7516 79.2172 39.0625 81.2516 39.0625C83.2859 39.0625 85.0047 37.7516 85.6516 35.9375H87.5C90.0844 35.9375 92.1875 33.8344 92.1875 31.25V26.2797C92.1875 24.7969 91.1313 23.5094 89.6766 23.2156L84.1406 22.1094L83.2844 17.8312C82.8484 15.6484 80.9156 14.0625 78.6875 14.0625H65.0625C62.8344 14.0625 60.9016 15.6484 60.4672 17.8297L59.6094 22.1094L54.0719 23.2156C52.6187 23.5094 51.5625 24.7969 51.5625 26.2797V31.25C51.5625 31.8406 51.6844 32.4 51.8844 32.9219C51.2641 32.8531 50.6375 32.8125 50 32.8125C49.6359 32.8125 49.2813 32.8453 48.9234 32.8672C48.6047 31.3156 48.4375 29.7266 48.4375 28.125C48.4375 15.2016 58.9516 4.6875 71.875 4.6875V4.6875ZM70.3125 85.9375V82.8125H76.5625V85.9375H70.3125ZM60.9375 79.6875V76.5625H85.9375V79.6875H60.9375ZM50 64.0625C42.2453 64.0625 35.9375 57.7547 35.9375 50C35.9375 42.2453 42.2453 35.9375 50 35.9375C57.7547 35.9375 64.0625 42.2453 64.0625 50C64.0625 57.7547 57.7547 64.0625 50 64.0625ZM29.6875 39.0625H26.5625V32.8125H29.6875V39.0625ZM23.4375 29.6875V39.0625H20.3125V26.5625H35.9375V39.0625H32.8125V29.6875H23.4375ZM38.4844 23.4375H17.7656C17.4469 23.4375 17.1875 23.1781 17.1875 22.8594C17.1875 22.6922 17.2609 22.5312 17.3891 22.4203L26.3953 14.7031C26.875 14.2906 27.4906 14.0625 28.125 14.0625C28.7594 14.0625 29.375 14.2906 29.8562 14.7016L38.8594 22.4187C38.9891 22.5312 39.0625 22.6906 39.0625 22.8594C39.0625 23.1781 38.8031 23.4375 38.4844 23.4375ZM85.65 32.8125C85.0031 30.9984 83.2844 29.6875 81.25 29.6875C79.2156 29.6875 77.4969 30.9984 76.85 32.8125H66.8984C66.2516 30.9984 64.5328 29.6875 62.4984 29.6875C60.4641 29.6875 58.7453 30.9984 58.0984 32.8125H56.25C55.3875 32.8125 54.6875 32.1125 54.6875 31.25V26.2797L62.2656 24.7641L63.5312 18.4406C63.675 17.7156 64.3187 17.1875 65.0625 17.1875H78.6891C79.4328 17.1875 80.0766 17.7156 80.2203 18.4437L81.4859 24.7656L89.0641 26.2812V31.25C89.0641 32.1125 88.3641 32.8125 87.5016 32.8125H85.65ZM82.8125 34.375C82.8125 35.2375 82.1125 35.9375 81.25 35.9375C80.3875 35.9375 79.6875 35.2375 79.6875 34.375C79.6875 33.5125 80.3875 32.8125 81.25 32.8125C82.1125 32.8125 82.8125 33.5125 82.8125 34.375ZM60.9375 34.375C60.9375 33.5125 61.6375 32.8125 62.5 32.8125C63.3625 32.8125 64.0625 33.5125 64.0625 34.375C64.0625 35.2375 63.3625 35.9375 62.5 35.9375C61.6375 35.9375 60.9375 35.2375 60.9375 34.375ZM85.9375 73.4375H60.9375V63.2484C61.7781 62.5531 62.5516 61.7797 63.2484 60.9375H85.9375V73.4375ZM4.6875 28.125C4.6875 15.2016 15.2016 4.6875 28.125 4.6875C36.3734 4.6875 43.9953 9.04219 48.225 16.0906C46.3766 19.7094 45.3125 23.7906 45.3125 28.125C45.3125 29.8859 45.4875 31.6359 45.8281 33.3453C43.3109 33.9766 41.0047 35.1453 39.0625 36.7516V26.5031C40.8281 26.2234 42.1875 24.7016 42.1875 22.8578C42.1875 21.7781 41.7156 20.7516 40.8938 20.0469L31.8906 12.3313C29.7969 10.5344 26.4516 10.5344 24.3609 12.3313L15.3547 20.0484C14.5344 20.7531 14.0625 21.7781 14.0625 22.8594C14.0625 24.7031 15.4219 26.2234 17.1875 26.5047V39.0625C17.1875 40.7859 18.5891 42.1875 20.3125 42.1875H34.7094C33.5063 44.5344 32.8125 47.1859 32.8125 50C32.8125 50.3641 32.8453 50.7187 32.8672 51.0766C31.3156 51.3953 29.7266 51.5625 28.125 51.5625C15.2016 51.5625 4.6875 41.0484 4.6875 28.125V28.125ZM16.0906 51.7734C19.7078 53.6234 23.7906 54.6875 28.125 54.6875C29.8859 54.6875 31.6359 54.5125 33.3453 54.1719C33.6656 55.4469 34.1219 56.6672 34.7094 57.8125H9.39063C11.1875 55.4188 13.4484 53.3594 16.0906 51.7734V51.7734ZM42.1875 89.0625H26.5625V79.6875H42.1875V89.0625ZM23.4375 76.5625V89.0625H14.0625V67.1875H29.6875V76.5625H23.4375ZM10.9375 64.0625V60.9375H32.8125V64.0625H10.9375ZM4.6875 71.875C4.6875 67.7047 5.80312 63.6969 7.8125 60.2016V67.1875H10.9375V87.7563C7.07188 83.575 4.6875 78.0047 4.6875 71.875ZM16.4813 92.1875H39.7672C36.3328 94.1641 32.3641 95.3125 28.1234 95.3125C23.8828 95.3125 19.9172 94.1641 16.4813 92.1875V92.1875ZM45.3125 87.7563V76.5625H32.8125V67.1875H35.9375V59.8516C39.05 64.2797 44.1875 67.1875 50 67.1875C50.3641 67.1875 50.7187 67.1547 51.0766 67.1328C51.3953 68.6844 51.5625 70.2734 51.5625 71.875C51.5625 78.0047 49.1781 83.575 45.3125 87.7563ZM71.875 95.3125C63.6266 95.3125 56.0031 90.9594 51.7734 83.9094C53.6234 80.2922 54.6875 76.2094 54.6875 71.875C54.6875 70.1141 54.5125 68.3641 54.1719 66.6547C55.4469 66.3344 56.6672 65.8781 57.8125 65.2906V79.6875C57.8125 81.4109 59.2141 82.8125 60.9375 82.8125H67.1875V85.9375H64.0625V89.0625H82.8125V85.9375H79.6875V82.8125H85.9375C87.6609 82.8125 89.0625 81.4109 89.0625 79.6875V60.9375C89.0625 59.2141 87.6609 57.8125 85.9375 57.8125H65.2906C66.4937 55.4656 67.1875 52.8141 67.1875 50C67.1875 49.6359 67.1547 49.2813 67.1328 48.9234C68.6844 48.6047 70.2734 48.4375 71.875 48.4375C84.7984 48.4375 95.3125 58.9516 95.3125 71.875C95.3125 84.7984 84.7984 95.3125 71.875 95.3125Z" fill="#1E81CE"/>
<path d="M29.6875 82.8125H32.8125V85.9375H29.6875V82.8125Z" fill="#1E81CE"/>
<path d="M17.1875 82.8125H20.3125V85.9375H17.1875V82.8125Z" fill="#1E81CE"/>
<path d="M17.1875 76.5625H20.3125V79.6875H17.1875V76.5625Z" fill="#1E81CE"/>
<path d="M17.1875 70.3125H20.3125V73.4375H17.1875V70.3125Z" fill="#1E81CE"/>
<path d="M23.4375 70.3125H26.5625V73.4375H23.4375V70.3125Z" fill="#1E81CE"/>
<path d="M35.9375 82.8125H39.0625V85.9375H35.9375V82.8125Z" fill="#1E81CE"/>
</svg>
