<svg width="100" height="100" viewBox="0 0 100 100" fill="none" xmlns="http://www.w3.org/2000/svg">
<path d="M63.6812 73.0896L63.6458 82.9229" stroke="black" stroke-width="16" stroke-linecap="round" stroke-linejoin="round"/>
<path d="M44.1104 36.4146V45.2958C44.1104 45.2958 44.0958 51.5 50.0499 51.5125C50.8443 51.5161 51.6309 51.357 52.3614 51.0449C53.0918 50.7329 53.7506 50.2745 54.2972 49.6981C54.8437 49.1217 55.2664 48.4394 55.5392 47.6934C55.812 46.9474 55.9291 46.1534 55.8833 45.3604V36.4146H44.1104Z" fill="#FCD3C4"/>
<path d="M80.1354 56.5937C80.1353 54.2716 79.2837 52.0302 77.7417 50.2939C76.1997 48.5577 74.0746 47.4472 71.7687 47.1729L56.0062 45.2979H44.2312L28.4666 47.1729C26.161 47.4473 24.0361 48.5578 22.4944 50.2941C20.9528 52.0304 20.1016 54.2718 20.1021 56.5937V98.4375H68.75L68.7 82.9417H70.8937H74.0604C74.8583 82.9436 75.6488 82.7881 76.3865 82.4841C77.1242 82.18 77.7947 81.7335 78.3596 81.1699C78.9245 80.6064 79.3727 79.937 79.6785 79.2C79.9842 78.463 80.1416 77.6729 80.1416 76.875L80.1354 56.5937Z" fill="#0083CB"/>
<path d="M49.7917 40.6938C47.775 40.69 45.8019 40.1056 44.1084 39.0104V45.2958C44.1084 45.2958 44.0938 51.5 50.048 51.5125C50.8423 51.5161 51.6289 51.357 52.3594 51.0449C53.0899 50.7329 53.7487 50.2745 54.2952 49.6981C54.8418 49.1217 55.2645 48.4395 55.5372 47.6934C55.81 46.9474 55.9271 46.1534 55.8813 45.3604V38.7792C54.1123 40.0237 52.0025 40.6923 49.8396 40.6938H49.7917Z" fill="#FCD3C4"/>
<path d="M49.8417 40.6938H49.7917C47.775 40.69 45.8019 40.1056 44.1084 39.0104V43.2625C45.9017 44.042 47.8363 44.4441 49.7917 44.4438H49.8396C51.9285 44.4415 53.9913 43.9792 55.8813 43.0896V38.7792C54.1129 40.0233 52.0039 40.6919 49.8417 40.6938Z" fill="#FFC7B5"/>
<path d="M31.5272 61.7625C31.389 61.7625 31.2566 61.8174 31.1589 61.9151C31.0612 62.0127 31.0063 62.1452 31.0063 62.2833V98.4375H32.048V62.2917C32.0491 62.2226 32.0365 62.154 32.0108 62.0898C31.9851 62.0256 31.9469 61.9672 31.8984 61.918C31.85 61.8687 31.7922 61.8296 31.7284 61.8029C31.6647 61.7762 31.5963 61.7625 31.5272 61.7625V61.7625Z" fill="#0777B5"/>
<path d="M68.6978 61.7625C68.5597 61.7625 68.4272 61.8174 68.3296 61.9151C68.2319 62.0127 68.177 62.1452 68.177 62.2833V68.9958H69.2187V62.2917C69.2198 62.2226 69.2071 62.154 69.1814 62.0898C69.1558 62.0256 69.1176 61.9672 69.0691 61.918C69.0206 61.8687 68.9628 61.8296 68.8991 61.8029C68.8354 61.7762 68.7669 61.7625 68.6978 61.7625V61.7625Z" fill="#0777B5"/>
<path d="M41.127 82.2917V80.8333H32.0687C31.2736 80.8357 30.4928 80.6221 29.8096 80.2155C29.1264 79.8088 28.5664 79.2243 28.1893 78.5243C27.8123 77.8244 27.6324 77.0352 27.6687 76.2409C27.7051 75.4467 27.9563 74.6772 28.3957 74.0146C27.7404 74.3673 27.1885 74.8849 26.7947 75.5163C26.4008 76.1477 26.1785 76.871 26.1499 77.6146C26.1496 78.2749 26.2795 78.9289 26.532 79.539C26.7845 80.1492 27.1547 80.7036 27.6216 81.1706C28.0884 81.6376 28.6427 82.0081 29.2527 82.2609C29.8628 82.5137 30.5166 82.6438 31.177 82.6438H39.6103V84.1146H68.6978V82.9167H63.6457V82.2917H41.127Z" fill="#ECAF4E"/>
<path d="M27.6645 76.425C27.6658 75.5658 27.9202 74.726 28.3957 74.0104C27.7404 74.3631 27.1885 74.8807 26.7947 75.5121C26.4008 76.1435 26.1785 76.8668 26.1499 77.6104C26.1514 78.9126 26.6587 80.1632 27.5647 81.0984C28.4708 82.0336 29.7047 82.5803 31.0062 82.6229V80.6834C30.0541 80.4478 29.2081 79.9008 28.6026 79.1292C27.9971 78.3576 27.6669 77.4058 27.6645 76.425V76.425Z" fill="#9BC9FF"/>
<path d="M63.6458 82.9229L63.6479 82.2979H41.127V80.8292H32.0687L32.0479 80.8271V82.6396H39.6104V84.1104H68.6979V82.9229H63.6458Z" fill="#9BC9FF"/>
<path d="M31.0063 80.6833V82.6375H32.048V80.8333C31.696 80.8262 31.3461 80.7758 31.0063 80.6833V80.6833Z" fill="#0777B5"/>
<path d="M30.9125 69.6896C30.9125 69.0363 31.1718 68.4097 31.6336 67.9476C32.0953 67.4855 32.7217 67.2256 33.375 67.225H35.4166C36.0876 67.2257 36.7338 67.4785 37.2271 67.9333L40.5021 70.9521L41.9916 70.9667V81.4583H32.0687C30.7349 81.4583 29.4557 80.9285 28.5126 79.9853C27.5694 79.0422 27.0396 77.763 27.0396 76.4292C27.0398 75.2957 27.4229 74.1955 28.1265 73.3069C28.8302 72.4183 29.8134 71.7934 30.9166 71.5333L30.9125 69.6896Z" fill="#FCD3C4"/>
<path d="M40.5022 68.9958H63.6459V82.9208H40.5022V68.9958Z" fill="#DFF8FF"/>
<path d="M59.675 45.7333L47.3167 82.9229H53.2333L65.6708 46.4479L59.675 45.7333Z" fill="#C1ECFB"/>
<path d="M40.9291 45.6875L34.9312 46.4021L42.6374 68.9958H48.6749L40.9291 45.6875Z" fill="#C1ECFB"/>
<path d="M66.2041 24.8833C65.852 21.8146 63.1853 22.2417 60.4978 22.8167C60.4395 22.8292 60.2458 22.8521 60.1228 22.8667V30.8896C60.1218 31.597 60.0457 32.3024 59.8958 32.9938C60.9307 33.0277 61.9639 32.8869 62.952 32.5771C65.102 31.7354 66.5895 28.2271 66.2041 24.8833V24.8833Z" fill="#FFC7B5"/>
<path d="M39.6584 22.8667C39.5354 22.8521 39.3438 22.8292 39.2854 22.8167C36.5979 22.2417 33.9313 21.8146 33.5792 24.8833C33.1938 28.2167 34.6813 31.7354 36.8292 32.575C37.8188 32.8778 38.8509 33.0185 39.8854 32.9917C39.7355 32.3003 39.6594 31.5949 39.6584 30.8875V22.8667Z" fill="#FFC7B5"/>
<path d="M63.7687 2.01875C63.2129 2.68758 62.5074 3.21607 61.7093 3.56137C60.9112 3.90668 60.043 4.05909 59.175 4.00625C56.05 3.38125 53.6916 1.59375 47.5083 1.59375C42.925 1.59375 35.0895 2.51875 33.6416 9.55625C31.9229 17.9042 39.2791 22.8167 39.2791 22.8167V30.8896C39.2957 33.6801 40.4199 36.3498 42.4046 38.3114C44.3893 40.2731 47.072 41.3661 49.8625 41.35H49.9062C51.2881 41.3582 52.6581 41.0942 53.9379 40.573C55.2178 40.0517 56.3824 39.2835 57.3654 38.3122C58.3483 37.3408 59.1303 36.1854 59.6667 34.9118C60.2031 33.6382 60.4834 32.2715 60.4916 30.8896V22.8167C62.3747 21.4088 63.9566 19.6378 65.1437 17.6083C66.1534 15.6463 66.6549 13.4623 66.602 11.2563C66.7383 7.94413 65.7386 4.68489 63.7687 2.01875V2.01875Z" fill="#FCD3C4"/>
<path d="M60.498 22.8167C60.498 22.8167 59.248 15.7625 57.4209 17.0583C56.3133 18.0268 54.9971 18.7264 53.5748 19.1025C52.1524 19.4787 50.6624 19.5214 49.2209 19.2271C47.0669 18.9476 44.9946 18.2232 43.1355 17.1C42.56 18.5595 41.7693 19.9246 40.7896 21.15C40.3322 21.7437 39.8293 22.3009 39.2855 22.8167C39.2855 22.8167 31.9292 17.9042 33.648 9.55625C35.1063 2.51875 42.9313 1.59375 47.5146 1.59375C53.6917 1.59375 56.0438 3.38333 59.1813 4.00625C60.0483 4.05809 60.9153 3.90519 61.7122 3.55992C62.5092 3.21465 63.2137 2.6867 63.7688 2.01875C65.7373 4.6832 66.7369 7.93999 66.6021 11.25C66.655 13.456 66.1535 15.64 65.1438 17.6021C63.9592 19.6332 62.3795 21.4063 60.498 22.8167V22.8167Z" fill="#404D61"/>
</svg>
