<svg width="100" height="100" viewBox="0 0 100 100" fill="none" xmlns="http://www.w3.org/2000/svg">
<path d="M87.4963 48.3871C87.4963 69.8112 70.1295 87.178 48.7054 87.178C27.2821 87.178 9.91455 69.8112 9.91455 48.3871C9.91455 26.9638 27.2821 9.59702 48.7054 9.59702C70.1295 9.59702 87.4963 26.9638 87.4963 48.3871Z" fill="#6398FF"/>
<path d="M48.7053 87.178C58.6022 87.178 67.6308 83.4709 74.4835 77.3712L60.0197 58.0849H47.0894L45.4727 48.3871C45.4727 48.3871 43.8568 43.5387 42.2402 43.5387C40.6243 43.5387 39.0076 37.0735 39.0076 37.0735L47.0894 32.2243C47.0894 32.2243 61.6356 27.3758 63.2523 25.7599C64.0557 24.9557 67.2554 20.5582 70.2698 16.14C64.1037 12.0079 56.6864 9.59702 48.7053 9.59702C34.3476 9.59702 21.8132 17.3981 15.1055 28.9925H22.8447L29.3099 33.8409L37.3917 48.3871L39.0076 62.9341L30.9265 74.2477L21.5172 76.0521C28.5172 82.9323 38.115 87.178 48.7053 87.178V87.178Z" fill="#9BC9FF"/>
<path d="M72.95 27.3758L71.3333 37.0735H61.6356L60.0197 45.1545L68.1007 54.8523C68.1007 54.8523 72.95 56.4689 74.5659 58.0848C75.3967 58.9157 79.6402 62.3062 83.5708 65.4068C86.084 60.2684 87.4962 54.4929 87.4962 48.3871C87.4962 38.0104 83.4213 28.585 76.7845 21.624L72.95 27.3758Z" fill="#9BC9FF"/>
<path d="M90.4349 73.3489L94.7211 96.4919L92.7207 98.4924L80.4343 83.3488L90.4349 73.3489Z" fill="#FFAB6F"/>
<path d="M83.5778 66.4916L60.434 62.2054L58.4343 64.2059L73.5771 76.4915L83.5778 66.4916Z" fill="#FFAB6F"/>
<path d="M73.2917 83.6349L74.4346 96.2066L72.1489 98.4924L66.4344 90.4922L73.2917 83.6349Z" fill="#E87844"/>
<path d="M73.2918 83.6349L60.7201 82.492L58.4343 84.7778L66.4345 90.4922L73.2918 83.6349Z" fill="#FFAB6F"/>
<path d="M97.2923 59.6343C95.3987 57.7407 90.0429 60.0265 88.1493 61.9201L66.4345 83.6349C64.5409 85.5285 64.5409 88.5986 66.4345 90.4922C68.3281 92.3858 71.3982 92.3858 73.2918 90.4922L95.0066 68.7774C96.9002 66.8838 99.186 61.5279 97.2923 59.6343Z" fill="#F0EEF0"/>
<path d="M92.07 73.8563L96.0777 69.8486C98.4077 67.5185 101.112 61.3097 98.3635 58.5624C95.6161 55.8151 89.4073 58.5182 87.0773 60.8482L83.0696 64.8567L60.7101 60.7154C60.2188 60.6246 59.7152 60.781 59.3628 61.1335L57.3623 63.1339C56.736 63.7603 56.7916 64.8238 57.4791 65.3823L71.3173 76.609L66.436 81.4895L60.8574 80.9829C60.4087 80.9402 59.9662 81.1019 59.6481 81.4201L57.3623 83.7058C56.71 84.3581 56.8031 85.4751 57.5531 86.0107L65.348 91.5778L70.9152 99.3728C71.4515 100.123 72.5677 100.216 73.22 99.5635L75.5058 97.2778C75.8239 96.9596 75.9842 96.5171 75.9437 96.0693L75.4364 90.4899L80.3169 85.6094L91.5435 99.4468C92.1012 100.134 93.1648 100.19 93.7919 99.5635L95.7916 97.5639C96.1448 97.2106 96.3012 96.7071 96.2104 96.2165L92.07 73.8563ZM89.2204 62.9913C90.6181 61.5936 93.5814 60.4247 95.2262 60.4247C95.6756 60.4247 96.0273 60.5117 96.2204 60.7055C97.1237 61.6088 95.7138 65.9271 93.9354 67.7055L72.2206 89.4203C71.3066 90.3343 69.9905 90.6028 68.8377 90.232L73.22 85.8489C73.8121 85.2577 73.8121 84.2979 73.22 83.7066C72.6287 83.1146 71.669 83.1146 71.0777 83.7066L66.6923 88.0912C66.587 87.7631 66.5298 87.4175 66.5298 87.0635C66.5298 86.1732 66.8762 85.3362 67.5064 84.706L89.2204 62.9913ZM60.6941 64.0884L60.942 63.8404L80.4695 67.4567L73.4718 74.4544L60.6941 64.0884ZM61.2899 84.0652L64.1166 84.3223C63.7848 85.0158 63.5833 85.7688 63.5208 86.5493L60.7704 84.5847L61.2899 84.0652ZM72.3419 96.1562L70.375 93.4028C71.141 93.3418 71.8971 93.1426 72.6043 92.8062L72.8614 95.6367L72.3419 96.1562ZM92.8382 96.2318L82.4714 83.4548L89.4699 76.4571L93.0854 95.9846L92.8382 96.2318Z" fill="#1E81CE"/>
<path d="M58.1215 92.7657C57.6118 92.8733 57.0953 92.9732 56.5864 93.0625C55.7625 93.2067 55.2109 93.9918 55.3551 94.8165C55.484 95.552 56.1233 96.0708 56.8458 96.0708C56.9328 96.0708 57.0206 96.0631 57.1091 96.0479C57.6523 95.9525 58.2031 95.8465 58.7471 95.732C59.5657 95.5588 60.0899 94.7547 59.9167 93.9361C59.7443 93.1174 58.9401 92.5941 58.1215 92.7657V92.7657Z" fill="#1E81CE"/>
<path d="M93.3762 40.4808C93.5562 41.5069 93.7027 42.5537 93.8126 43.5928C93.8988 44.4137 94.6564 45.0279 95.4781 44.9417C96.299 44.8547 96.9124 44.0971 96.8262 43.2762C96.7095 42.1676 96.5531 41.0507 96.3608 39.9566C96.2158 39.1319 95.4308 38.5818 94.606 38.726C93.7821 38.871 93.2312 39.6568 93.3762 40.4808V40.4808Z" fill="#1E81CE"/>
<path d="M45.916 3.11203C45.9458 3.11203 45.9755 3.11126 46.006 3.10974C47.0452 3.0487 48.1057 3.02276 49.1501 3.03268H49.1646C49.9947 3.03268 50.6714 2.36282 50.679 1.53045C50.6867 0.694272 50.0145 0.0099149 49.1776 0.00228553C48.0667 -0.0076327 46.9361 0.0190702 45.8283 0.0839201C45.015 0.131985 44.3695 0.843045 44.4031 1.6571C44.4359 2.45819 45.1126 3.11203 45.916 3.11203Z" fill="#1E81CE"/>
<path d="M27.2598 8.2138C27.494 8.2138 27.7313 8.15964 27.9533 8.04519C28.8795 7.56759 29.8347 7.1167 30.7915 6.70471C31.5597 6.37436 31.9153 5.48248 31.5841 4.7142C31.253 3.94516 30.3619 3.59039 29.5929 3.92074C28.5721 4.3602 27.5528 4.84161 26.564 5.35126C25.9682 5.65872 25.6393 6.34384 25.7736 7.00073C25.9163 7.69882 26.548 8.2138 27.2598 8.2138Z" fill="#1E81CE"/>
<path d="M11.3037 20.092C11.9454 20.6116 12.9151 20.5093 13.4346 19.8685C14.0907 19.0575 14.785 18.2587 15.4961 17.4942C16.066 16.8815 16.0317 15.9225 15.419 15.3519C14.8064 14.7827 13.8474 14.817 13.2775 15.4297C12.5191 16.2445 11.779 17.0967 11.0794 17.9611C10.5522 18.6111 10.6529 19.5656 11.3037 20.092Z" fill="#1E81CE"/>
<path d="M19.1261 13.5414C19.4626 13.5414 19.8013 13.43 20.0821 13.2011C20.8916 12.5412 21.7338 11.9026 22.5853 11.3022C23.2689 10.8192 23.4321 9.87395 22.95 9.19036C22.467 8.50676 21.5217 8.3435 20.8381 8.82567C19.9295 9.46654 19.0315 10.1478 18.1679 10.8513C17.6971 11.235 17.4988 11.882 17.6742 12.4634C17.865 13.0966 18.4654 13.5414 19.1261 13.5414Z" fill="#1E81CE"/>
<path d="M55.4123 3.52248C56.4453 3.67583 57.4852 3.86733 58.5029 4.09087C58.612 4.11528 58.7219 4.12672 58.8295 4.12672C59.5253 4.12672 60.1524 3.64455 60.3081 2.93654C60.4881 2.11943 59.9716 1.31148 59.1537 1.13142C58.0681 0.892625 56.9588 0.688157 55.8563 0.524888C55.0278 0.401292 54.2579 0.974259 54.1359 1.80205C54.013 2.62984 54.5845 3.39964 55.4123 3.52248V3.52248Z" fill="#1E81CE"/>
<path d="M36.3182 4.68522C36.4502 4.68522 36.5853 4.66768 36.7188 4.63105C37.7236 4.3564 38.752 4.11302 39.7759 3.90855C40.5968 3.74528 41.1293 2.94648 40.9653 2.12633C40.8013 1.3054 40.0032 0.772108 39.1823 0.936902C38.0898 1.1551 36.9919 1.4145 35.9192 1.70747C35.2051 1.90278 34.7252 2.61232 34.8137 3.34855C34.9045 4.10005 35.5606 4.68522 36.3182 4.68522Z" fill="#1E81CE"/>
<path d="M90.7883 31.4338C91.1789 32.4012 91.5398 33.3954 91.861 34.3872C92.1265 35.2043 93.0481 35.6407 93.8499 35.3325C94.59 35.0471 94.9882 34.2064 94.7441 33.4526C94.4008 32.3936 94.0155 31.3331 93.5989 30.3009C93.2861 29.5242 92.4034 29.1496 91.6267 29.4616C90.8508 29.7752 90.4755 30.6579 90.7883 31.4338V31.4338Z" fill="#1E81CE"/>
<path d="M88.0417 25.7904C88.4857 26.5625 89.5332 26.783 90.2527 26.2558C90.8668 25.8056 91.0484 24.9382 90.6685 24.279C90.1146 23.3162 89.5187 22.3587 88.8969 21.434C88.43 20.7397 87.4885 20.5551 86.7943 21.0212C86.0992 21.4882 85.9146 22.4296 86.3815 23.1247C86.9644 23.9914 87.5229 24.8886 88.0417 25.7904Z" fill="#1E81CE"/>
<path d="M82.5272 18.1648C83.1223 18.8301 84.195 18.8278 84.7893 18.1618C85.2951 17.5941 85.2928 16.7107 84.7863 16.1446C84.0447 15.316 83.265 14.5012 82.4669 13.7245C81.868 13.1401 80.9082 13.1531 80.3246 13.7527C79.7402 14.3524 79.7531 15.3114 80.3528 15.8951C81.1005 16.6237 81.8322 17.3874 82.5272 18.1648Z" fill="#1E81CE"/>
<path d="M64.5309 5.867C65.5083 6.23168 66.4864 6.63528 67.4385 7.0671C68.2419 7.43255 69.2078 7.01369 69.4969 6.18285C69.751 5.45348 69.3939 4.62646 68.6912 4.30755C67.675 3.84673 66.6313 3.41567 65.5884 3.02733C64.8041 2.73589 63.9313 3.13415 63.6398 3.91845C63.3476 4.70275 63.7466 5.57555 64.5309 5.867Z" fill="#1E81CE"/>
<path d="M72.9652 10.0563C73.8472 10.6155 74.72 11.2129 75.5607 11.8309C76.2886 12.3672 77.3475 12.1315 77.7847 11.3434C78.1494 10.6865 77.9609 9.83505 77.3567 9.39026C76.4602 8.73108 75.5287 8.09402 74.588 7.4974C73.8815 7.04803 72.9454 7.25784 72.4967 7.96509C72.0489 8.67157 72.2587 9.60769 72.9652 10.0563Z" fill="#1E81CE"/>
<path d="M6.26001 28.4202C6.99624 28.7964 7.92322 28.4965 8.29858 27.761C8.77313 26.8333 9.28735 25.9086 9.82751 25.0129C10.2593 24.2958 10.0282 23.365 9.311 22.9332C8.5946 22.5006 7.66305 22.7325 7.23123 23.4489C6.65597 24.4049 6.10742 25.3914 5.60083 26.3817C5.21936 27.1263 5.51462 28.0395 6.26001 28.4202Z" fill="#1E81CE"/>
<path d="M14.1809 77.8045C13.6445 77.1758 12.6725 77.0988 12.0446 77.6351C11.4167 78.1707 11.3389 79.1427 11.8745 79.7713C12.597 80.6174 13.3576 81.4498 14.1366 82.2448C14.7546 82.8765 15.8105 82.833 16.3797 82.1586C16.8756 81.5696 16.8397 80.6731 16.3011 80.1246C15.5717 79.3792 14.8576 78.5987 14.1809 77.8045Z" fill="#1E81CE"/>
<path d="M23.5496 86.135C22.6814 85.5552 21.8224 84.9372 20.9969 84.2994C20.3339 83.7874 19.3825 83.9095 18.8713 84.5717C18.3594 85.234 18.4814 86.1854 19.1437 86.6973C20.0241 87.3778 20.9404 88.037 21.8666 88.655C22.6089 89.1509 23.6443 88.8816 24.054 88.0912C24.4049 87.4152 24.1829 86.5577 23.5496 86.135Z" fill="#1E81CE"/>
<path d="M31.8825 90.5227C30.9128 90.1351 29.9439 89.7078 29.0047 89.2539C28.2509 88.89 27.3453 89.2066 26.9806 89.9596C26.6167 90.7134 26.9325 91.619 27.6863 91.9829C28.6896 92.4674 29.7226 92.9229 30.7579 93.3364C30.9425 93.4104 31.1325 93.4455 31.3202 93.4455C31.9214 93.4455 32.4905 93.0846 32.7271 92.4926C33.0376 91.7151 32.6599 90.8332 31.8825 90.5227V90.5227Z" fill="#1E81CE"/>
<path d="M40.9416 93.0831C39.9139 92.9061 38.8794 92.6902 37.8662 92.4415C37.0537 92.2423 36.2328 92.7398 36.0336 93.5531C35.8345 94.3656 36.3319 95.1858 37.1445 95.3849C38.2255 95.6504 39.3303 95.88 40.4266 96.0692C41.2514 96.2111 42.0563 95.6321 42.1822 94.8058C42.3042 94.0001 41.7458 93.2212 40.9416 93.0831V93.0831Z" fill="#1E81CE"/>
<path d="M50.3357 93.7156C49.2973 93.7522 48.23 93.7537 47.1908 93.7201C46.3493 93.6858 45.6543 94.3488 45.6268 95.185C45.5993 96.0212 46.2555 96.7216 47.0917 96.749C47.6249 96.7658 48.1682 96.775 48.7053 96.775C49.2843 96.775 49.8688 96.765 50.4432 96.7444C51.2794 96.7147 51.9333 96.0128 51.9035 95.1766C51.8745 94.3404 51.1734 93.6912 50.3357 93.7156V93.7156Z" fill="#1E81CE"/>
<path d="M1.82268 47.2648C1.85091 47.2671 1.87914 47.2679 1.90737 47.2679C2.70617 47.2679 3.3745 46.643 3.41875 45.8358C3.47674 44.7929 3.57134 43.74 3.70104 42.7063C3.80404 41.8762 3.21505 41.1186 2.38497 41.0148C1.55489 40.9118 0.797293 41.5 0.693533 42.3309C0.555441 43.4333 0.454733 44.5564 0.392935 45.6687C0.347159 46.5042 0.987265 47.219 1.82268 47.2648V47.2648Z" fill="#1E81CE"/>
<path d="M8.84708 70.0523C8.4473 69.3168 7.52643 69.0459 6.79172 69.4465C6.05701 69.8463 5.7854 70.7671 6.18595 71.5018C6.71695 72.4776 7.29068 73.4481 7.88959 74.3865C8.36338 75.1296 9.40097 75.3066 10.0975 74.7672C10.7079 74.2942 10.859 73.4069 10.4447 72.7561C9.88239 71.8764 9.34528 70.967 8.84708 70.0523Z" fill="#1E81CE"/>
<path d="M3.05253 37.6129C3.8498 37.828 4.69513 37.3413 4.91028 36.544C5.18189 35.5369 5.49241 34.5268 5.83344 33.5418C6.10733 32.7514 5.68848 31.8878 4.89808 31.6139C4.10767 31.3408 3.24402 31.7596 2.97013 32.55C2.60621 33.6014 2.27433 34.6794 1.98441 35.7551C1.76621 36.5631 2.24457 37.3947 3.05253 37.6129Z" fill="#1E81CE"/>
<path d="M2.59178 56.9656C3.4188 56.8405 3.98796 56.0684 3.86284 55.2406C3.7072 54.2114 3.58513 53.1616 3.49968 52.1194C3.43177 51.2855 2.70164 50.6668 1.86622 50.7324C1.03233 50.8003 0.411297 51.5312 0.479199 52.3658C0.569989 53.4767 0.700451 54.5967 0.866772 55.6953C0.990368 56.5116 1.77467 57.0892 2.59178 56.9656Z" fill="#1E81CE"/>
<path d="M6.23565 64.347C5.86868 63.3704 5.53146 62.3687 5.23315 61.3693C4.99435 60.5666 4.14977 60.1104 3.34792 60.35C2.54607 60.5895 2.08984 61.4333 2.3294 62.2352C2.64755 63.3018 3.00765 64.3714 3.39904 65.4128C3.70116 66.2177 4.64187 66.6114 5.42922 66.2658C6.15554 65.9469 6.51412 65.0886 6.23565 64.347V64.347Z" fill="#1E81CE"/>
<path d="M95.6016 48.484C94.7624 48.452 94.0643 49.1111 94.0361 49.9473C94.0185 50.4661 93.9918 50.9925 93.9567 51.5098C93.901 52.3338 94.5419 53.0685 95.3659 53.1242C96.1891 53.1799 96.9246 52.539 96.9803 51.715C97.0177 51.1634 97.0466 50.6027 97.065 50.0496C97.0932 49.2134 96.4386 48.5122 95.6016 48.484V48.484Z" fill="#1E81CE"/>
<path d="M86.1015 58.8448C86.219 58.8722 86.3365 58.886 86.4525 58.886C87.1384 58.886 87.7602 58.4167 87.9257 57.7202C88.6467 54.6799 89.0122 51.5404 89.0122 48.3879C89.0122 26.1627 70.9305 8.08182 48.7061 8.08182C44.6198 8.08182 40.5869 8.69141 36.7203 9.8938C35.9215 10.1425 35.4752 10.9917 35.7239 11.7912C35.9726 12.59 36.8218 13.0363 37.6206 12.7876C41.1957 11.676 44.9249 11.1122 48.7061 11.1122C55.8167 11.1122 62.468 13.1149 68.1275 16.584C65.2207 20.7916 62.7464 24.1234 62.188 24.6819C61.2015 25.5745 53.3341 28.5461 46.6103 30.7877C46.5057 30.8228 46.4043 30.8693 46.3097 30.9258L38.2286 35.775C37.6564 36.1183 37.3764 36.795 37.5382 37.442C37.5557 37.5114 37.97 39.1609 38.5994 40.8386C39.3547 42.8535 40.3549 44.9112 42.0593 45.0478C42.5499 45.4292 43.438 47.123 43.9987 48.7579L45.5948 58.3351C45.7169 59.0652 46.3486 59.6008 47.0894 59.6008H60.0197C60.8566 59.6008 61.5349 58.9226 61.5349 58.0856C61.5349 57.2487 60.8566 56.5704 60.0197 56.5704H48.3734L46.9681 48.1392C46.9551 48.0614 46.9353 47.9843 46.9109 47.9088C46.2113 45.8115 44.7395 42.3576 42.5591 42.0464C42.0944 41.5298 41.3406 39.7141 40.7715 37.7831L47.7272 33.6098C48.4726 33.3595 51.722 32.2609 55.0888 31.0204C63.0783 28.0769 63.9191 27.2362 64.3234 26.8318C65.2084 25.9468 68.0809 21.9833 70.6444 18.2724C72.1253 19.3542 73.5237 20.5429 74.8291 21.8262L71.6889 26.5366C71.5698 26.7151 71.4905 26.9165 71.4554 27.1278L70.0501 35.5591H61.6356C60.9139 35.5591 60.2921 36.0687 60.1502 36.7775L58.5335 44.8586C58.4442 45.3079 58.5625 45.7741 58.8554 46.1258L66.9373 55.8235C67.1173 56.0402 67.3546 56.2019 67.6224 56.2912C69.3657 56.8718 72.5014 58.1642 73.4947 59.1576C73.806 59.4681 74.6056 60.1921 77.9495 62.8761C78.2295 63.1004 78.5645 63.2095 78.8971 63.2095C79.3411 63.2095 79.7806 63.0157 80.0797 62.6427C80.6038 61.9904 80.4993 61.0367 79.847 60.5125C76.7128 57.9971 75.8644 57.2411 75.6378 57.0145C74.0616 55.4382 70.3079 54.0215 68.9942 53.5583L61.6478 44.7418L62.8784 38.5895H71.3341C72.0749 38.5895 72.7066 38.0539 72.8287 37.323L74.3912 27.9465L76.957 24.0974C82.5783 30.6267 85.9818 39.1174 85.9818 48.3879C85.9818 51.3054 85.6438 54.2099 84.977 57.0213C84.7839 57.8346 85.2875 58.6517 86.1015 58.8448V58.8448Z" fill="#1E81CE"/>
<path d="M55.9379 86.5357C55.8159 85.7079 55.0445 85.1349 54.2167 85.2585C52.4055 85.527 50.5508 85.6629 48.7053 85.6629C39.6164 85.6629 31.2774 82.3914 24.8016 76.9653L31.2118 75.7362C31.5941 75.663 31.9328 75.4456 32.1594 75.1289L40.2412 63.8146C40.4579 63.5109 40.5548 63.1378 40.5136 62.7663L38.8977 48.2201C38.8756 48.0202 38.8138 47.8272 38.7161 47.6517L30.635 33.1047C30.5313 32.9186 30.3894 32.756 30.2192 32.6286L23.7541 27.7802C23.4916 27.5833 23.1727 27.4765 22.8447 27.4765H17.8032C21.3363 22.2588 26.2176 17.9283 32.1403 14.9857C32.8895 14.6133 33.1955 13.7039 32.8224 12.954C32.4501 12.2055 31.5407 11.8996 30.7914 12.2719C24.1714 15.5617 18.5791 20.6085 14.6202 26.8669C10.5507 33.2993 8.39917 40.741 8.39917 48.3872C8.39917 70.6123 26.4808 88.694 48.7053 88.694C50.6996 88.694 52.7031 88.546 54.6615 88.2561C55.4893 88.134 56.0608 87.3634 55.9379 86.5357ZM11.4303 48.3872C11.4303 41.9823 13.0333 35.8711 15.9568 30.5077H22.3396L28.1425 34.8595L35.9192 48.8571L37.4382 62.5252L30.0461 72.8737L22.2107 74.3759C22.1565 74.3866 22.1031 74.4003 22.0512 74.4164C15.4838 67.6933 11.4303 58.506 11.4303 48.3872V48.3872Z" fill="#1E81CE"/>
</svg>
