<svg width="53" height="55" viewBox="0 0 53 55" fill="none" xmlns="http://www.w3.org/2000/svg">
<g clip-path="url(#clip0_735_1919)">
<path d="M17.4628 15.8029C11.4734 15.8029 6.61807 20.7498 6.61807 26.8522C6.61807 32.9545 11.4734 37.9015 17.4628 37.9015C23.4521 37.9015 28.3074 32.9545 28.3074 26.8522C28.3074 20.7498 23.4521 15.8029 17.4628 15.8029ZM25.4886 22.7087H21.5802C21.2064 20.8004 20.6226 19.258 20.0265 18.068C22.4148 18.7941 24.3753 20.4814 25.4886 22.7087ZM20.1739 26.8522C20.1739 27.6742 20.1135 28.4293 20.0305 29.1541H14.8954C14.812 28.4293 14.7515 27.6741 14.7515 26.8522C14.7515 26.0298 14.811 25.2748 14.8936 24.5502H20.0323C20.1144 25.2748 20.1739 26.0299 20.1739 26.8522ZM17.1998 17.6713C17.2889 17.6687 17.3727 17.6444 17.4628 17.6444C17.5537 17.6444 17.6379 17.6692 17.7283 17.6718C18.4066 18.732 19.2313 20.409 19.7308 22.7087H15.195C15.6968 20.4011 16.5246 18.7248 17.1998 17.6713ZM14.899 18.068C14.305 19.2554 13.7208 20.7996 13.3466 22.7087H9.4369C10.5503 20.4814 12.5108 18.7946 14.899 18.068ZM8.42552 26.8522C8.42552 26.0527 8.55746 25.2903 8.74634 24.5502H13.0721C12.9967 25.2795 12.9441 26.038 12.9441 26.8522C12.9441 27.6668 12.998 28.4244 13.0747 29.1541H8.74634C8.55746 28.414 8.42552 27.6516 8.42552 26.8522ZM9.4369 30.9956H13.351C13.7288 32.9082 14.3134 34.4639 14.8964 35.6355C12.5094 34.9089 10.5498 33.2221 9.4369 30.9956ZM17.7253 36.033C17.6362 36.0357 17.5528 36.0599 17.4628 36.0599C17.3727 36.0599 17.2894 36.0356 17.1998 36.033C16.552 35.0178 15.7083 33.3369 15.1973 30.9956H19.7284C19.2181 33.3354 18.3753 35.0155 17.7253 36.033ZM20.03 35.6355C20.6138 34.4627 21.1981 32.9083 21.5749 30.9956H25.4886C24.3757 33.2218 22.4164 34.9086 20.03 35.6355ZM21.8512 29.1541C21.9276 28.4244 21.9814 27.6668 21.9814 26.8522C21.9814 26.038 21.9293 25.2795 21.8538 24.5502H26.1792C26.3681 25.2903 26.5 26.0528 26.5 26.8522C26.5 27.6516 26.3681 28.414 26.1792 29.1541H21.8512Z" fill="white"/>
<path d="M26.5 43.4261H8.42554V45.2677H26.5V43.4261Z" fill="white"/>
<path d="M39.0829 30.1609L38.147 33.7184L39.8928 34.1952L40.8287 30.6377L39.0829 30.1609Z" fill="white"/>
<path d="M37.2111 37.2726L33.9368 49.7235L35.6826 50.2001L38.9569 37.7492L37.2111 37.2726Z" fill="white"/>
<path d="M49.1239 6.20843L28.1738 0.488803C27.8604 0.403286 27.5457 0.362427 27.2361 0.362427C25.64 0.362542 24.1795 1.44779 23.7466 3.09321L21.8571 10.2783H3.00319C2.00502 10.2783 1.19574 11.1027 1.19574 12.1198V48.9508C1.19574 49.9679 2.00502 50.7924 3.00319 50.7924H23.8793L36.4935 54.236C36.8069 54.3216 37.1214 54.3624 37.4312 54.3624C39.0273 54.3624 40.4878 53.2771 40.9207 51.6316L51.6802 10.7192C52.197 8.75449 51.0524 6.73488 49.1239 6.20843ZM3.00319 48.9508V12.1198H30.1149C31.1117 12.1198 31.9223 12.946 31.9223 13.9614V47.1092C31.9223 48.1246 31.1117 48.9508 30.1149 48.9508H3.00319ZM49.9346 10.2426L39.1751 51.155C38.9633 51.9593 38.2463 52.521 37.4311 52.521C37.2741 52.521 37.116 52.4996 36.9612 52.4572L30.6585 50.7365C32.3948 50.4678 33.7297 48.9537 33.7297 47.1094V32.51L34.6554 32.7628L35.5914 29.2051L33.8452 28.7285L33.7297 29.1686V14.5342C34.2932 14.6881 34.9436 14.8657 35.5742 15.0379L37.7117 22.158L39.2081 22.5666L39.0664 15.9912C40.0491 16.2596 41.0526 16.5334 41.71 16.713L42.8719 18.8005L43.8696 19.0728L43.698 16.1663L45.2729 13.7365L44.2752 13.4641L42.2449 14.6801C41.587 14.5007 40.584 14.2268 39.6008 13.9584L42.9505 8.33634L41.4541 7.92774L36.109 13.0051C35.0578 12.7182 33.911 12.4049 33.2897 12.2355C32.6808 11.076 31.4951 10.2784 30.1148 10.2784H23.7278L25.492 3.57006C25.7038 2.76588 26.4209 2.20421 27.236 2.20409C27.393 2.20409 27.551 2.2255 27.7059 2.26786L48.6561 7.98748C49.1226 8.11478 49.5122 8.41955 49.7536 8.84553C49.9951 9.27139 50.0594 9.76757 49.9346 10.2426Z" fill="white"/>
<path d="M38.6125 25.2932L38.1501 27.0734L39.8677 27.5364L40.33 25.7562L38.6125 25.2932Z" fill="white"/>
<path d="M42.0429 26.2217L41.5806 28.0018L43.2981 28.4649L43.7604 26.6848L42.0429 26.2217Z" fill="white"/>
<path d="M35.1822 24.3675L34.7199 26.1476L36.4374 26.6106L36.8998 24.8305L35.1822 24.3675Z" fill="white"/>
</g>
<defs>
<clipPath id="clip0_735_1919">
<rect width="53" height="54" fill="white" transform="translate(0 0.362427)"/>
</clipPath>
</defs>
</svg>
