<svg width="144" height="144" viewBox="0 0 144 144" fill="none" xmlns="http://www.w3.org/2000/svg">
<circle cx="72" cy="72" r="70" stroke="#1363B9" stroke-width="4"/>
<circle cx="72" cy="72" r="63" fill="url(#paint0_radial_732_1749)"/>
<g style="mix-blend-mode:overlay" opacity="0.8">
<circle cx="72" cy="72" r="63" fill="#1363B9"/>
</g>
<g filter="url(#filter0_d_732_1749)">
<path d="M78.8396 88.2104C82.3099 88.2104 83.663 89.5759 84.6898 92.6072L84.8702 93.1632C85.3558 94.707 85.6449 95.1668 86.2313 95.3827C86.9184 95.6314 87.3748 95.5962 88.0964 95.2701L88.4865 95.0753C88.6271 95.0026 88.7783 94.9158 88.9534 94.8149L90.7124 93.7544C92.3468 92.8042 93.8166 92.1778 95.6022 91.7837C96.1056 91.6904 96.6303 91.7732 97.0663 92.0146C97.5022 92.256 97.8155 92.6373 97.9404 93.0786C98.0653 93.5198 97.9922 93.9867 97.7363 94.3813C97.4804 94.7759 97.0617 95.0675 96.5679 95.195C95.4931 95.4364 94.4674 95.8243 93.5274 96.3446L92.7368 96.7904L91.4633 97.5623C90.968 97.8698 90.4514 98.1495 89.9165 98.3998C88.2105 99.1741 86.547 99.3031 84.7163 98.6345C82.7371 97.9165 81.9412 96.8044 81.1956 94.5967L80.7817 93.3251C80.3015 91.9409 79.9725 91.7297 78.8396 91.7297C78.0172 91.7297 77.1682 92.0934 76.0034 92.9567L75.5152 93.3321L73.0717 95.3874C69.3361 98.4937 66.1497 99.9999 61.5889 99.9999C57.1157 99.9999 53.2474 99.404 50 98.1981L57.5294 96.0701C58.7154 96.1851 60.2623 96.4807 61.5889 96.4807C64.7276 96.4807 66.9801 95.507 69.7792 93.2852L70.4637 92.7245L71.8751 91.5256C72.5013 90.993 72.9735 90.6106 73.4458 90.2586C75.2605 88.9143 76.9081 88.2104 78.8396 88.2104Z" fill="#E84E2C"/>
<path d="M98.2921 50.3705L93.2242 45.5666C91.0263 43.48 87.1856 43.4756 84.9761 45.5666L49.0083 79.676C48.866 79.8088 48.7656 79.9725 48.712 80.1539L44.0453 95.6431C43.9286 96.0302 44.0406 96.4463 44.3416 96.7295C44.5633 96.9398 44.8619 97.0526 45.1676 97.0526C45.2749 97.0526 45.3823 97.0394 45.4896 97.0106L61.8226 92.5851C62.0116 92.5342 62.1866 92.4369 62.3266 92.3041L98.292 58.197C99.3933 57.1504 100 55.7608 100 54.285C100 52.8067 99.3934 51.4171 98.2921 50.3705ZM96.6425 56.6303L60.8895 90.5361L46.864 94.3353L50.8726 81.0368L86.6256 47.131C87.9486 45.8764 90.2563 45.8786 91.5745 47.131L96.6425 51.9349C98.0074 53.2294 98.0074 55.3359 96.6425 56.6303Z" fill="#1363B9" stroke="#1363B9"/>
<path d="M62.3244 90.5339L50.6579 79.0605C50.2029 78.613 49.4632 78.613 49.0082 79.0605C48.5532 79.5079 48.5532 80.2354 49.0082 80.6828L60.6747 92.1563C60.9034 92.3789 61.202 92.4914 61.5007 92.4914C61.7994 92.4914 62.098 92.379 62.3244 92.1563C62.7794 91.7087 62.7794 90.9814 62.3244 90.5339Z" fill="#1363B9" stroke="#1363B9"/>
<path d="M91.6498 51.5C91.1947 51.0657 90.455 51.0657 90 51.5L58.3413 81.3986C57.8862 81.8329 57.8862 82.5389 58.3413 82.9731C58.57 83.1891 58.8686 83.2983 59.1673 83.2983C59.466 83.2983 59.7646 83.1892 59.991 82.9731L91.6498 53.0744C92.1048 52.6402 92.1048 51.9342 91.6498 51.5Z" fill="#1363B9" stroke="#1363B9"/>
</g>
<defs>
<filter id="filter0_d_732_1749" x="39.5" y="43.5" width="65" height="64.4999" filterUnits="userSpaceOnUse" color-interpolation-filters="sRGB">
<feFlood flood-opacity="0" result="BackgroundImageFix"/>
<feColorMatrix in="SourceAlpha" type="matrix" values="0 0 0 0 0 0 0 0 0 0 0 0 0 0 0 0 0 0 127 0" result="hardAlpha"/>
<feOffset dy="4"/>
<feGaussianBlur stdDeviation="2"/>
<feComposite in2="hardAlpha" operator="out"/>
<feColorMatrix type="matrix" values="0 0 0 0 0.0745098 0 0 0 0 0.388235 0 0 0 0 0.72549 0 0 0 0.25 0"/>
<feBlend mode="normal" in2="BackgroundImageFix" result="effect1_dropShadow_732_1749"/>
<feBlend mode="normal" in="SourceGraphic" in2="effect1_dropShadow_732_1749" result="shape"/>
</filter>
<radialGradient id="paint0_radial_732_1749" cx="0" cy="0" r="1" gradientUnits="userSpaceOnUse" gradientTransform="translate(72 72) rotate(-90) scale(63)">
<stop offset="0.854167" stop-color="#EEF5FF"/>
<stop offset="1" stop-color="#E4EFFF"/>
</radialGradient>
</defs>
</svg>
