<svg width="25" height="24" viewBox="0 0 25 24" fill="none" xmlns="http://www.w3.org/2000/svg">
<path fill-rule="evenodd" clip-rule="evenodd" d="M14.7297 21.5405C11.2724 20.2663 4.28278 13.2958 3.0051 9.848C2.479 8.27401 2.479 6.62508 2.92994 5.05109C3.23057 4.15167 3.83183 2.80255 4.65857 2.27788C6.01141 1.52837 7.13877 2.42779 8.11582 3.40216C9.3935 4.60138 10.5209 6.62508 8.94255 8.12411C8.34129 8.79868 7.58972 9.47324 8.19098 10.3727C9.46866 12.2465 12.3246 15.0946 14.2787 16.4437C15.1806 17.0434 15.8571 16.2938 16.4583 15.6193C17.9615 14.1202 19.9907 15.1696 21.2684 16.4437C22.1703 17.4181 23.0722 18.5424 22.3206 19.8915C21.8697 20.716 20.4417 21.3905 19.5398 21.6154C17.9615 22.1401 16.308 22.1401 14.7297 21.5405ZM15.0303 20.8659C18.1118 21.9902 21.1932 20.3412 21.7194 19.5168C22.1703 18.6923 21.7945 18.0177 20.7423 16.9684C19.6901 15.9191 18.1118 14.9447 16.9844 16.1439C15.8571 17.2682 14.9552 17.7179 13.8278 17.0434C11.9489 15.6942 8.8674 12.6962 7.58972 10.7474C6.83814 9.62314 7.28909 8.79868 8.41645 7.59945C9.61897 6.47517 8.64192 4.90119 7.58972 3.85187C6.53751 2.8775 5.86109 2.42779 5.03436 2.95245C4.20762 3.40216 2.55415 6.47517 3.68152 9.62314C4.88404 12.8461 11.7234 19.6667 15.0303 20.8659Z" fill="white"/>
</svg>
