<svg width="61" height="61" viewBox="0 0 61 61" fill="none" xmlns="http://www.w3.org/2000/svg">
<g clip-path="url(#clip0_735_1957)">
<path d="M60.3009 29.1779L58.8681 24.2001C58.7538 23.8276 58.2653 23.3968 57.6667 23.6214C55.8237 24.1521 53.8933 23.0843 53.3629 21.2415C52.8325 19.3988 53.9002 17.4682 55.7435 16.9377C56.136 16.8509 56.6061 16.4431 56.4529 15.8089L55.2103 11.4917C54.8378 10.1976 53.9839 9.12606 52.8056 8.47449C51.6272 7.82281 50.2658 7.6693 48.9717 8.0416L4.1491 20.9429C2.855 21.3154 1.78343 22.1694 1.13187 23.3477C0.480309 24.526 0.326559 25.8876 0.699098 27.1816C1.39836 29.1072 2.3048 32.8953 1.98558 34.9293C1.98558 35.4134 2.37207 35.8089 2.85593 35.8202C4.32816 35.8544 5.61242 36.8262 6.07039 38.1923C5.74425 38.4547 5.36679 38.662 4.94691 38.7935C4.48496 38.9381 4.22304 39.4251 4.35699 39.8902L4.96273 41.9947C4.36765 42.4797 3.63535 42.7524 2.85593 42.7706C2.37195 42.7818 1.98558 43.1773 1.98558 43.6614V48.8414C1.98558 51.621 4.24707 53.8825 7.02675 53.8825H18.3092C18.8014 53.8825 19.2003 53.4836 19.2003 52.9914C19.2003 52.4994 18.8014 52.1003 18.3092 52.1003H7.02675C5.22968 52.1003 3.76765 50.6383 3.76765 48.8414V44.4604C4.37703 44.3446 4.95628 44.1227 5.48351 43.8043L5.78984 44.8681C6.16226 46.1622 7.01621 47.2338 8.19453 47.8853C9.25941 48.4409 10.5645 48.7491 12.0284 48.3181L53.3009 36.4387C52.7664 37.2617 52.4556 38.243 52.4556 39.2954C52.4556 41.9279 54.3998 44.1148 56.9278 44.4962V48.8414C56.9278 50.6384 55.4657 52.1003 53.6688 52.1003H22.5805C22.0883 52.1003 21.6894 52.4992 21.6894 52.9914C21.6894 53.4835 22.0883 53.8825 22.5805 53.8825H53.6689C56.4486 53.8825 58.7099 51.621 58.7099 48.8414V43.6614C58.7026 43.2719 58.3536 42.7224 57.7154 42.7729C55.7978 42.7729 54.2378 41.2129 54.2378 39.2955C54.2378 37.3781 55.7978 35.8181 57.7154 35.8181C58.1167 35.844 58.6813 35.5814 58.7099 34.9296V34.4251C59.1728 34.0339 59.5661 33.5585 59.8682 33.0123C60.5198 31.8336 60.6734 30.4721 60.3009 29.1779ZM3.76765 34.1322V32.0049C6.12148 31.9166 7.92523 34.2476 7.22292 36.4973C6.45417 35.283 5.20414 34.4111 3.76765 34.1322ZM32.4926 35.1149L35.6916 34.1942L37.1424 39.235L33.9435 40.1558L32.4926 35.1149ZM58.3086 32.1495C57.8706 32.9417 57.1872 33.417 56.358 33.7041L43.0298 37.5404L42.9312 37.1978C42.7951 36.7249 42.3005 36.4521 41.8286 36.588C41.3558 36.7242 41.0826 37.2179 41.2188 37.6907L41.3173 38.0331L38.855 38.7419L37.1578 32.8449C37.0925 32.6178 36.9396 32.426 36.7327 32.3116C36.5258 32.1972 36.2821 32.1697 36.055 32.2351L31.1435 33.6487C30.9162 33.7141 30.7245 33.867 30.6101 34.0739C30.4958 34.2807 30.4682 34.5244 30.5337 34.7516L32.2311 40.6485L11.5355 46.6054C10.6987 46.8463 9.81851 46.7469 9.05679 46.3257C8.29507 45.9045 7.74312 45.2117 7.50218 44.375L6.29035 40.1647C8.42996 39.0816 9.588 36.5736 9.01378 34.2387C8.38167 31.6688 6.01578 30.0939 3.4332 30.2384L2.41156 26.6887C2.17086 25.8521 2.27011 24.9718 2.6914 24.2101C3.11257 23.4484 3.80539 22.8963 4.64199 22.6555L34.4238 14.0833L34.5224 14.4259C34.6348 14.8164 34.9912 15.0706 35.3783 15.0706C35.4599 15.0706 35.5429 15.0593 35.6253 15.0356C36.0981 14.8994 36.3712 14.4057 36.235 13.9328L36.1365 13.5904L49.4644 9.75418C50.3012 9.51336 51.1814 9.61273 51.9432 10.034C52.7049 10.4552 53.2569 11.148 53.4978 11.9846L54.5095 15.4996C52.1856 16.5652 50.9222 19.2046 51.6505 21.7345C52.3787 24.2641 54.8501 25.8285 57.3865 25.4953L58.5884 29.6709C58.8291 30.5076 58.7299 31.3878 58.3086 32.1495Z" fill="white"/>
<path d="M38.0724 20.3173L37.4184 18.045C37.2822 17.572 36.7876 17.2991 36.3156 17.4351C35.8428 17.5713 35.5696 18.065 35.7058 18.5379L36.3598 20.8102C36.4905 21.1523 36.8988 21.5818 37.4625 21.4201C37.9355 21.2839 38.2086 20.7902 38.0724 20.3173Z" fill="white"/>
<path d="M39.9102 26.7015L39.256 24.4292C39.1198 23.9562 38.6255 23.6835 38.1532 23.8193C37.6803 23.9555 37.4073 24.4492 37.5434 24.9222L38.1976 27.1946C38.3284 27.5366 38.7365 27.966 39.3003 27.8044C39.7733 27.6682 40.0463 27.1745 39.9102 26.7015Z" fill="white"/>
<path d="M41.0936 30.8136C40.9574 30.3406 40.4628 30.0678 39.9909 30.2038C39.518 30.3399 39.2449 30.8337 39.381 31.3065L40.0351 33.5789C40.1657 33.921 40.574 34.3505 41.1378 34.1888C41.6106 34.0527 41.8838 33.5589 41.7476 33.086L41.0936 30.8136Z" fill="white"/>
<path d="M50.5978 16.7352C50.7122 16.5283 50.7397 16.2846 50.6742 16.0575L49.677 12.5934C49.541 12.1206 49.0467 11.8475 48.5743 11.9836L39.6108 14.5635C39.138 14.6996 38.8648 15.1933 39.001 15.6662L39.998 19.1303C40.1794 19.4713 40.3693 19.879 41.1008 19.7401L50.0643 17.1601C50.2916 17.0948 50.4834 16.942 50.5978 16.7352ZM41.4642 17.7812L40.96 16.0297L48.211 13.9427L48.7152 15.6942L41.4642 17.7812Z" fill="white"/>
<path d="M49.195 30.3076L53.9838 28.9292C54.4566 28.793 54.7298 28.2993 54.5936 27.8263C54.4575 27.3533 53.9629 27.0804 53.491 27.2165L48.7023 28.5949C48.2294 28.731 47.9562 29.2247 48.0924 29.6976C48.2048 30.0882 48.5612 30.3424 48.9482 30.3424C49.0298 30.3426 49.1128 30.3312 49.195 30.3076Z" fill="white"/>
<path d="M54.3744 30.2863L49.5856 31.6646C49.1128 31.8007 48.8396 32.2945 48.9758 32.7673C49.0881 33.158 49.4445 33.4122 49.8316 33.4122C49.9131 33.4122 49.9962 33.4008 50.0785 33.3773L54.8673 31.999C55.3401 31.8629 55.6133 31.3691 55.4771 30.8963C55.3408 30.4231 54.8464 30.1503 54.3744 30.2863Z" fill="white"/>
<path d="M17.553 39.5551L10.7997 41.4989C10.3269 41.6351 10.0537 42.1288 10.1899 42.6016C10.3023 42.9922 10.6586 43.2464 11.0457 43.2464C11.1274 43.2464 11.2104 43.235 11.2926 43.2115L18.0459 41.2677C18.5188 41.1315 18.7919 40.6378 18.6557 40.165C18.5196 39.6919 18.025 39.4191 17.553 39.5551Z" fill="white"/>
<path d="M51.9413 50.1769C52.4335 50.1769 52.8324 49.778 52.8324 49.2858V45.8359C52.8324 45.3438 52.4335 44.9448 51.9413 44.9448H42.1028C41.6106 44.9448 41.2117 45.3437 41.2117 45.8359V49.2858C41.2117 49.7778 41.6106 50.1769 42.1028 50.1769H51.9413ZM42.9938 46.7271H51.0502V48.3949H42.9938V46.7271Z" fill="white"/>
<path d="M37.74 48.2734C38.2321 48.2734 38.6311 47.8745 38.6311 47.3823C38.6311 46.8901 38.2321 46.4912 37.74 46.4912H28.2672C27.775 46.4912 27.3761 46.8901 27.3761 47.3823C27.3761 47.8745 27.775 48.2734 28.2672 48.2734H37.74Z" fill="white"/>
<path d="M28.2844 25.5634C27.9323 25.6648 27.0328 25.9608 25.8382 26.3629L20.7458 21.5418C20.5167 21.325 20.1902 21.2452 19.8868 21.3325L17.1855 22.11C16.7579 22.2426 16.3168 22.8239 16.7055 23.4824L20.1346 28.3091C17.1717 29.3282 14.3495 30.3068 13.4799 30.6086L10.533 29.8435C9.92305 29.6737 9.13743 30.3589 9.53973 31.1556L11.7948 35.0138C12.0699 35.2914 12.2253 35.5575 12.8532 35.4069L14.4692 34.8525C14.9571 34.7401 18.1652 34.001 21.5459 33.2121L21.2075 39.1233C21.2786 39.5529 21.3996 40.1629 22.3435 40.0306L25.0448 39.253C25.3481 39.1657 25.5825 38.9247 25.6612 38.6192L27.4114 31.8285C28.6365 31.5341 29.5561 31.3065 29.9081 31.2052C31.9209 30.6258 32.6954 28.1021 32.7771 27.8162C32.8707 27.4887 32.7693 27.1363 32.5159 26.9086C32.2947 26.7099 30.2957 24.9844 28.2844 25.5634ZM18.8862 23.4749L19.8903 23.1859L23.9291 27.0096C23.2783 27.2312 22.5915 27.466 21.892 27.7057L18.8862 23.4749ZM24.0627 37.6813L23.0586 37.9703L23.3551 32.789C24.075 32.6201 24.7816 32.4538 25.4506 32.2956L24.0627 37.6813ZM29.4153 29.4927C26.2128 30.3416 14.5532 32.9862 13.935 33.1518L12.9652 33.4845L12.1602 32.1072L13.2934 32.4014C14.1362 32.4325 14.3943 32.1112 16.0223 31.614C18.8129 30.6471 23.5771 29.0067 25.9019 28.2221C27.3178 27.7433 28.3977 27.3855 28.7773 27.2761C29.4396 27.0853 30.2968 27.5094 30.855 27.8802C30.5814 28.4899 30.0835 29.3003 29.4153 29.4927Z" fill="white"/>
</g>
<defs>
<clipPath id="clip0_735_1957">
<rect width="60" height="60" fill="white" transform="translate(0.5 0.862427)"/>
</clipPath>
</defs>
</svg>
