<?xml version="1.0" encoding="utf-8"?>
<!-- Generator: Adobe Illustrator 24.3.0, SVG Export Plug-In . SVG Version: 6.00 Build 0)  -->
<svg version="1.1" id="Layer_1" xmlns="http://www.w3.org/2000/svg" xmlns:xlink="http://www.w3.org/1999/xlink" x="0px" y="0px"
	 viewBox="0 0 512 512" style="enable-background:new 0 0 512 512;" xml:space="preserve">
<style type="text/css">
	.st0{fill:#FFFFFF;}
</style>
<g id="Electric_Plug-2">
	<path class="st0" d="M338.1,227c-1.2-1.9-3.2-3-5.4-3h-70.3v-95.8c0-3.5-2.9-6.4-6.4-6.3c-2.4,0-4.6,1.4-5.6,3.5l-76.7,153.3
		c-1.6,3.2-0.3,7,2.8,8.6c0.9,0.4,1.9,0.7,2.9,0.7h70.3v95.8c0,3,2,5.5,4.9,6.2c0.5,0.1,1,0.2,1.5,0.2c2.4,0,4.6-1.4,5.7-3.5
		l76.7-153.3C339.3,231.3,339.2,228.9,338.1,227z M262.4,356.6v-75.1c0-3.5-2.9-6.4-6.4-6.4h-66.3l59.9-119.8v75.1
		c0,3.5,2.9,6.4,6.4,6.4h66.3L262.4,356.6z"/>
	<path class="st0" d="M411.9,144.7c10-12.7,9-30.8-2.4-42.3l-18.1-18.1c-2.5-2.4-6.5-2.4-9,0l-4.5,4.5l-18.1-18.1l-9,9l18.1,18.1
		l-9.1,9.1l-18.1-18.1l-9,9l18.1,18.1l-4.5,4.5c-2.5,2.5-2.5,6.5,0,9l18.1,18.1c9.9,10,25.3,12.2,37.7,5.4
		c21.4,30.1,32.9,66.1,32.8,103c-0.1,98.9-80.3,178.9-179.2,178.9c-23.2,0-46.1-4.5-67.5-13.3l-4.9,11.8c98.1,40.1,210-7,250.1-105
		c9.4-23,14.2-47.6,14.2-72.4C447.7,216,435.2,177.1,411.9,144.7z M400.6,138.6c-7.5,7.4-19.6,7.4-27.1,0L359.9,125L387,97.9
		l13.5,13.5C408,118.9,408,131.1,400.6,138.6z"/>
	<path class="st0" d="M256,64.3C150.2,64.5,64.5,150.2,64.4,256c-0.1,39.9,12.4,78.9,35.7,111.3c-10,12.7-9,30.8,2.4,42.3l18.1,18.1
		c1.2,1.2,2.8,1.9,4.5,1.9c1.7,0,3.3-0.7,4.5-1.9l4.5-4.5l18.1,18.1l9-9l-18.1-18.1l9.1-9.1l18.1,18.1l9-9L161.1,396l4.5-4.5
		c2.5-2.5,2.5-6.5,0-9l-18.1-18.1c-10-9.9-25.3-12.1-37.7-5.4C88.5,328.9,77,292.9,77.1,256C77.3,157.2,157.3,77.2,256,77.1
		c23.3,0,46.3,4.5,67.8,13.4l4.9-11.9C305.6,69.2,280.9,64.3,256,64.3z M111.4,373.4c7.5-7.4,19.6-7.4,27.1,0l13.5,13.6L125,414.1
		l-13.5-13.5C104,393,104,380.9,111.4,373.4z"/>
</g>
</svg>
