<svg width="70" height="71" viewBox="0 0 70 71" fill="none" xmlns="http://www.w3.org/2000/svg">
<path d="M55.7812 58.4686H51.4062V49.7186C51.4062 47.688 52.2129 45.7406 53.6487 44.3048C55.0845 42.869 57.0319 42.0623 59.0625 42.0623C61.0931 42.0623 63.0405 42.869 64.4763 44.3048C65.9121 45.7406 66.7188 47.688 66.7188 49.7186V58.4686H55.7812Z" fill="#6D91CB"/>
<path d="M64.5312 30.0311H62.3438C62.0537 30.0311 61.7755 30.1463 61.5704 30.3514C61.3652 30.5565 61.25 30.8347 61.25 31.1248V38.7811H63.4375V33.3123H64.5312C64.8213 33.3123 65.0995 33.1971 65.3046 32.992C65.5098 32.7868 65.625 32.5086 65.625 32.2186V31.1248C65.625 30.8347 65.5098 30.5565 65.3046 30.3514C65.0995 30.1463 64.8213 30.0311 64.5312 30.0311Z" fill="#808080"/>
<path d="M57.9688 52.9998H60.1562V42.1498C59.7942 42.0946 59.4287 42.0654 59.0625 42.0623C58.6961 42.0676 58.3305 42.0998 57.9688 42.1586V52.9998Z" fill="#273993"/>
<path d="M63.4375 33.3123H64.5312C64.8213 33.3123 65.0995 33.1971 65.3046 32.992C65.5098 32.7868 65.625 32.5086 65.625 32.2186V31.1248C65.625 30.8347 65.5098 30.5565 65.3046 30.3514C65.0995 30.1463 64.8213 30.0311 64.5312 30.0311H62.3438C62.0537 30.0311 61.7755 30.1463 61.5704 30.3514C61.3652 30.5565 61.25 30.8347 61.25 31.1248V35.0142C60.6702 34.6691 60.0177 34.4646 59.3447 34.4169C58.6717 34.3691 57.9968 34.4796 57.3741 34.7394C56.7514 34.9992 56.1982 35.4011 55.7587 35.913C55.3191 36.4249 55.0055 37.0325 54.8428 37.6873H49.2188V39.8748H54.8428C55.0136 40.5304 55.3349 41.1371 55.7812 41.6467C54.1761 42.3004 52.802 43.4172 51.8339 44.8547C50.8658 46.2922 50.3476 47.9854 50.3453 49.7186V58.4686C50.3453 58.7499 50.4571 59.0198 50.6561 59.2188C50.855 59.4177 51.1249 59.5295 51.4062 59.5295H55.6172C55.6709 59.5448 55.7258 59.5558 55.7812 59.5623V61.7498C55.7812 62.6201 56.127 63.4547 56.7423 64.07C57.3577 64.6854 58.1923 65.0311 59.0625 65.0311C59.9327 65.0311 60.7673 64.6854 61.3827 64.07C61.998 63.4547 62.3438 62.6201 62.3438 61.7498V59.5623C62.3992 59.5558 62.4541 59.5448 62.5078 59.5295H66.7188C67.0001 59.5295 67.27 59.4177 67.4689 59.2188C67.6679 59.0198 67.7797 58.7499 67.7797 58.4686V49.7186C67.7777 47.9854 67.2596 46.2921 66.2915 44.8545C65.3233 43.4169 63.949 42.3002 62.3438 41.6467C62.7909 41.1373 63.1129 40.5306 63.2844 39.8748H68.9062V37.6873H63.4375V33.3123ZM59.0625 36.5936C59.4951 36.5936 59.9181 36.7219 60.2778 36.9622C60.6375 37.2026 60.9179 37.5442 61.0835 37.9439C61.2491 38.3437 61.2924 38.7835 61.208 39.2078C61.1236 39.6322 60.9152 40.0219 60.6093 40.3279C60.3034 40.6338 59.9136 40.8421 59.4893 40.9265C59.0649 41.0109 58.6251 40.9676 58.2254 40.8021C57.8257 40.6365 57.484 40.3561 57.2437 39.9964C57.0033 39.6366 56.875 39.2137 56.875 38.7811C56.875 38.2009 57.1055 37.6445 57.5157 37.2343C57.9259 36.824 58.4823 36.5936 59.0625 36.5936ZM61.25 57.3748H56.875V55.1873C56.875 54.6072 57.1055 54.0508 57.5157 53.6405C57.9259 53.2303 58.4823 52.9998 59.0625 52.9998C59.6427 52.9998 60.1991 53.2303 60.6093 53.6405C61.0195 54.0508 61.25 54.6072 61.25 55.1873V57.3748ZM52.4672 49.7186C52.4697 48.1605 53.0235 46.6535 54.0304 45.4645C55.0373 44.2754 56.4324 43.4809 57.9688 43.2217V50.9676C57.0323 51.2094 56.2024 51.7546 55.6088 52.5181C55.0151 53.2816 54.6911 54.2202 54.6875 55.1873V57.4076H52.4672V49.7186ZM60.1562 61.7498C60.1562 62.0399 60.041 62.3181 59.8359 62.5232C59.6308 62.7283 59.3526 62.8436 59.0625 62.8436C58.7724 62.8436 58.4942 62.7283 58.2891 62.5232C58.084 62.3181 57.9688 62.0399 57.9688 61.7498V59.5623H60.1562V61.7498ZM65.6567 49.7186V57.4076H63.4375V55.1873C63.4339 54.2202 63.1099 53.2816 62.5162 52.5181C61.9226 51.7546 61.0927 51.2094 60.1562 50.9676V43.2217C61.6924 43.4812 63.0873 44.2757 64.094 45.4648C65.1006 46.6538 65.6542 48.1606 65.6567 49.7186Z" fill="#353535"/>
<path d="M38.2986 9.83895L33.7871 9.10629V13.4251V20.1731L34.2884 23.6436L38.2986 27.8852L42.8102 30.97L45.3937 29.5047L48.7485 27.2297L51.4863 23.952L52.2575 22.5639V9.10629L47.7459 9.83895L42.8102 8.68213L38.2986 9.83895Z" fill="#CBE6FE"/>
<path d="M43.0173 31.8904L42.6355 31.7169C39.265 30.1849 36.3743 27.913 34.0443 24.9639C33.2499 23.9588 32.8125 22.6947 32.8125 21.4044V7.28107L34.1505 7.85515C35.7817 8.55509 37.1025 8.88104 38.3064 8.88104C40.414 8.88104 42.5046 7.5995 42.5254 7.58658L43.0173 7.28167L43.518 7.57336C43.5386 7.58523 45.707 8.83387 47.8067 8.83387C49.3241 8.83387 50.7785 8.30876 51.8761 7.85124L53.2049 7.29759V21.5401C53.2049 22.7579 52.8288 23.9224 52.1175 24.9087C49.9448 27.9189 47.0131 30.2134 43.4041 31.7281L43.0173 31.8904ZM34.7317 10.1402V21.4044C34.7317 22.2646 35.0223 23.1062 35.5503 23.7742C37.6004 26.3688 40.1214 28.3914 43.0481 29.7915C46.1495 28.4168 48.6757 26.3976 50.561 23.7853C51.0349 23.1285 51.2856 22.3519 51.2856 21.5401V10.1276C50.2587 10.4727 49.0722 10.753 47.8067 10.753C45.8364 10.753 43.9253 9.93216 43.0463 9.49447C42.1809 9.95049 40.3006 10.8003 38.3064 10.8003C37.0032 10.8005 35.7636 10.4947 34.7317 10.1402ZM48.9651 16.1332L47.608 14.7761L41.9652 20.4192L38.8411 17.2951L37.4838 18.6522L41.9652 23.1334L48.9651 16.1332Z" fill="#353535"/>
<path d="M12.4851 47.0202L13.2263 43.3206C13.8121 40.3932 15.3939 37.759 17.7027 35.866C20.0114 33.9731 22.9045 32.9383 25.8901 32.9376C28.8758 32.9381 31.7692 33.9727 34.0781 35.8657C36.3871 37.7586 37.969 40.393 38.5549 43.3206L39.2961 47.0202H12.4851Z" fill="#6D91CB"/>
<path d="M6.83087 55.1733H44.9493V59.4087H6.83087V55.1733Z" fill="#808080"/>
<path d="M8.94858 59.4087V60.4675C8.94858 61.31 9.28325 62.118 9.87896 62.7137C10.4747 63.3094 11.2826 63.6441 12.1251 63.6441C12.9676 63.6441 13.7755 63.3094 14.3713 62.7137C14.967 62.118 15.3016 61.31 15.3016 60.4675V59.4087" fill="#333333"/>
<path d="M36.4785 59.4087V60.4675C36.4785 61.31 36.8132 62.118 37.4089 62.7137C38.0046 63.3094 38.8126 63.6441 39.655 63.6441C40.4975 63.6441 41.3055 63.3094 41.9012 62.7137C42.4969 62.118 42.8316 61.31 42.8316 60.4675V59.4087" fill="#333333"/>
<path d="M15.3016 45.7295C15.296 45.1733 15.4 44.6215 15.6076 44.1055C15.8153 43.5894 16.1225 43.1194 16.5118 42.7221C17.2981 41.9198 18.3708 41.4626 19.4941 41.4513C20.6174 41.4399 21.6992 41.8752 22.5016 42.6615C23.3039 43.4477 23.761 44.5205 23.7724 45.6438H21.6547C21.6547 45.0821 21.4316 44.5435 21.0344 44.1463C20.6373 43.7492 20.0987 43.5261 19.537 43.5261C18.9754 43.5261 18.4367 43.7492 18.0396 44.1463C17.6424 44.5435 17.4193 45.0821 17.4193 45.6438L15.3016 45.7295Z" fill="#808080"/>
<path d="M25.8901 32.9376C25.5174 32.9376 25.1489 32.9546 24.7825 32.9863L12.9192 44.8496L12.4851 47.0202H18.6899L31.4893 34.2209C29.7434 33.3768 27.8293 32.9381 25.8901 32.9376Z" fill="white"/>
<path d="M36.8068 38.9625C36.6702 38.7507 36.5315 38.5336 36.3833 38.3271L27.6902 47.0203H28.749L36.8068 38.9625Z" fill="white"/>
<path d="M34.3609 36.1142L23.4548 47.0203H26.1019L35.6844 37.4378C35.2756 36.9654 34.8332 36.523 34.3609 36.1142Z" fill="white"/>
<path d="M35.4514 37.173H16.3287C18.5547 34.7212 21.6372 33.2179 24.9397 32.9736C28.2422 32.7293 31.5124 33.7625 34.0749 35.86C34.5642 36.2646 35.0242 36.7034 35.4514 37.173Z" fill="#FEBE07"/>
<path d="M7.88971 55.1733C7.88971 52.6459 8.89372 50.222 10.6809 48.4349C12.468 46.6477 14.8919 45.6437 17.4193 45.6437H34.3608C36.8882 45.6437 39.3121 46.6477 41.0993 48.4349C42.8864 50.222 43.8904 52.6459 43.8904 55.1733" fill="#FEBE07"/>
<path d="M36.7326 45.9402C35.0385 49.4873 30.8243 51.9968 25.8901 51.9968C20.9559 51.9968 16.7417 49.4873 15.0475 45.9402C15.823 45.7447 16.6196 45.6451 17.4193 45.6437H34.3608C35.1606 45.6451 35.9572 45.7447 36.7326 45.9402Z" fill="#FEBE07"/>
<path d="M13.1839 53.0556C14.3535 53.0556 15.3016 52.1075 15.3016 50.9379C15.3016 49.7684 14.3535 48.8203 13.1839 48.8203C12.0144 48.8203 11.0663 49.7684 11.0663 50.9379C11.0663 52.1075 12.0144 53.0556 13.1839 53.0556Z" fill="#F6B94D"/>
<path d="M24.8312 45.6437H26.9489V51.9968H24.8312V45.6437Z" fill="#769B42"/>
<path d="M38.5962 53.0556C39.7658 53.0556 40.7139 52.1075 40.7139 50.9379C40.7139 49.7684 39.7658 48.8203 38.5962 48.8203C37.4266 48.8203 36.4785 49.7684 36.4785 50.9379C36.4785 52.1075 37.4266 53.0556 38.5962 53.0556Z" fill="#F6B94D"/>
<path d="M41.2433 44.5849H40.1845C39.3073 44.5849 38.5962 45.296 38.5962 46.1732C38.5962 47.0503 39.3073 47.7614 40.1845 47.7614H41.2433C42.1205 47.7614 42.8316 47.0503 42.8316 46.1732C42.8316 45.296 42.1205 44.5849 41.2433 44.5849Z" fill="#93BC62"/>
<path d="M11.5957 44.5849H10.5368C9.65967 44.5849 8.94858 45.296 8.94858 46.1732C8.94858 47.0503 9.65967 47.7614 10.5368 47.7614H11.5957C12.4729 47.7614 13.184 47.0503 13.184 46.1732C13.184 45.296 12.4729 44.5849 11.5957 44.5849Z" fill="#93BC62"/>
<path d="M6.83087 57.291H44.9493V59.4087H6.83087V57.291Z" fill="#4D4D4D"/>
<path d="M6.83088 60.4676H7.88972C7.88972 61.5909 8.33595 62.6681 9.13023 63.4624C9.92452 64.2567 11.0018 64.7029 12.1251 64.7029C13.2484 64.7029 14.3257 64.2567 15.12 63.4624C15.9142 62.6681 16.3605 61.5909 16.3605 60.4676H35.4197C35.4197 61.5909 35.8659 62.6681 36.6602 63.4624C37.4545 64.2567 38.5317 64.7029 39.655 64.7029C40.7783 64.7029 41.8556 64.2567 42.6499 63.4624C43.4442 62.6681 43.8904 61.5909 43.8904 60.4676H44.9493C45.2301 60.4676 45.4994 60.356 45.698 60.1574C45.8965 59.9589 46.0081 59.6895 46.0081 59.4087V55.1733C46.0081 54.8925 45.8965 54.6232 45.698 54.4246C45.4994 54.2261 45.2301 54.1145 44.9493 54.1145H44.8953C44.688 52.0401 43.8699 50.0738 42.5446 48.4645C43.0537 48.1782 43.4534 47.731 43.681 47.1932C43.9087 46.6553 43.9515 46.0571 43.8026 45.4923C43.6538 44.9276 43.3218 44.4281 42.8586 44.0723C42.3955 43.7164 41.8274 43.5243 41.2433 43.5261H40.1845C40.017 43.5268 39.8499 43.5438 39.6857 43.5769L39.5926 43.1121C38.9561 39.9468 37.2435 37.0995 34.7456 35.0538C32.2477 33.0082 29.1187 31.8904 25.8901 31.8904C22.6614 31.8904 19.5324 33.0082 17.0345 35.0538C14.5366 37.0995 12.824 39.9468 12.1876 43.1121L12.0944 43.5769C11.9302 43.5438 11.7632 43.5268 11.5957 43.5261H10.5368C9.95277 43.5243 9.38465 43.7164 8.92149 44.0723C8.45834 44.4281 8.12633 44.9276 7.97751 45.4923C7.82869 46.0571 7.87145 46.6553 8.09911 47.1932C8.32677 47.731 8.72645 48.1782 9.23551 48.4645C7.91022 50.0738 7.09216 52.0401 6.88488 54.1145H6.83088C6.55005 54.1145 6.28073 54.2261 6.08216 54.4246C5.88359 54.6232 5.77203 54.8925 5.77203 55.1733V59.4087C5.77203 59.6895 5.88359 59.9589 6.08216 60.1574C6.28073 60.356 6.55005 60.4676 6.83088 60.4676ZM12.1251 62.5853C11.5635 62.5853 11.0248 62.3621 10.6277 61.965C10.2305 61.5679 10.0074 61.0292 10.0074 60.4676H14.2428C14.2428 61.0292 14.0197 61.5679 13.6225 61.965C13.2254 62.3621 12.6867 62.5853 12.1251 62.5853ZM39.655 62.5853C39.0934 62.5853 38.5548 62.3621 38.1576 61.965C37.7605 61.5679 37.5374 61.0292 37.5374 60.4676H41.7727C41.7727 61.0292 41.5496 61.5679 41.1525 61.965C40.7553 62.3621 40.2167 62.5853 39.655 62.5853ZM43.8904 58.3499H7.88972V56.2322H43.8904V58.3499ZM40.1845 45.6437H41.2433C41.3837 45.6437 41.5184 45.6995 41.6177 45.7988C41.7169 45.8981 41.7727 46.0328 41.7727 46.1732C41.7727 46.3136 41.7169 46.4482 41.6177 46.5475C41.5184 46.6468 41.3837 46.7026 41.2433 46.7026H40.6864C40.5402 46.5967 40.3983 46.4792 40.2459 46.3775L40.1029 45.6607C40.1295 45.6524 40.1568 45.6467 40.1845 45.6437ZM32.6338 36.1141H19.1463C21.1249 34.7355 23.4785 33.9964 25.8901 33.9964C28.3016 33.9964 30.6552 34.7355 32.6338 36.1141ZM16.8253 38.2318H34.9548C36.2422 39.7519 37.1234 41.5733 37.5162 43.5261L37.8148 45.0148C37.7925 45.0603 37.7639 45.1006 37.7438 45.1471C36.6545 44.7761 35.5116 44.5862 34.3608 44.5849H23.622C23.3868 43.6601 22.8448 42.8426 22.0845 42.2659C21.3242 41.6893 20.3908 41.3878 19.4368 41.4106C18.4829 41.4335 17.565 41.7794 16.8332 42.3918C16.1014 43.0043 15.5992 43.8469 15.4086 44.7818C14.9419 44.8728 14.482 44.9955 14.0321 45.1493C14.012 45.1027 13.9834 45.0624 13.9611 45.0169L14.264 43.5261C14.6568 41.5733 15.538 39.7519 16.8253 38.2318ZM17.4193 46.7026H24.8312V50.8723C23.271 50.787 21.7461 50.3747 20.3554 49.6622C18.9647 48.9497 17.7393 47.9529 16.7586 46.7365C16.9778 46.7195 17.1959 46.7026 17.4193 46.7026ZM17.7137 44.5849C17.8973 44.2634 18.1627 43.9961 18.4829 43.8102C18.8031 43.6244 19.1667 43.5264 19.537 43.5264C19.9073 43.5264 20.2709 43.6244 20.5911 43.8102C20.9114 43.9961 21.1767 44.2634 21.3603 44.5849H17.7137ZM26.9489 46.7026H34.3608C34.5842 46.7026 34.8024 46.7195 35.0215 46.7365C34.0408 47.9529 32.8154 48.9497 31.4247 49.6622C30.034 50.3747 28.5091 50.787 26.9489 50.8723V46.7026ZM10.5368 45.6437H11.5957C11.6233 45.6467 11.6506 45.6524 11.6772 45.6607L11.5343 46.3775C11.3818 46.4834 11.2399 46.5893 11.0938 46.7026H10.5368C10.3964 46.7026 10.2618 46.6468 10.1625 46.5475C10.0632 46.4482 10.0074 46.3136 10.0074 46.1732C10.0074 46.0328 10.0632 45.8981 10.1625 45.7988C10.2618 45.6995 10.3964 45.6437 10.5368 45.6437ZM11.8657 48.7927C12.2803 48.7499 12.6788 48.6093 13.0285 48.3825C13.3782 48.1558 13.6692 47.8493 13.8775 47.4883C14.0893 47.3901 14.3067 47.3008 14.5297 47.2204C16.6781 50.7918 21.0194 53.0557 25.8901 53.0557C30.7608 53.0557 35.102 50.7918 37.2483 47.2204C37.4706 47.3008 37.6881 47.3901 37.9005 47.4883C38.1088 47.8493 38.3998 48.1558 38.7495 48.3825C39.0992 48.6093 39.4977 48.7499 39.9123 48.7927C41.4837 50.1559 42.497 52.0508 42.7585 54.1145H9.02163C9.28254 52.0511 10.2951 50.1563 11.8657 48.7927Z" fill="black"/>
<path d="M13.1839 53.0556C14.3535 53.0556 15.3016 52.1075 15.3016 50.9379C15.3016 49.7684 14.3535 48.8203 13.1839 48.8203C12.0144 48.8203 11.0663 49.7684 11.0663 50.9379C11.0663 52.1075 12.0144 53.0556 13.1839 53.0556Z" fill="black"/>
<path d="M38.5962 53.0556C39.7658 53.0556 40.7139 52.1075 40.7139 50.9379C40.7139 49.7684 39.7658 48.8203 38.5962 48.8203C37.4266 48.8203 36.4785 49.7684 36.4785 50.9379C36.4785 52.1075 37.4266 53.0556 38.5962 53.0556Z" fill="black"/>
</svg>
