<svg width="57" height="57" viewBox="0 0 57 57" fill="none" xmlns="http://www.w3.org/2000/svg">
<g clip-path="url(#clip0_735_1607)">
<path d="M54.8332 39.0899C55.6962 39.0429 56.3821 38.3295 56.3821 37.4538C56.3821 32.7328 52.5925 29.0346 47.7547 29.0346H46.156L44.2019 19.7594C46.0875 18.9401 47.4101 17.0587 47.4101 14.873C47.4101 11.9372 45.0245 9.54865 42.0921 9.54865H34.5327C33.6277 9.54865 32.894 10.2832 32.894 11.1893V13.2324H28.866C27.961 13.2324 27.2273 13.967 27.2273 14.873C27.2273 15.7791 27.961 16.5136 28.866 16.5136H32.894V18.5568C32.894 19.4628 33.6277 20.1974 34.5327 20.1974H35.2603C33.9036 21.8018 33.0829 23.8744 33.0829 26.1364V35.4725C33.0829 35.5204 33.0441 35.5592 32.9963 35.5592H26.3769C26.3388 35.5592 26.3046 35.5337 26.2938 35.4971L24.5093 29.4594C25.9475 29.0747 27.0102 27.7595 27.0102 26.1999C27.0102 22.4968 24.0012 19.4842 20.3027 19.4842H5.53847C2.76034 19.4841 0.5 21.7471 0.5 24.5288C0.5 27.0717 2.38923 29.18 4.83606 29.5235C2.24038 31.8481 0.603578 35.2252 0.603578 38.9783V44.086C0.603578 44.9921 1.33727 45.7266 2.24223 45.7266H3.66006C4.42328 49.5373 7.79072 52.4171 11.818 52.4171C15.8453 52.4171 19.2127 49.5373 19.976 45.7266H40.0211C40.7843 49.5373 44.1518 52.4171 48.1791 52.4171C52.7671 52.4171 56.4999 48.6798 56.4999 44.086C56.5 42.2131 55.8792 40.4829 54.8332 39.0899ZM52.8365 35.8132H49.1476C48.8296 35.7761 48.5069 35.7549 48.1792 35.7549C47.5918 35.7549 47.0189 35.817 46.4657 35.9334V32.3158H47.7548C50.1547 32.3158 52.1389 33.7603 52.8365 35.8132ZM36.1712 12.8298H42.0921C43.2174 12.8298 44.1329 13.7464 44.1329 14.8729C44.1329 15.9995 43.2174 16.916 42.0921 16.916H36.1712V12.8298ZM26.377 38.8404H32.9964C34.8513 38.8404 36.3602 37.3296 36.3602 35.4724V26.1362C36.3602 23.3163 38.3384 20.9501 40.9784 20.3559L43.1885 30.846V37.4242C41.5849 38.6316 40.43 40.4049 40.0212 42.4453H23.7298C22.9645 36.5589 18.1037 32.1549 12.0367 32.1549C9.33127 32.1549 6.90248 33.0387 4.98623 34.5579C6.56911 31.5947 9.6898 29.5736 13.2742 29.5736H21.1258L23.1517 36.4281C23.5712 37.8484 24.8976 38.8404 26.377 38.8404ZM4.014 42.4453C4.30034 40.6999 5.04595 39.1254 6.18619 37.9054C7.67445 36.313 9.75214 35.4361 12.0364 35.4361C16.2629 35.4361 19.6773 38.4063 20.4103 42.4452H4.014V42.4453ZM5.53847 26.2923C4.56733 26.2923 3.7772 25.5012 3.7772 24.5288C3.7772 23.5563 4.56733 22.7652 5.53847 22.7652H20.3027C22.1942 22.7652 23.733 24.3059 23.733 26.1997C23.719 26.2672 23.6109 26.3118 23.4098 26.2921C22.0465 26.2921 22.4363 26.2921 22.1523 26.2921C20.1944 26.2923 5.54798 26.2923 5.53847 26.2923ZM11.818 49.1357C9.6105 49.1357 7.731 47.7078 7.04916 45.7265H16.5869C15.905 47.7078 14.0255 49.1357 11.818 49.1357ZM48.1792 49.1357C45.3981 49.1357 43.1356 46.8704 43.1356 44.0859C43.1356 41.3014 45.3982 39.0362 48.1792 39.0362C50.9603 39.0362 53.2228 41.3014 53.2228 44.0859C53.2228 46.8704 50.9602 49.1357 48.1792 49.1357Z" fill="white"/>
<path d="M48.1792 45.7374C49.0902 45.7374 49.8287 44.998 49.8287 44.086C49.8287 43.1739 49.0902 42.4345 48.1792 42.4345C47.2682 42.4345 46.5297 43.1739 46.5297 44.086C46.5297 44.998 47.2682 45.7374 48.1792 45.7374Z" fill="white"/>
<path d="M2.20734 14.7284H16.9038C17.8088 14.7284 18.5425 13.9939 18.5425 13.0878C18.5425 12.1817 17.8088 11.4472 16.9038 11.4472H2.20734C1.30237 11.4472 0.568687 12.1817 0.568687 13.0878C0.568687 13.9939 1.30237 14.7284 2.20734 14.7284Z" fill="white"/>
<path d="M7.65115 8.00546H22.4743C23.3793 8.00546 24.113 7.2709 24.113 6.36484C24.113 5.45878 23.3793 4.72421 22.4743 4.72421H7.65115C6.74619 4.72421 6.0125 5.45878 6.0125 6.36484C6.0125 7.2709 6.74619 8.00546 7.65115 8.00546Z" fill="white"/>
</g>
<defs>
<clipPath id="clip0_735_1607">
<rect width="56" height="56" fill="white" transform="translate(0.5 0.570587)"/>
</clipPath>
</defs>
</svg>
