<svg width="57" height="57" viewBox="0 0 57 57" fill="none" xmlns="http://www.w3.org/2000/svg">
<g clip-path="url(#clip0_735_1845)">
<path d="M9.60137 11.2617C9.95517 11.5833 10.4272 11.4679 10.7614 11.2092C11.0667 10.8754 11.0437 10.3556 10.7089 10.0503C10.374 9.74385 9.85537 9.76792 9.55005 10.1018C9.24352 10.4366 9.2665 10.9553 9.60137 11.2617Z" fill="white"/>
<path d="M6.94858 15.0098C7.31792 15.2389 7.84965 15.1155 8.07903 14.7471C8.31869 14.3619 8.2005 13.8554 7.8165 13.6167C7.43118 13.3771 6.92461 13.4942 6.68605 13.8793C6.44639 14.2645 6.56348 14.77 6.94858 15.0098Z" fill="white"/>
<path d="M13.5507 8.388C14.177 8.388 14.5902 7.58465 14.2051 7.0725C13.9327 6.71137 13.4172 6.63914 13.0561 6.91163C12.6938 7.18521 12.6215 7.69955 12.8951 8.06178C13.0562 8.27528 13.3024 8.388 13.5507 8.388Z" fill="white"/>
<path d="M5.03252 19.1835C5.42703 19.3342 5.93928 19.1143 6.09512 18.7153C6.25927 18.2929 6.04916 17.8168 5.62674 17.6527C5.20444 17.4885 4.72949 17.6974 4.56534 18.1209C4.39988 18.5435 4.60999 19.0184 5.03252 19.1835Z" fill="white"/>
<path d="M3.92055 23.6385C4.32666 23.7169 4.80292 23.3871 4.8781 22.9819C4.96127 22.5366 4.66798 22.1076 4.22259 22.0255C3.7761 21.9412 3.34832 22.2356 3.26505 22.6809C3.18188 23.1264 3.47516 23.5554 3.92055 23.6385Z" fill="white"/>
<path d="M5.01939 35.6227C4.59698 35.7869 4.38687 36.2618 4.55102 36.6841C4.67687 37.0102 4.98656 37.2095 5.31596 37.2095C5.83697 37.2095 6.27558 36.5936 6.08199 36.0922C5.91773 35.6687 5.4429 35.4586 5.01939 35.6227Z" fill="white"/>
<path d="M4.21384 32.7796C4.66033 32.6975 4.95482 32.2686 4.87165 31.8232C4.78957 31.3779 4.36059 31.0834 3.9152 31.1655C3.4698 31.2486 3.17543 31.6765 3.2575 32.1219C3.33794 32.5694 3.77873 32.8646 4.21384 32.7796Z" fill="white"/>
<path d="M3.64928 28.2228C4.73551 28.1851 4.73573 26.6185 3.64928 26.5813C3.19611 26.5801 2.82852 26.9479 2.82852 27.4009C2.82732 27.855 3.19513 28.2216 3.64807 28.2228H3.64928Z" fill="white"/>
<path d="M49.933 40.0339C49.5511 39.791 49.0433 39.9048 48.8004 40.2867C48.5574 40.6698 48.6701 41.1765 49.0532 41.4205C49.4654 41.653 49.8429 41.5688 50.1859 41.1677C50.4288 40.7847 50.316 40.278 49.933 40.0339Z" fill="white"/>
<path d="M49.3378 13.8486C48.9504 14.0828 48.8267 14.5884 49.0619 14.9758C49.2861 15.3461 49.8199 15.4761 50.1903 15.2516C50.5777 15.0163 50.7001 14.5118 50.466 14.1244C50.2307 13.737 49.7263 13.6134 49.3378 13.8486Z" fill="white"/>
<path d="M46.4858 10.2506C46.1477 10.5526 46.1192 11.0713 46.4213 11.4095C46.7986 11.7512 47.1849 11.7728 47.5802 11.4742C47.9172 11.172 47.9469 10.6534 47.6448 10.3151C47.3428 9.97798 46.824 9.94855 46.4858 10.2506Z" fill="white"/>
<path d="M51.8897 35.8809C51.4683 35.7124 50.9912 35.9171 50.8227 36.3373C50.6215 36.8401 51.0594 37.4634 51.5844 37.4634C51.9105 37.4634 52.218 37.2687 52.3472 36.9468C52.5145 36.5266 52.3099 36.0484 51.8897 35.8809Z" fill="white"/>
<path d="M53.3595 26.856C52.9053 26.8516 52.5343 27.2149 52.5299 27.6691C52.5252 28.1588 52.9298 28.4315 53.3507 28.4975C53.8004 28.4975 54.1671 28.1353 54.1715 27.6855C54.1758 27.2314 53.8125 26.8604 53.3595 26.856Z" fill="white"/>
<path d="M51.7704 19.4977C51.8667 19.4977 51.9642 19.4814 52.0594 19.4453C52.4828 19.2855 52.6973 18.8128 52.5387 18.3882C52.1212 17.3839 50.6544 17.9366 51.0023 18.966C51.1259 19.2953 51.4388 19.4977 51.7704 19.4977Z" fill="white"/>
<path d="M52.1699 23.2446C52.2412 23.6497 52.7134 23.9852 53.1198 23.9111C53.5663 23.8334 53.8652 23.4077 53.7863 22.9612C53.7086 22.5147 53.2829 22.2158 52.8364 22.2947C52.3899 22.3724 52.091 22.7981 52.1699 23.2446Z" fill="white"/>
<path d="M47.2454 43.758C46.9138 43.4483 46.395 43.4669 46.0853 43.7985C45.7768 44.1299 45.7954 44.6498 46.1269 44.9585C46.5191 45.2647 46.9057 45.2511 47.287 44.918C47.5956 44.5853 47.5781 44.0665 47.2454 43.758Z" fill="white"/>
<path d="M53.0431 31.4356C52.5978 31.3481 52.1665 31.6382 52.079 32.0824C51.989 32.5461 52.419 33.0618 52.8855 33.0618C53.2696 33.0618 53.6131 32.7904 53.6899 32.3997C53.7774 31.9545 53.4875 31.5233 53.0431 31.4356Z" fill="white"/>
<path d="M30.4572 51.3734V51.3723C30.0053 51.4095 29.6682 51.8045 29.7043 52.2565C29.7366 52.6542 30.1785 53.0494 30.5885 53.0094C31.0405 52.9733 31.3776 52.5772 31.3414 52.1252C31.3042 51.6733 30.9081 51.3362 30.4572 51.3734Z" fill="white"/>
<path d="M38.9799 49.0523C38.5718 49.2504 38.4021 49.7407 38.6002 50.1489C38.7873 50.5333 39.3134 50.7183 39.6967 50.5287C40.1049 50.3305 40.2745 49.8404 40.0765 49.4321C39.8783 49.025 39.3881 48.8541 38.9799 49.0523Z" fill="white"/>
<path d="M34.8268 50.6095C34.389 50.7289 34.1309 51.1797 34.2501 51.6174C34.3602 52.0213 34.8565 52.3035 35.258 52.1942C36.2974 51.8721 35.885 50.3615 34.8268 50.6095Z" fill="white"/>
<path d="M44.1746 7.08675C44.1735 7.08675 44.1735 7.08675 44.1735 7.08675C43.8157 6.81 43.3003 6.87664 43.0223 7.2346C42.7454 7.59343 42.8121 8.10897 43.171 8.38584C43.575 8.65658 43.9588 8.60745 44.3223 8.23811C44.5992 7.87916 44.5326 7.36373 44.1746 7.08675Z" fill="white"/>
<path d="M42.775 46.7543C42.4105 47.0235 42.3341 47.5378 42.6033 47.9022C42.9624 48.2783 43.345 48.3355 43.7511 48.0739C44.1155 47.8047 44.1921 47.2904 43.9229 46.9261C43.6538 46.5617 43.1394 46.4851 42.775 46.7543Z" fill="white"/>
<path d="M26.0174 51.3252V51.3241C25.5665 51.2782 25.1638 51.6065 25.1169 52.0573C25.0723 52.494 25.4941 52.9623 25.9343 52.9623C26.3502 52.9623 26.7069 52.6472 26.7507 52.2249C26.7967 51.774 26.4684 51.3712 26.0174 51.3252Z" fill="white"/>
<path d="M43.4248 27.5777C43.4248 26.6281 43.0107 25.7736 42.3536 25.1848C43.7599 23.922 43.7617 21.651 42.3536 20.3892C43.7596 19.1266 43.7618 16.856 42.3542 15.5942C44.3577 13.798 43.3046 10.3439 40.6179 10.0033V3.79012C40.6179 1.97593 39.142 0.5 37.3279 0.5H26.9284C25.8673 0.5 25.8673 2.1415 26.9284 2.1415H37.3279C38.237 2.1415 38.9764 2.88116 38.9764 3.79012V4.22446H18.7115V3.79012C18.7115 2.88095 19.4512 2.1415 20.3601 2.1415H27.4542C28.5153 2.1415 28.5153 0.5 27.4542 0.5L20.3601 0.5C18.5459 0.5 17.07 1.97593 17.07 3.79012V15.8053C14.8356 14.3812 11.816 16.065 11.816 18.7076V37.9535L10.2792 39.4973C8.60969 38.7175 6.54599 39.0902 5.24822 40.394C3.51545 42.1345 3.51545 44.9667 5.24822 46.7072L13.3996 54.8959C14.1482 55.648 15.3115 54.49 14.563 53.7379L6.41161 45.5492C5.31453 44.4472 5.31453 42.654 6.41161 41.552C7.49106 40.4676 9.31553 40.4736 10.389 41.552L18.8619 50.0637C19.9587 51.1657 19.9587 52.9588 18.8619 54.0608C17.6075 55.321 15.6573 55.032 14.563 53.7379C13.8142 52.9856 12.6511 54.1439 13.3996 54.8959C17.3109 59.0307 23.5136 54.4202 20.5674 49.5656L22.046 48.0802C26.4878 48.4191 30.8006 45.967 32.793 41.9796H37.3279C39.142 41.9796 40.6179 40.5037 40.6179 38.6895V30.776C42.1986 30.5756 43.4248 29.2217 43.4248 27.5777ZM41.7833 27.5885C41.7833 28.4551 41.0783 29.1601 40.2117 29.1601H38.7787C36.6918 29.0731 36.692 26.0928 38.7787 26.006H40.2117C41.0782 26.006 41.7833 26.7111 41.7833 27.5885ZM41.7833 22.7929C41.7833 23.6595 41.0783 24.3645 40.2117 24.3645H38.7787C36.6918 24.2775 36.692 21.2972 38.7787 21.2104H40.2117C41.0782 21.2104 41.7833 21.9154 41.7833 22.7929ZM41.7833 17.9973C41.7833 18.8639 41.0783 19.5689 40.2117 19.5689H38.7787C36.6918 19.4819 36.692 16.5016 38.7787 16.4148H40.2117C41.0782 16.4148 41.7833 17.1198 41.7833 17.9973ZM41.7833 13.1907C41.7554 14.0308 41.0799 14.7733 40.2117 14.7733H38.7787C36.6919 14.6864 36.692 11.706 38.7787 11.6192H40.2117C41.0782 11.6191 41.7833 12.3242 41.7833 13.1907ZM38.9764 5.86596V9.9776C35.9218 9.82779 34.3916 13.5707 36.6361 15.5939C35.2164 16.8264 35.2169 19.1577 36.6361 20.3895C35.2164 21.622 35.2169 23.9532 36.6361 25.1851C34.3907 27.2099 35.9235 30.9514 38.9764 30.8015V34.9131H23.4136C22.8939 32.1135 21.2801 29.4839 18.7115 28.1432V5.86596H38.9764ZM22.9086 46.4772L21.7591 46.4237C21.5292 46.4145 21.3026 46.5004 21.1393 46.6645L19.4668 48.3447L11.6276 40.4696L13.2185 38.8714C13.3716 38.7177 13.4576 38.5094 13.4576 38.2924V18.7076C13.4576 16.3958 17.0218 16.3958 17.0218 18.7076V28.638C17.0218 28.9652 17.2162 29.2612 17.5166 29.3912C19.4721 30.2374 20.9189 31.9896 21.5905 34.3251C22.348 36.9596 21.9439 39.8679 20.5361 41.9152C19.952 42.7644 21.2611 43.7579 21.8886 42.8454C22.0787 42.569 22.2534 42.2798 22.4128 41.9797H30.918C29.2103 44.7709 26.2212 46.4708 22.9086 46.4772ZM37.3279 40.3382H23.0981C23.476 39.1436 23.6464 37.8522 23.5963 36.5548H38.9764V38.6896C38.9764 39.5985 38.237 40.3382 37.3279 40.3382Z" fill="white"/>
<path d="M21.0566 12.0854C21.4455 12.4009 21.8323 12.3959 22.2171 12.0702L24.6195 9.60422C25.36 8.8442 24.1841 7.69843 23.4437 8.45878L21.0413 10.9248C20.7251 11.2495 20.732 11.7691 21.0566 12.0854Z" fill="white"/>
<path d="M21.0566 17.3624C21.4455 17.6779 21.8323 17.6729 22.2171 17.3472L29.7603 9.60422C30.5008 8.8442 29.3248 7.69843 28.5845 8.45877L21.0413 16.2017C20.7251 16.5264 20.732 17.046 21.0566 17.3624Z" fill="white"/>
</g>
<defs>
<clipPath id="clip0_735_1845">
<rect width="56" height="56" fill="white" transform="translate(0.5 0.5)"/>
</clipPath>
</defs>
</svg>
