<svg width="64" height="65" viewBox="0 0 64 65" fill="none" xmlns="http://www.w3.org/2000/svg">
<g clip-path="url(#clip0_723_1775)">
<circle cx="43.675" cy="44.5323" r="18.9033" fill="#2B67B3"/>
<path d="M35.7227 45.2998C35.488 48.1264 33.4613 50.4091 33.792 53.3318C34.1013 56.0731 34.7307 56.4464 33.504 60.4251C25.5033 55.374 22.3752 45.2472 26.1333 36.5638C26.4225 38.7983 27.8295 40.7319 29.8667 41.6944C32 42.6118 35.9787 42.2491 35.7227 45.2998Z" fill="#5AA2FF"/>
<path d="M54.7733 59.9345C50.082 63.2512 44.146 64.2778 38.6133 62.7291C42.1227 59.5291 45.76 58.7078 50.432 59.0598C51.9101 59.1676 53.3688 59.4615 54.7733 59.9345Z" fill="url(#paint0_linear_723_1775)"/>
<path d="M61.4187 51.6998C59.783 52.118 58.2413 52.8418 56.8747 53.8331C56.765 53.9139 56.6511 53.9887 56.5333 54.0571C52.5653 56.7131 49.7707 55.2091 49.8133 52.7238C49.856 50.2384 51.8827 47.9238 51.8827 44.8731C51.8827 41.8224 49.536 40.4891 46.9333 39.9664C45.5056 39.703 44.215 38.9483 43.2853 37.8331L43.6587 33.3638C45.6533 30.8144 49.088 31.0278 52.192 27.1238C61.262 31.6055 65.2983 42.3563 61.4187 51.6998Z" fill="#5AA2FF"/>
<path d="M39.104 16.6065L43.7333 33.4705C44.3116 35.5756 43.7126 37.829 42.1653 39.3691L41.8347 39.7105C41.6363 39.908 41.3554 39.9987 41.0789 39.9544C40.8025 39.9101 40.564 39.7361 40.4373 39.4865L32.352 23.3585C32.2453 23.3585 32.16 23.6465 30.2187 25.4065C27.338 27.8456 24.3255 30.1246 21.1947 32.2331C20.9084 32.4434 20.7778 32.8059 20.864 33.1505L21.824 37.0118C21.8984 37.3092 21.8137 37.6239 21.6 37.8438L20.7147 38.7185C20.5525 38.882 20.3317 38.9739 20.1013 38.9739C19.871 38.9739 19.6502 38.882 19.488 38.7185C14.4107 33.6411 19.552 38.7931 10.8907 30.1211C10.7272 29.9589 10.6352 29.7381 10.6352 29.5078C10.6352 29.2775 10.7272 29.0567 10.8907 28.8945L11.7653 28.0091C11.9852 27.7954 12.2999 27.7107 12.5973 27.7851L16.4587 28.7451C16.8032 28.8314 17.1657 28.7007 17.376 28.4145C20.832 23.6571 22.5813 20.8838 26.2507 17.2251L10.08 9.16113C9.83033 9.03448 9.65636 8.79596 9.61205 8.51952C9.56774 8.24309 9.65843 7.96214 9.85601 7.76379L10.1973 7.43313C11.7331 5.87848 13.9851 5.26763 16.096 5.83313C32.6827 10.3665 29.632 9.55579 32.96 10.4625L37.8773 5.54513C40.2987 3.12379 43.8613 0.915793 47.2213 1.71579C47.5326 1.7909 47.7756 2.0339 47.8507 2.34513C48.1493 3.62513 48.448 7.26246 44.0213 11.6891L39.104 16.6065Z" fill="#FEBE07"/>
<path d="M45.4293 24.0518C45.8958 23.5395 46.1643 22.8777 46.1867 22.1852C46.1867 20.7238 45.344 20.1052 44.16 18.9212C43.2445 18.0175 41.829 17.8587 40.736 18.5372L40.2987 16.9265L44.8 12.4465C49.568 7.67849 49.2587 3.62515 48.9173 2.11049C48.7444 1.39128 48.1777 0.832874 47.456 0.670487C45.9413 0.318486 41.888 0.01982 37.12 4.76649L32.64 9.26782L31.0293 8.83049C31.6999 7.73574 31.5417 6.32551 30.6453 5.40649L29.4187 4.17982C28.8759 3.65279 28.1458 3.36334 27.3894 3.37535C26.633 3.38736 25.9124 3.69983 25.3867 4.24382L22.9867 6.63316L16.3733 4.83049C13.8985 4.1569 11.2525 4.86114 9.44001 6.67582L9.09867 7.01716C8.66829 7.45797 8.47269 8.07689 8.57158 8.68498C8.67048 9.29306 9.05212 9.81811 9.60001 10.0998L16.7573 13.6838C16.4648 14.2974 16.2532 14.9464 16.128 15.6145C15.9685 16.4907 16.2607 17.3883 16.9053 18.0028C17.5499 18.6174 18.4604 18.8663 19.328 18.6652C20.6952 18.353 21.9703 17.7246 23.0507 16.8305L24.4267 17.5665C21.376 20.7665 19.9787 22.8998 16.544 27.7212L12.8 26.7505C12.1429 26.5903 11.4497 26.7798 10.9653 27.2518L10.08 28.1372C9.32462 28.8948 9.32462 30.1208 10.08 30.8785L18.6773 39.4758C19.435 40.2312 20.661 40.2312 21.4187 39.4758L22.2933 38.5905C22.7787 38.1182 22.9776 37.4242 22.816 36.7665L21.888 33.0332C25.4575 30.6672 28.8383 28.0282 32 25.1398L32.6827 26.5052C32.3159 26.9432 31.991 27.4146 31.712 27.9132C23.8125 33.7138 21.1955 44.3359 25.4961 53.1423C29.7968 61.9488 39.7829 66.4161 49.2146 63.7528C58.6463 61.0896 64.8209 52.059 63.8803 42.3037C62.9397 32.5485 55.1534 24.864 45.3867 24.0518H45.4293ZM50.464 27.4118C48.1173 29.6838 45.9733 29.9718 44.2133 31.2945L42.9333 26.5798L43.392 26.1105C45.8133 26.059 48.2196 26.5018 50.464 27.4118ZM41.6 20.4998C41.8641 20.2062 42.3145 20.1778 42.6133 20.4358C44.544 22.3665 44.576 21.8758 42.2507 24.2012L41.3547 20.7665L41.6 20.4998ZM26.8907 5.75849C27.1517 5.46165 27.6023 5.42844 27.904 5.68382L29.1307 6.89982C29.2718 7.04591 29.3452 7.24447 29.333 7.44722C29.3209 7.64997 29.2243 7.83833 29.0667 7.96649L28.8 8.21182L25.3867 7.28382L26.8907 5.75849ZM18.976 16.5745C18.765 16.6453 18.5325 16.6052 18.3573 16.4678C18.2161 16.2944 18.1757 16.0599 18.2507 15.8492C18.3512 15.4338 18.4942 15.0299 18.6773 14.6438L20.9067 15.7638C20.3074 16.1294 19.6566 16.4026 18.976 16.5745ZM31.5947 22.6118C27.968 26.2278 25.2907 27.9452 20.5333 31.3692C19.8827 31.8252 19.5848 32.6381 19.7867 33.4065L20.7253 37.1612L20.064 37.8332L11.7333 29.5025L12.3947 28.8412L16.1493 29.7798C16.9176 29.9785 17.7287 29.6812 18.1867 29.0332L21.4613 24.4465C25.856 18.3025 27.4453 18.2492 27.2427 17.0438C27.1864 16.707 26.9722 16.4176 26.6667 16.2652L10.8053 8.32916C12.0745 6.95484 14.0044 6.40345 15.808 6.89982L32.384 11.4225C32.9369 11.5704 33.5266 11.4118 33.9307 11.0065L38.6347 6.31316C42.496 2.44115 45.568 2.48382 46.8373 2.73982C47.0933 3.99849 47.136 7.08116 43.264 10.9425L38.5707 15.6465C38.1654 16.0505 38.0068 16.6403 38.1547 17.1932L42.6667 33.7585C43.1505 35.5641 42.5963 37.4891 41.2267 38.7612L33.3013 22.8998C33.15 22.5921 32.8599 22.376 32.5217 22.3189C32.1836 22.2619 31.8386 22.3709 31.5947 22.6118ZM34.9227 30.8892C34.499 31.0944 34.051 31.2449 33.5893 31.3372C33.4147 31.3865 33.227 31.3375 33.0987 31.2092C32.9703 31.0808 32.9214 30.8932 32.9707 30.7185C33.1347 29.9918 33.4157 29.2965 33.8027 28.6598L34.9227 30.8892ZM34.6667 45.2998C34.4427 47.9345 32.3627 50.2812 32.7253 53.5558C33.0027 55.9985 33.472 56.2972 32.8747 58.7932C26.9813 54.4207 24.3311 46.9091 26.176 39.8065C26.8894 41.1109 28.0146 42.1423 29.376 42.7398C31.7547 43.6572 34.8267 43.3052 34.6667 45.2998ZM41.0667 62.2172C42.1995 61.4206 43.463 60.8286 44.8 60.4678C47.1867 59.9562 49.6501 59.9127 52.0533 60.3398C48.6792 62.0921 44.8368 62.7306 41.0773 62.1638L41.0667 62.2172ZM54.5707 58.8145C51.221 57.8299 47.6773 57.7051 44.2667 58.4518C42.0988 59.0168 40.0909 60.0755 38.4 61.5452C37.1391 61.1567 35.9261 60.6271 34.784 59.9665C35.3938 58.1944 35.4863 56.2853 35.0507 54.4625C34.7307 52.6065 34.6347 52.0625 35.7547 49.2038C36.2945 48.0047 36.6539 46.7322 36.8213 45.4278C36.9809 43.9165 36.1061 42.4863 34.688 41.9398C33.0987 41.2465 31.552 41.2465 30.2507 40.7132C28.6773 39.9203 27.5731 38.4282 27.2747 36.6918C28.0332 35.0333 29.0364 33.498 30.2507 32.1372C30.464 31.9025 30.7093 31.6892 30.9333 31.4545C31.0343 31.9313 31.2714 32.3685 31.616 32.7132C32.8107 33.9185 34.3893 33.5025 35.8827 32.8092L39.4667 39.9665C39.7468 40.5223 40.2763 40.91 40.8907 41.0093C41.5051 41.1085 42.1299 40.9072 42.5707 40.4678C42.8922 40.1554 43.195 39.8241 43.4773 39.4758C44.4265 40.1919 45.5174 40.6974 46.6773 40.9585C48.5547 41.3638 50.784 42.3878 50.7947 44.8732C50.7947 47.6252 48.7787 50.0358 48.7253 52.7025C48.672 55.3692 50.8587 56.8198 53.344 56.4892C55.8293 56.1585 57.3333 54.6012 59.2107 53.6518C58.01 55.6365 56.4383 57.3712 54.5813 58.7612L54.5707 58.8145ZM60.5973 50.8785C59.0232 51.3466 57.5354 52.0671 56.192 53.0118L56.064 53.0972C55.1821 53.7533 54.1596 54.1952 53.0773 54.3878C51.8613 54.5478 50.8373 54.0038 50.8693 52.7558C50.8693 50.6225 52.9387 48.1158 52.9387 44.8838C52.9387 41.8758 50.8053 39.6892 47.1467 38.8785C46.1685 38.6831 45.2616 38.2259 44.5227 37.5558C44.9923 36.2794 45.0885 34.8956 44.8 33.5665C46.56 31.7212 49.472 31.6358 52.48 28.3398C60.4812 32.7049 63.9688 42.353 60.608 50.8252L60.5973 50.8785Z" fill="#353535"/>
<path d="M14.304 60.3292C7.89334 57.4385 4.05334 53.0972 2.90134 47.4332C1.20534 39.1025 5.81334 29.4918 10.816 24.0838C11.1692 23.6483 11.1248 23.0137 10.7145 22.6315C10.3043 22.2493 9.6681 22.25 9.25868 22.6332C3.71201 28.5958 -1.06666 38.7185 0.810678 47.8385C2.13334 54.2278 6.40001 59.0918 13.4293 62.2705C13.9565 62.4699 14.5477 62.2248 14.7792 61.711C15.0107 61.1972 14.8026 60.5919 14.304 60.3292Z" fill="#353535"/>
<path d="M12.4907 38.5904C12.9089 38.1722 12.9089 37.494 12.4907 37.0758C12.0724 36.6575 11.3943 36.6575 10.976 37.0758C6.144 41.9184 6.4 52.2971 16.48 58.9851C16.6518 59.1054 16.857 59.1688 17.0667 59.1665C17.5345 59.1628 17.9453 58.8548 18.08 58.4068C18.2146 57.9588 18.0416 57.4754 17.6533 57.2144C8.84267 51.3371 8.53333 42.5264 12.4907 38.5904Z" fill="#353535"/>
<path d="M17.856 48.1051C17.5811 46.6224 17.9711 45.0937 18.9227 43.9238C19.1246 43.7235 19.2382 43.4509 19.2382 43.1665C19.2382 42.8821 19.1246 42.6094 18.9227 42.4092C16.8747 40.3718 12.5227 48.6065 19.5413 55.6571C19.9596 56.0754 20.6378 56.0754 21.056 55.6571C21.4743 55.2389 21.4743 54.5607 21.056 54.1425C19.3497 52.5403 18.2241 50.4166 17.856 48.1051Z" fill="#353535"/>
<path d="M12.8 21.8332C13.3891 21.8332 13.8667 21.3556 13.8667 20.7665C13.8667 20.1774 13.3891 19.6998 12.8 19.6998C12.2109 19.6998 11.7333 20.1774 11.7333 20.7665C11.7333 21.3556 12.2109 21.8332 12.8 21.8332Z" fill="#353535"/>
</g>
<defs>
<linearGradient id="paint0_linear_723_1775" x1="46.6933" y1="58.9843" x2="46.6933" y2="63.4356" gradientUnits="userSpaceOnUse">
<stop stop-color="#D4E1F4"/>
<stop offset="1" stop-color="#D4E1F4" stop-opacity="0"/>
</linearGradient>
<clipPath id="clip0_723_1775">
<rect width="64" height="64" fill="white" transform="translate(0 0.499817)"/>
</clipPath>
</defs>
</svg>
