<svg width="144" height="144" viewBox="0 0 144 144" fill="none" xmlns="http://www.w3.org/2000/svg">
<circle cx="72" cy="72" r="70" stroke="white" stroke-opacity="0.7" stroke-width="4"/>
<circle cx="72" cy="72" r="63" fill="url(#paint0_radial_731_4047)"/>
<g style="mix-blend-mode:color" opacity="0.5">
<circle cx="72" cy="72" r="63" fill="#36B37E"/>
</g>
<path d="M90.2767 87.1668H77.8312C75.258 87.1668 73.1641 85.0729 73.1641 82.4997V76.2769C73.1641 73.7037 75.258 71.6098 77.8312 71.6098H90.2767C91.1354 71.6098 91.8324 70.9128 91.8324 70.054C91.8324 69.1953 91.1354 68.4983 90.2767 68.4983H77.8312C73.5405 68.4983 70.0527 71.9862 70.0527 76.2767V82.4995C70.0527 86.7902 73.5406 90.278 77.8312 90.278H90.2767C91.1354 90.278 91.8324 89.581 91.8324 88.7222C91.8324 87.8635 91.1354 87.1668 90.2767 87.1668Z" fill="url(#paint1_linear_731_4047)"/>
<path d="M109.136 56.1263L91.7554 38.7461C89.9383 36.929 86.9732 36.929 85.1561 38.7461L64.2817 59.6203C63.675 60.2271 63.675 61.2134 64.2817 61.8201C64.8884 62.4269 65.8748 62.4269 66.4815 61.8201L87.3527 40.9457C87.9594 40.339 88.9458 40.339 89.5525 40.9457L106.933 58.3259C107.539 58.9327 107.539 59.919 106.933 60.5258L89.1698 78.2887C88.5631 78.8954 88.5631 79.8818 89.1698 80.4885C89.4748 80.7902 89.8729 80.9428 90.2712 80.9428C90.6695 80.9428 91.0677 80.7904 91.3727 80.4885L109.136 62.7256C110.956 60.9054 110.956 57.9465 109.136 56.1263Z" fill="url(#paint2_linear_731_4047)"/>
<path d="M94.2222 41.2139C93.6155 40.6072 92.6291 40.6072 92.0224 41.2139L73.6186 59.6178C73.0119 60.2245 73.0119 61.2109 73.6186 61.8176C73.9236 62.1194 74.3217 62.2719 74.72 62.2719C75.1184 62.2719 75.5165 62.1195 75.8184 61.8176L94.2222 43.4137C94.8289 42.807 94.8289 41.8206 94.2222 41.2139Z" fill="url(#paint3_linear_731_4047)"/>
<path d="M98.8882 45.8831C98.2815 45.2764 97.2952 45.2764 96.6884 45.8831L82.9516 59.62C82.3449 60.2267 82.3449 61.2131 82.9516 61.8198C83.2566 62.1215 83.6547 62.2741 84.053 62.2741C84.4514 62.2741 84.8495 62.1217 85.1514 61.8198L98.8882 48.0829C99.4949 47.4762 99.4949 46.4899 98.8882 45.8831Z" fill="url(#paint4_linear_731_4047)"/>
<path d="M80.943 74.7199C78.3698 74.7199 76.2759 76.8138 76.2759 79.387C76.2759 81.9602 78.3698 84.0541 80.943 84.0541C83.5161 84.0541 85.61 81.9602 85.61 79.387C85.61 76.8138 83.5161 74.7199 80.943 74.7199ZM80.943 80.9426C80.0873 80.9426 79.3872 80.2425 79.3872 79.3868C79.3872 78.5312 80.0873 77.8311 80.943 77.8311C81.7986 77.8311 82.4987 78.5312 82.4987 79.3868C82.4987 80.2425 81.7986 80.9426 80.943 80.9426Z" fill="url(#paint5_linear_731_4047)"/>
<path d="M84.0533 59.1691H40.4937C39.6381 59.1691 38.938 58.4691 38.938 57.6134C38.938 56.7577 39.6381 56.0576 40.7488 56.0359L78.0855 49.8069C78.9319 49.6639 79.5074 48.8642 79.3643 48.0178C79.2212 47.1684 78.4059 46.5867 77.5752 46.7391L40.4937 52.9463C37.9206 52.9463 35.8267 55.0402 35.8267 57.6134V94.95C35.8267 97.5232 37.9206 99.6171 40.4937 99.6171H84.0533C88.3439 99.6171 91.8317 96.1292 91.8317 91.8387V66.9475C91.8317 62.6569 88.3438 59.1691 84.0533 59.1691ZM88.7204 91.8387C88.7204 94.4119 86.6264 96.5058 84.0533 96.5058H40.4937C39.6381 96.5058 38.938 95.8057 38.938 94.95V62.0128C39.4234 62.1871 39.9492 62.2805 40.4937 62.2805H84.0533C86.6264 62.2805 88.7204 64.3744 88.7204 66.9475V91.8387Z" fill="url(#paint6_linear_731_4047)"/>
<defs>
<radialGradient id="paint0_radial_731_4047" cx="0" cy="0" r="1" gradientUnits="userSpaceOnUse" gradientTransform="translate(72 72) rotate(-90) scale(63)">
<stop offset="0.854167" stop-color="#EEF5FF"/>
<stop offset="1" stop-color="#E4EFFF"/>
</radialGradient>
<linearGradient id="paint1_linear_731_4047" x1="80.9426" y1="68.4983" x2="80.9426" y2="90.278" gradientUnits="userSpaceOnUse">
<stop stop-color="#36B37E"/>
<stop offset="0.510417" stop-color="#51D39C"/>
<stop offset="1" stop-color="#36B37E"/>
</linearGradient>
<linearGradient id="paint2_linear_731_4047" x1="87.1637" y1="37.3832" x2="87.1637" y2="80.9428" gradientUnits="userSpaceOnUse">
<stop stop-color="#36B37E"/>
<stop offset="0.510417" stop-color="#51D39C"/>
<stop offset="1" stop-color="#36B37E"/>
</linearGradient>
<linearGradient id="paint3_linear_731_4047" x1="83.9204" y1="40.7589" x2="83.9204" y2="62.2719" gradientUnits="userSpaceOnUse">
<stop stop-color="#36B37E"/>
<stop offset="0.510417" stop-color="#51D39C"/>
<stop offset="1" stop-color="#36B37E"/>
</linearGradient>
<linearGradient id="paint4_linear_731_4047" x1="90.9199" y1="45.4281" x2="90.9199" y2="62.2741" gradientUnits="userSpaceOnUse">
<stop stop-color="#36B37E"/>
<stop offset="0.510417" stop-color="#51D39C"/>
<stop offset="1" stop-color="#36B37E"/>
</linearGradient>
<linearGradient id="paint5_linear_731_4047" x1="80.943" y1="74.7199" x2="80.943" y2="84.0541" gradientUnits="userSpaceOnUse">
<stop stop-color="#36B37E"/>
<stop offset="0.510417" stop-color="#51D39C"/>
<stop offset="1" stop-color="#36B37E"/>
</linearGradient>
<linearGradient id="paint6_linear_731_4047" x1="63.8292" y1="46.7148" x2="63.8292" y2="99.6171" gradientUnits="userSpaceOnUse">
<stop stop-color="#36B37E"/>
<stop offset="0.510417" stop-color="#51D39C"/>
<stop offset="1" stop-color="#36B37E"/>
</linearGradient>
</defs>
</svg>
