<svg width="144" height="144" viewBox="0 0 144 144" fill="none" xmlns="http://www.w3.org/2000/svg">
<circle cx="72" cy="72" r="70" stroke="#B82019" stroke-width="4"/>
<circle cx="72" cy="72" r="63" fill="url(#paint0_radial_732_2201)"/>
<g style="mix-blend-mode:overlay" opacity="0.8">
<circle cx="72" cy="72" r="63" fill="#B82019"/>
</g>
<g filter="url(#filter0_d_732_2201)">
<path d="M85.4589 57.9475C85.3239 57.3975 84.939 56.5975 84.2464 56.1275V49.4999C84.2464 45.4724 83.0164 43.82 81.7189 42.8624C81.4764 40.9225 79.3965 37 71.7463 37C64.0013 37 59.2463 44.28 59.2463 49.5V56.1276C58.5538 56.5976 58.1713 57.4001 58.0338 57.9476C58.0088 58.0451 57.9963 58.1477 57.9963 58.2501C57.9963 60.3075 59.1987 63.3726 59.3363 63.7151C59.4863 64.0877 59.7063 64.3352 60.0963 64.4327C60.2337 64.5002 60.4962 64.8652 60.4962 65.7502C60.4962 68.1252 62.2788 70.7652 64.1937 72.5202C63.9312 74.1577 62.7112 78.4752 60.1038 79.5652L49.0088 83.2627C46.1563 84.2127 44.0188 86.5227 43.2863 89.4427L41.7838 95.4475C41.6164 96.1175 42.0214 96.795 42.6938 96.9625C42.7963 96.9875 42.8963 97 42.9963 97C43.5588 97 44.0688 96.6225 44.2062 96.05L45.7087 90.0449C46.2287 87.9599 47.7587 86.3075 49.7962 85.6299L60.9762 81.8999C65.3037 80.0975 66.7462 73.5849 66.7462 71.9975C66.7462 71.6249 66.5787 71.2724 66.2912 71.035C64.6537 69.68 62.9962 67.43 62.9962 65.7475C62.9962 63.88 62.2237 62.845 61.4912 62.355C61.1336 61.3776 60.5561 59.5926 60.5012 58.4301C60.5336 58.335 60.5561 58.2501 60.4961 58.2501C61.1861 58.2501 61.7462 57.69 61.7462 57V49.5C61.7462 45.4225 65.6437 39.5001 71.7461 39.5001C77.5511 39.5001 79.0511 42.0701 79.2261 43.0601C79.1786 43.2302 79.1561 43.4001 79.1736 43.5476C79.2461 44.2352 79.7561 44.5577 80.0586 44.7501C80.5635 45.0701 81.7461 45.8201 81.7461 49.5V57.0025C81.7461 57.6925 82.1586 58.205 82.8486 58.205C82.8885 58.24 82.9461 58.34 82.9911 58.4399C82.9335 59.6 82.3611 61.3775 82.0011 62.3574C81.2685 62.8449 80.496 63.8823 80.496 65.7498C80.496 67.1673 80.011 67.8048 79.581 68.3673C79.476 68.5074 79.381 68.6349 79.3011 68.7523C78.9186 69.3273 79.0736 70.1023 79.6485 70.4873C80.2185 70.8698 80.9961 70.7147 81.381 70.1423L81.5685 69.8848C82.1035 69.1848 82.996 68.0123 82.996 65.7498C82.996 64.8648 83.261 64.4998 83.2985 64.4623C83.6885 64.3673 84.0059 64.0873 84.1559 63.7148C84.296 63.3722 85.496 60.3073 85.496 58.2497C85.4964 58.1475 85.4839 58.0475 85.4589 57.9475Z" fill="#B82019" stroke="#B82019" stroke-width="0.7"/>
<path d="M77.9189 95.7501H42.9189" stroke="#B82019" stroke-width="3" stroke-linejoin="round"/>
<path d="M100.644 71.9849L90.6443 69.4849C90.4442 69.4324 90.2393 69.4324 90.0392 69.4849L80.0393 71.9849C79.4818 72.1249 79.0918 72.6249 79.0918 73.1974V88.1974C79.0918 92.0624 87.3343 95.7974 89.8618 96.85C90.0143 96.915 90.1793 96.9475 90.3418 96.9475C90.5043 96.9475 90.6693 96.915 90.8218 96.85C93.3493 95.8 101.592 92.065 101.592 88.1974V73.1974C101.592 72.6224 101.202 72.1248 100.644 71.9849ZM99.0917 88.1973C99.0917 89.6148 94.5743 92.5023 90.3417 94.3398C86.1066 92.5023 81.5916 89.6173 81.5916 88.1973V74.1749L90.3417 71.9874L99.0917 74.1749V88.1973Z" fill="#B82019" stroke="#B82019" stroke-width="0.7"/>
<path d="M93.5353 79.4645C93.1408 79.07 92.5012 79.07 92.1068 79.4645L89.9998 81.5715L87.893 79.4647C87.4986 79.0702 86.859 79.0702 86.4645 79.4647C86.0701 79.8591 86.0701 80.4987 86.4645 80.8932L88.5713 83L86.4642 85.107C86.0698 85.5015 86.0698 86.1411 86.4642 86.5356C86.8587 86.93 87.4983 86.93 87.8927 86.5356L89.9998 84.4285L92.1066 86.5353C92.501 86.9297 93.1406 86.9297 93.5351 86.5353C93.9296 86.1408 93.9296 85.5012 93.5351 85.1068L91.4283 83L93.5353 80.893C93.9298 80.4986 93.9298 79.859 93.5353 79.4645Z" fill="#B82019"/>
</g>
<defs>
<filter id="filter0_d_732_2201" x="37.3965" y="36.65" width="68.5449" height="68.7" filterUnits="userSpaceOnUse" color-interpolation-filters="sRGB">
<feFlood flood-opacity="0" result="BackgroundImageFix"/>
<feColorMatrix in="SourceAlpha" type="matrix" values="0 0 0 0 0 0 0 0 0 0 0 0 0 0 0 0 0 0 127 0" result="hardAlpha"/>
<feOffset dy="4"/>
<feGaussianBlur stdDeviation="2"/>
<feComposite in2="hardAlpha" operator="out"/>
<feColorMatrix type="matrix" values="0 0 0 0 0 0 0 0 0 0.309804 0 0 0 0 0.694118 0 0 0 0.29 0"/>
<feBlend mode="normal" in2="BackgroundImageFix" result="effect1_dropShadow_732_2201"/>
<feBlend mode="normal" in="SourceGraphic" in2="effect1_dropShadow_732_2201" result="shape"/>
</filter>
<radialGradient id="paint0_radial_732_2201" cx="0" cy="0" r="1" gradientUnits="userSpaceOnUse" gradientTransform="translate(72 72) rotate(-90) scale(63)">
<stop offset="0.854167" stop-color="#EEF5FF"/>
<stop offset="1" stop-color="#E4EFFF"/>
</radialGradient>
</defs>
</svg>
